RecursiveMonoVar-CasualRegularItalic.ufo
<glyph name="exclam" format="2">
  <advance width="600"/>
  <unicode hex="0021"/>
  <outline>
    <contour>
      <point x="332" y="256" type="line"/>
      <point x="360" y="330"/>
      <point x="389" y="415"/>
      <point x="407" y="488" type="curve"/>
      <point x="450" y="661" type="line" smooth="yes"/>
      <point x="460" y="697"/>
      <point x="437" y="710"/>
      <point x="386" y="710" type="curve" smooth="yes"/>
      <point x="372" y="710"/>
      <point x="361" y="709"/>
      <point x="348" y="706" type="curve"/>
      <point x="347" y="670"/>
      <point x="340" y="635"/>
      <point x="330" y="597" type="curve" smooth="yes"/>
      <point x="303" y="490" type="line"/>
      <point x="276" y="382"/>
      <point x="260" y="289"/>
      <point x="272" y="273" type="curve" smooth="yes"/>
      <point x="281" y="261"/>
      <point x="300" y="256"/>
      <point x="325" y="256" type="curve"/>
    </contour>
    <contour>
      <point x="310" y="5" type="curve"/>
      <point x="331" y="90" type="line" smooth="yes"/>
      <point x="342" y="133"/>
      <point x="309" y="150"/>
      <point x="256" y="150" type="curve" smooth="yes"/>
      <point x="233" y="150"/>
      <point x="212" y="146"/>
      <point x="193" y="139" type="curve"/>
      <point x="172" y="53" type="line" smooth="yes"/>
      <point x="161" y="10"/>
      <point x="194" y="-7"/>
      <point x="248" y="-7" type="curve" smooth="yes"/>
      <point x="270" y="-7"/>
      <point x="291" y="-3"/>
    </contour>
  </outline>
</glyph>
<glyph name="numbersign" format="2">
  <advance width="600"/>
  <unicode hex="0023"/>
  <outline>
    <contour>
      <point x="315" y="715" type="curve"/>
      <point x="264" y="513"/>
      <point x="167" y="239"/>
      <point x="-4" y="-12" type="curve"/>
      <point x="3" y="-17"/>
      <point x="10" y="-20"/>
      <point x="24" y="-20" type="curve"/>
      <point x="49" y="-20"/>
      <point x="66" y="-15"/>
      <point x="80" y="7" type="curve" smooth="yes"/>
      <point x="241" y="253"/>
      <point x="335" y="519"/>
      <point x="380" y="696" type="curve" smooth="yes"/>
      <point x="385" y="716"/>
      <point x="367" y="720"/>
      <point x="347" y="720" type="curve" smooth="yes"/>
      <point x="336" y="720"/>
      <point x="325" y="718"/>
    </contour>
    <contour>
      <point x="521" y="715" type="curve"/>
      <point x="471" y="516"/>
      <point x="373" y="239"/>
      <point x="202" y="-12" type="curve"/>
      <point x="209" y="-17"/>
      <point x="216" y="-20"/>
      <point x="230" y="-20" type="curve"/>
      <point x="255" y="-20"/>
      <point x="272" y="-15"/>
      <point x="286" y="7" type="curve" smooth="yes"/>
      <point x="447" y="253"/>
      <point x="541" y="519"/>
      <point x="585" y="696" type="curve" smooth="yes"/>
      <point x="591" y="716"/>
      <point x="573" y="720"/>
      <point x="553" y="720" type="curve" smooth="yes"/>
      <point x="542" y="720"/>
      <point x="531" y="718"/>
    </contour>
    <contour>
      <point x="613" y="441" type="line"/>
      <point x="614" y="445"/>
      <point x="615" y="449"/>
      <point x="616" y="453" type="curve" smooth="yes"/>
      <point x="623" y="479"/>
      <point x="622" y="495"/>
      <point x="614" y="506" type="curve" smooth="yes"/>
      <point x="609" y="513"/>
      <point x="601" y="516"/>
      <point x="583" y="516" type="curve"/>
      <point x="132" y="516" type="line"/>
      <point x="129" y="507"/>
      <point x="125" y="497"/>
      <point x="123" y="489" type="curve" smooth="yes"/>
      <point x="116" y="458"/>
      <point x="120" y="441"/>
      <point x="150" y="441" type="curve"/>
    </contour>
    <contour>
      <point x="29" y="259" type="line"/>
      <point x="28" y="255"/>
      <point x="27" y="251"/>
      <point x="26" y="247" type="curve" smooth="yes"/>
      <point x="19" y="220"/>
      <point x="21" y="205"/>
      <point x="29" y="194" type="curve" smooth="yes"/>
      <point x="34" y="187"/>
      <point x="42" y="184"/>
      <point x="60" y="184" type="curve"/>
      <point x="510" y="184" type="line"/>
      <point x="514" y="193"/>
      <point x="517" y="203"/>
      <point x="519" y="211" type="curve" smooth="yes"/>
      <point x="527" y="242"/>
      <point x="522" y="259"/>
      <point x="492" y="259" type="curve"/>
    </contour>
  </outline>
</glyph>
<glyph name="dollar" format="2">
  <advance width="600"/>
  <unicode hex="0024"/>
  <outline>
    <contour>
      <point x="488" y="720" type="curve" smooth="yes"/>
      <point x="326" y="720"/>
      <point x="171" y="614"/>
      <point x="143" y="501" type="curve" smooth="yes"/>
      <point x="140" y="490" type="line" smooth="yes"/>
      <point x="133" y="464"/>
      <point x="173" y="442"/>
      <point x="210" y="438" type="curve"/>
      <point x="211" y="459"/>
      <point x="215" y="479"/>
      <point x="221" y="500" type="curve" smooth="yes"/>
      <point x="240" y="576"/>
      <point x="362" y="639"/>
      <point x="471" y="639" type="curve" smooth="yes"/>
      <point x="536" y="639"/>
      <point x="570" y="625"/>
      <point x="600" y="601" type="curve"/>
      <point x="605" y="601" type="line"/>
      <point x="614" y="614"/>
      <point x="620" y="627"/>
      <point x="624" y="642" type="curve" smooth="yes"/>
      <point x="628" y="658"/>
      <point x="630" y="674"/>
      <point x="622" y="684" type="curve" smooth="yes"/>
      <point x="604" y="707"/>
      <point x="560" y="720"/>
    </contour>
    <contour>
      <point x="397" y="350" type="curve" smooth="yes"/>
      <point x="317" y="382" type="line" smooth="yes"/>
      <point x="214" y="424"/>
      <point x="210" y="458"/>
      <point x="221" y="500" type="curve" smooth="yes"/>
      <point x="226" y="523"/>
      <point x="231" y="540"/>
      <point x="243" y="566" type="curve"/>
      <point x="199" y="560"/>
      <point x="152" y="539"/>
      <point x="140" y="490" type="curve" smooth="yes"/>
      <point x="122" y="419"/>
      <point x="148" y="363"/>
      <point x="276" y="311" type="curve" smooth="yes"/>
      <point x="356" y="278" type="line" smooth="yes"/>
      <point x="435" y="246"/>
      <point x="450" y="206"/>
      <point x="432" y="136" type="curve" smooth="yes"/>
      <point x="430" y="127"/>
      <point x="428" y="120"/>
      <point x="427" y="116" type="curve"/>
      <point x="458" y="119"/>
      <point x="508" y="155"/>
      <point x="513" y="178" type="curve"/>
      <point x="530" y="244"/>
      <point x="501" y="309"/>
    </contour>
    <contour>
      <point x="230" y="-15" type="curve" smooth="yes"/>
      <point x="376" y="-15"/>
      <point x="484" y="60"/>
      <point x="511" y="170" type="curve" smooth="yes"/>
      <point x="513" y="178" type="line" smooth="yes"/>
      <point x="520" y="204"/>
      <point x="493" y="223"/>
      <point x="470" y="225" type="curve"/>
      <point x="469" y="221"/>
      <point x="468" y="216"/>
      <point x="465" y="207" type="curve" smooth="yes"/>
      <point x="444" y="122"/>
      <point x="360" y="67"/>
      <point x="250" y="67" type="curve" smooth="yes"/>
      <point x="147" y="67"/>
      <point x="87" y="96"/>
      <point x="52" y="158" type="curve"/>
      <point x="48" y="158" type="line"/>
      <point x="41" y="144"/>
      <point x="35" y="130"/>
      <point x="30" y="113" type="curve" smooth="yes"/>
      <point x="23" y="84"/>
      <point x="24" y="63"/>
      <point x="36" y="48" type="curve" smooth="yes"/>
      <point x="66" y="8"/>
      <point x="137" y="-15"/>
    </contour>
    <contour>
      <point x="383" y="416" type="line"/>
      <point x="533" y="811" type="line" smooth="yes"/>
      <point x="553" y="861"/>
      <point x="543" y="885"/>
      <point x="499" y="885" type="curve" smooth="yes"/>
      <point x="487" y="885"/>
      <point x="472" y="882"/>
      <point x="461" y="879" type="curve"/>
      <point x="463" y="854"/>
      <point x="461" y="830"/>
      <point x="449" y="788" type="curve"/>
      <point x="349" y="450" type="line" smooth="yes"/>
      <point x="343" y="428"/>
      <point x="357" y="416"/>
      <point x="379" y="416" type="curve" smooth="yes"/>
    </contour>
    <contour>
      <point x="276" y="248" type="line"/>
      <point x="134" y="-121" type="line" smooth="yes"/>
      <point x="113" y="-171"/>
      <point x="123" y="-195"/>
      <point x="167" y="-195" type="curve" smooth="yes"/>
      <point x="179" y="-195"/>
      <point x="195" y="-192"/>
      <point x="205" y="-189" type="curve"/>
      <point x="204" y="-164"/>
      <point x="206" y="-140"/>
      <point x="218" y="-98" type="curve"/>
      <point x="310" y="213" type="line" smooth="yes"/>
      <point x="316" y="235"/>
      <point x="302" y="248"/>
      <point x="280" y="248" type="curve" smooth="yes"/>
    </contour>
  </outline>
</glyph>
<glyph name="percent" format="2">
  <advance width="600"/>
  <unicode hex="0025"/>
  <outline>
    <contour>
      <point x="240" y="667" type="curve"/>
      <point x="322" y="667"/>
      <point x="354" y="634"/>
      <point x="332" y="545" type="curve" smooth="yes"/>
      <point x="330" y="540" type="line" smooth="yes"/>
      <point x="313" y="471"/>
      <point x="269" y="430"/>
      <point x="201" y="430" type="curve" smooth="yes"/>
      <point x="169" y="430"/>
      <point x="153" y="439"/>
      <point x="136" y="465" type="curve"/>
      <point x="82" y="421"/>
      <point x="142" y="356"/>
      <point x="196" y="356" type="curve" smooth="yes"/>
      <point x="293" y="356"/>
      <point x="372" y="423"/>
      <point x="398" y="529" type="curve" smooth="yes"/>
      <point x="400" y="535" type="line" smooth="yes"/>
      <point x="426" y="639"/>
      <point x="382" y="710"/>
      <point x="292" y="710" type="curve" smooth="yes"/>
      <point x="268" y="710"/>
      <point x="246" y="691"/>
    </contour>
    <contour>
      <point x="240" y="402" type="curve"/>
      <point x="166" y="402"/>
      <point x="133" y="451"/>
      <point x="150" y="521" type="curve" smooth="yes"/>
      <point x="152" y="526" type="line" smooth="yes"/>
      <point x="170" y="599"/>
      <point x="222" y="648"/>
      <point x="280" y="648" type="curve" smooth="yes"/>
      <point x="314" y="648"/>
      <point x="333" y="644"/>
      <point x="354" y="618" type="curve"/>
      <point x="393" y="650"/>
      <point x="347" y="710"/>
      <point x="292" y="710" type="curve" smooth="yes"/>
      <point x="198" y="710"/>
      <point x="116" y="637"/>
      <point x="89" y="529" type="curve" smooth="yes"/>
      <point x="88" y="523" type="line" smooth="yes"/>
      <point x="62" y="420"/>
      <point x="103" y="356"/>
      <point x="196" y="356" type="curve" smooth="yes"/>
      <point x="216" y="356"/>
      <point x="234" y="378"/>
    </contour>
    <contour>
      <point x="393" y="301" type="curve"/>
      <point x="475" y="301"/>
      <point x="506" y="268"/>
      <point x="484" y="179" type="curve" smooth="yes"/>
      <point x="483" y="174" type="line" smooth="yes"/>
      <point x="465" y="105"/>
      <point x="422" y="64"/>
      <point x="353" y="64" type="curve" smooth="yes"/>
      <point x="321" y="64"/>
      <point x="305" y="73"/>
      <point x="288" y="99" type="curve"/>
      <point x="235" y="55"/>
      <point x="295" y="-10"/>
      <point x="349" y="-10" type="curve" smooth="yes"/>
      <point x="446" y="-10"/>
      <point x="525" y="57"/>
      <point x="551" y="163" type="curve" smooth="yes"/>
      <point x="553" y="169" type="line" smooth="yes"/>
      <point x="579" y="273"/>
      <point x="534" y="344"/>
      <point x="444" y="344" type="curve" smooth="yes"/>
      <point x="421" y="344"/>
      <point x="399" y="325"/>
    </contour>
    <contour>
      <point x="392" y="36" type="curve"/>
      <point x="318" y="36"/>
      <point x="286" y="85"/>
      <point x="303" y="155" type="curve" smooth="yes"/>
      <point x="304" y="160" type="line" smooth="yes"/>
      <point x="323" y="233"/>
      <point x="374" y="282"/>
      <point x="433" y="282" type="curve" smooth="yes"/>
      <point x="467" y="282"/>
      <point x="486" y="278"/>
      <point x="507" y="252" type="curve"/>
      <point x="545" y="284"/>
      <point x="500" y="344"/>
      <point x="444" y="344" type="curve" smooth="yes"/>
      <point x="350" y="344"/>
      <point x="269" y="271"/>
      <point x="242" y="163" type="curve" smooth="yes"/>
      <point x="241" y="157" type="line" smooth="yes"/>
      <point x="215" y="54"/>
      <point x="256" y="-10"/>
      <point x="349" y="-10" type="curve" smooth="yes"/>
      <point x="369" y="-10"/>
      <point x="387" y="12"/>
    </contour>
    <contour>
      <point x="399" y="415" type="curve"/>
      <point x="412" y="407"/>
      <point x="424" y="403"/>
      <point x="443" y="403" type="curve" smooth="yes"/>
      <point x="461" y="403"/>
      <point x="470" y="407"/>
      <point x="484" y="418" type="curve" smooth="yes"/>
      <point x="566" y="484"/>
      <point x="637" y="582"/>
      <point x="658" y="667" type="curve" smooth="yes"/>
      <point x="665" y="692"/>
      <point x="649" y="708"/>
      <point x="613" y="708" type="curve" smooth="yes"/>
      <point x="597" y="708"/>
      <point x="586" y="707"/>
      <point x="572" y="702" type="curve"/>
      <point x="536" y="591"/>
      <point x="492" y="508"/>
    </contour>
    <contour>
      <point x="243" y="284" type="curve"/>
      <point x="231" y="293"/>
      <point x="219" y="296"/>
      <point x="199" y="296" type="curve" smooth="yes"/>
      <point x="182" y="296"/>
      <point x="172" y="292"/>
      <point x="158" y="281" type="curve" smooth="yes"/>
      <point x="77" y="216"/>
      <point x="5" y="118"/>
      <point x="-16" y="32" type="curve" smooth="yes"/>
      <point x="-22" y="7"/>
      <point x="-6" y="-9"/>
      <point x="29" y="-9" type="curve" smooth="yes"/>
      <point x="45" y="-9"/>
      <point x="56" y="-7"/>
      <point x="70" y="-2" type="curve"/>
      <point x="106" y="109"/>
      <point x="151" y="191"/>
    </contour>
  </outline>
</glyph>
<glyph name="quotesingle" format="2">
  <advance width="600"/>
  <unicode hex="0027"/>
  <outline>
    <contour>
      <point x="385" y="441" type="curve"/>
      <point x="453" y="667" type="line" smooth="yes"/>
      <point x="471" y="728"/>
      <point x="452" y="754"/>
      <point x="389" y="754" type="curve" smooth="yes"/>
      <point x="377" y="754"/>
      <point x="365" y="752"/>
      <point x="356" y="750" type="curve"/>
      <point x="358" y="726"/>
      <point x="357" y="712"/>
      <point x="345" y="657" type="curve" smooth="yes"/>
      <point x="311" y="481" type="line" smooth="yes"/>
      <point x="305" y="450"/>
      <point x="319" y="439"/>
      <point x="360" y="439" type="curve" smooth="yes"/>
      <point x="370" y="439"/>
      <point x="378" y="439"/>
    </contour>
  </outline>
</glyph>
<glyph name="parenleft" format="2">
  <advance width="600"/>
  <unicode hex="0028"/>
  <outline>
    <contour>
      <point x="503" y="745" type="curve" smooth="yes"/>
      <point x="365" y="635"/>
      <point x="263" y="480"/>
      <point x="219" y="302" type="curve" smooth="yes"/>
      <point x="218" y="296" type="line" smooth="yes"/>
      <point x="173" y="118"/>
      <point x="197" y="-37"/>
      <point x="279" y="-148" type="curve" smooth="yes"/>
      <point x="292" y="-165"/>
      <point x="305" y="-172"/>
      <point x="324" y="-172" type="curve" smooth="yes"/>
      <point x="351" y="-172"/>
      <point x="370" y="-164"/>
      <point x="386" y="-153" type="curve"/>
      <point x="387" y="-149" type="line"/>
      <point x="291" y="-29"/>
      <point x="266" y="124"/>
      <point x="309" y="296" type="curve" smooth="yes"/>
      <point x="310" y="302" type="line" smooth="yes"/>
      <point x="353" y="472"/>
      <point x="454" y="627"/>
      <point x="611" y="747" type="curve"/>
      <point x="612" y="751" type="line"/>
      <point x="601" y="762"/>
      <point x="586" y="770"/>
      <point x="560" y="770" type="curve" smooth="yes"/>
      <point x="541" y="770"/>
      <point x="524" y="763"/>
    </contour>
  </outline>
</glyph>
<glyph name="parenright" format="2">
  <advance width="600"/>
  <unicode hex="0029"/>
  <outline>
    <contour>
      <point x="114" y="-148" type="curve" smooth="yes"/>
      <point x="252" y="-37"/>
      <point x="353" y="118"/>
      <point x="398" y="296" type="curve" smooth="yes"/>
      <point x="399" y="302" type="line" smooth="yes"/>
      <point x="444" y="480"/>
      <point x="420" y="635"/>
      <point x="337" y="745" type="curve" smooth="yes"/>
      <point x="325" y="763"/>
      <point x="311" y="770"/>
      <point x="293" y="770" type="curve" smooth="yes"/>
      <point x="266" y="770"/>
      <point x="247" y="762"/>
      <point x="231" y="751" type="curve"/>
      <point x="230" y="747" type="line"/>
      <point x="326" y="627"/>
      <point x="351" y="473"/>
      <point x="308" y="302" type="curve" smooth="yes"/>
      <point x="307" y="296" type="line" smooth="yes"/>
      <point x="264" y="125"/>
      <point x="163" y="-29"/>
      <point x="6" y="-149" type="curve"/>
      <point x="5" y="-153" type="line"/>
      <point x="16" y="-164"/>
      <point x="31" y="-172"/>
      <point x="57" y="-172" type="curve" smooth="yes"/>
      <point x="76" y="-172"/>
      <point x="93" y="-165"/>
    </contour>
  </outline>
</glyph>
<glyph name="asterisk" format="2">
  <advance width="600"/>
  <unicode hex="002A"/>
  <outline>
    <contour>
      <point x="328" y="570" type="curve"/>
      <point x="329" y="550"/>
      <point x="330" y="532"/>
      <point x="325" y="503" type="curve" smooth="yes"/>
      <point x="292" y="309" type="line"/>
      <point x="222" y="120" type="line" smooth="yes"/>
      <point x="202" y="71"/>
      <point x="210" y="43"/>
      <point x="260" y="43" type="curve"/>
      <point x="272" y="43"/>
      <point x="284" y="45"/>
      <point x="298" y="49" type="curve"/>
      <point x="296" y="69"/>
      <point x="295" y="87"/>
      <point x="299" y="115" type="curve" smooth="yes"/>
      <point x="333" y="309" type="line"/>
      <point x="403" y="498" type="line" smooth="yes"/>
      <point x="423" y="549"/>
      <point x="415" y="577"/>
      <point x="365" y="577" type="curve" smooth="yes"/>
      <point x="353" y="576"/>
      <point x="341" y="574"/>
    </contour>
    <contour>
      <point x="561" y="478" type="curve"/>
      <point x="303" y="329" type="line"/>
      <point x="78" y="235" type="line" smooth="yes"/>
      <point x="52" y="225"/>
      <point x="41" y="197"/>
      <point x="51" y="170" type="curve"/>
      <point x="55" y="159"/>
      <point x="60" y="151"/>
      <point x="66" y="143" type="curve"/>
      <point x="323" y="293" type="line"/>
      <point x="549" y="387" type="line" smooth="yes"/>
      <point x="575" y="398"/>
      <point x="583" y="422"/>
      <point x="574" y="452" type="curve" smooth="yes"/>
      <point x="572" y="460"/>
      <point x="569" y="468"/>
    </contour>
    <contour>
      <point x="537" y="217" type="curve"/>
      <point x="331" y="328" type="line"/>
      <point x="175" y="457" type="line" smooth="yes"/>
      <point x="158" y="473"/>
      <point x="133" y="465"/>
      <point x="108" y="436" type="curve"/>
      <point x="100" y="427"/>
      <point x="95" y="416"/>
      <point x="88" y="406" type="curve"/>
      <point x="293" y="292" type="line"/>
      <point x="449" y="162" type="line" smooth="yes"/>
      <point x="467" y="147"/>
      <point x="492" y="156"/>
      <point x="517" y="186" type="curve"/>
      <point x="525" y="197"/>
      <point x="531" y="205"/>
    </contour>
  </outline>
</glyph>
<glyph name="plus" format="2">
  <advance width="600"/>
  <unicode hex="002B"/>
  <outline>
    <contour>
      <point x="75" y="341" type="line"/>
      <point x="74" y="337"/>
      <point x="73" y="332"/>
      <point x="72" y="328" type="curve" smooth="yes"/>
      <point x="65" y="298"/>
      <point x="65" y="280"/>
      <point x="73" y="269" type="curve" smooth="yes"/>
      <point x="78" y="262"/>
      <point x="87" y="259"/>
      <point x="104" y="259" type="curve"/>
      <point x="543" y="259" type="line"/>
      <point x="546" y="268"/>
      <point x="550" y="278"/>
      <point x="552" y="286" type="curve" smooth="yes"/>
      <point x="561" y="322"/>
      <point x="557" y="341"/>
      <point x="527" y="341" type="curve"/>
    </contour>
    <contour>
      <point x="289" y="59" type="curve"/>
      <point x="389" y="456" type="line" smooth="yes"/>
      <point x="397" y="491"/>
      <point x="399" y="511"/>
      <point x="388" y="526" type="curve" smooth="yes"/>
      <point x="378" y="540"/>
      <point x="359" y="543"/>
      <point x="342" y="543" type="curve" smooth="yes"/>
      <point x="334" y="543"/>
      <point x="325" y="542"/>
      <point x="317" y="540" type="curve"/>
      <point x="318" y="510"/>
      <point x="316" y="491"/>
      <point x="305" y="447" type="curve" smooth="yes"/>
      <point x="216" y="92" type="line" smooth="yes"/>
      <point x="209" y="63"/>
      <point x="231" y="57"/>
      <point x="264" y="57" type="curve" smooth="yes"/>
      <point x="273" y="57"/>
      <point x="282" y="57"/>
    </contour>
  </outline>
</glyph>
<glyph name="comma" format="2">
  <advance width="600"/>
  <unicode hex="002C"/>
  <outline>
    <contour>
      <point x="137" y="-193" type="curve" smooth="yes"/>
      <point x="152" y="-193"/>
      <point x="160" y="-191"/>
      <point x="169" y="-183" type="curve"/>
      <point x="234" y="-131"/>
      <point x="309" y="-26"/>
      <point x="339" y="93" type="curve"/>
      <point x="348" y="129"/>
      <point x="324" y="141"/>
      <point x="282" y="141" type="curve" smooth="yes"/>
      <point x="263" y="141"/>
      <point x="250" y="139"/>
      <point x="233" y="134" type="curve"/>
      <point x="197" y="-11"/>
      <point x="160" y="-84"/>
      <point x="81" y="-175" type="curve"/>
      <point x="96" y="-188"/>
      <point x="111" y="-193"/>
    </contour>
  </outline>
</glyph>
<glyph name="period" format="2">
  <advance width="600"/>
  <unicode hex="002E"/>
  <outline>
    <contour>
      <point x="310" y="5" type="curve"/>
      <point x="331" y="90" type="line" smooth="yes"/>
      <point x="342" y="133"/>
      <point x="309" y="150"/>
      <point x="256" y="150" type="curve" smooth="yes"/>
      <point x="233" y="150"/>
      <point x="212" y="146"/>
      <point x="193" y="139" type="curve"/>
      <point x="172" y="53" type="line" smooth="yes"/>
      <point x="161" y="10"/>
      <point x="194" y="-7"/>
      <point x="248" y="-7" type="curve" smooth="yes"/>
      <point x="270" y="-7"/>
      <point x="291" y="-3"/>
    </contour>
  </outline>
</glyph>
<glyph name="zero" format="2">
  <advance width="600"/>
  <unicode hex="0030"/>
  <outline>
    <contour>
      <point x="408" y="720" type="curve" smooth="yes"/>
      <point x="275" y="720"/>
      <point x="153" y="614"/>
      <point x="96" y="380" type="curve" smooth="yes"/>
      <point x="85" y="333" type="line" smooth="yes"/>
      <point x="32" y="118"/>
      <point x="96" y="-20"/>
      <point x="234" y="-20" type="curve"/>
      <point x="261" y="-20"/>
      <point x="278" y="4"/>
      <point x="285" y="30" type="curve"/>
      <point x="133" y="44"/>
      <point x="133" y="194"/>
      <point x="164" y="324" type="curve" smooth="yes"/>
      <point x="174" y="368" type="line" smooth="yes"/>
      <point x="214" y="533"/>
      <point x="290" y="641"/>
      <point x="399" y="641" type="curve" smooth="yes"/>
      <point x="441" y="641"/>
      <point x="473" y="631"/>
      <point x="501" y="613" type="curve"/>
      <point x="525" y="646"/>
      <point x="482" y="720"/>
    </contour>
    <contour>
      <point x="234" y="-20" type="curve" smooth="yes"/>
      <point x="368" y="-20"/>
      <point x="487" y="83"/>
      <point x="542" y="309" type="curve" smooth="yes"/>
      <point x="554" y="356" type="line" smooth="yes"/>
      <point x="609" y="582"/>
      <point x="547" y="720"/>
      <point x="408" y="720" type="curve"/>
      <point x="382" y="720"/>
      <point x="364" y="696"/>
      <point x="358" y="670" type="curve"/>
      <point x="510" y="656"/>
      <point x="510" y="504"/>
      <point x="475" y="363" type="curve" smooth="yes"/>
      <point x="464" y="319" type="line" smooth="yes"/>
      <point x="425" y="164"/>
      <point x="353" y="59"/>
      <point x="245" y="59" type="curve" smooth="yes"/>
      <point x="202" y="59"/>
      <point x="167" y="68"/>
      <point x="138" y="89" type="curve"/>
      <point x="114" y="51"/>
      <point x="163" y="-20"/>
    </contour>
    <contour>
      <point x="111" y="146" type="curve"/>
      <point x="266" y="250"/>
      <point x="387" y="352"/>
      <point x="516" y="487" type="curve"/>
      <point x="542" y="513"/>
      <point x="545" y="554"/>
      <point x="528" y="576" type="curve"/>
      <point x="382" y="419"/>
      <point x="261" y="321"/>
      <point x="114" y="216" type="curve" smooth="yes"/>
      <point x="97" y="206"/>
      <point x="96" y="166"/>
    </contour>
  </outline>
</glyph>
<glyph name="one" format="2">
  <advance width="600"/>
  <unicode hex="0031"/>
  <outline>
    <contour>
      <point x="322" y="40" type="curve"/>
      <point x="376" y="254"/>
      <point x="429" y="468"/>
      <point x="483" y="680" type="curve" smooth="yes"/>
      <point x="488" y="703"/>
      <point x="460" y="710"/>
      <point x="424" y="710" type="curve" smooth="yes"/>
      <point x="409" y="710" type="line"/>
      <point x="361" y="522"/>
      <point x="313" y="327"/>
      <point x="266" y="138" type="curve" smooth="yes"/>
      <point x="248" y="68"/>
      <point x="272" y="40"/>
    </contour>
    <contour>
      <point x="36" y="80" type="line"/>
      <point x="34" y="75"/>
      <point x="31" y="70"/>
      <point x="30" y="63" type="curve" smooth="yes"/>
      <point x="23" y="37"/>
      <point x="24" y="22"/>
      <point x="31" y="11" type="curve" smooth="yes"/>
      <point x="38" y="3"/>
      <point x="46" y="0"/>
      <point x="67" y="0" type="curve" smooth="yes"/>
      <point x="491" y="0" type="line"/>
      <point x="494" y="6"/>
      <point x="497" y="13"/>
      <point x="498" y="19" type="curve" smooth="yes"/>
      <point x="507" y="54"/>
      <point x="438" y="80"/>
      <point x="318" y="80" type="curve" smooth="yes"/>
    </contour>
    <contour>
      <point x="170" y="456" type="curve" smooth="yes"/>
      <point x="196" y="456"/>
      <point x="260" y="493"/>
      <point x="308" y="531" type="curve" smooth="yes"/>
      <point x="361" y="574"/>
      <point x="413" y="636"/>
      <point x="423" y="673" type="curve" smooth="yes"/>
      <point x="428" y="697"/>
      <point x="421" y="710"/>
      <point x="412" y="710" type="curve"/>
      <point x="389" y="710" type="line"/>
      <point x="359" y="675"/>
      <point x="330" y="645"/>
      <point x="291" y="613" type="curve"/>
      <point x="243" y="576"/>
      <point x="203" y="552"/>
      <point x="157" y="532" type="curve"/>
      <point x="153" y="520" type="line" smooth="yes"/>
      <point x="141" y="476"/>
      <point x="156" y="456"/>
    </contour>
  </outline>
</glyph>
<glyph name="two" format="2">
  <advance width="600"/>
  <unicode hex="0032"/>
  <outline>
    <contour>
      <point x="473" y="651" type="curve"/>
      <point x="499" y="612"/>
      <point x="512" y="577"/>
      <point x="499" y="524" type="curve" smooth="yes"/>
      <point x="479" y="444"/>
      <point x="419" y="386"/>
      <point x="273" y="307" type="curve" smooth="yes"/>
      <point x="114" y="221"/>
      <point x="41" y="161"/>
      <point x="17" y="65" type="curve" smooth="yes"/>
      <point x="12" y="46"/>
      <point x="34" y="39"/>
      <point x="87" y="39" type="curve"/>
      <point x="107" y="120"/>
      <point x="149" y="158"/>
      <point x="327" y="252" type="curve" smooth="yes"/>
      <point x="471" y="329"/>
      <point x="552" y="393"/>
      <point x="580" y="507" type="curve" smooth="yes"/>
      <point x="583" y="517" type="line" smooth="yes"/>
      <point x="602" y="597"/>
      <point x="557" y="679"/>
    </contour>
    <contour>
      <point x="465" y="0" type="line"/>
      <point x="468" y="8"/>
      <point x="472" y="18"/>
      <point x="474" y="27" type="curve" smooth="yes"/>
      <point x="482" y="61"/>
      <point x="478" y="80"/>
      <point x="448" y="80" type="curve" smooth="yes"/>
      <point x="103" y="80" type="line" smooth="yes"/>
      <point x="70" y="80"/>
      <point x="44" y="77"/>
      <point x="17" y="65" type="curve"/>
      <point x="17" y="63"/>
      <point x="16" y="62"/>
      <point x="16" y="61" type="curve" smooth="yes"/>
      <point x="9" y="36"/>
      <point x="19" y="0"/>
      <point x="39" y="0" type="curve" smooth="yes"/>
    </contour>
    <contour>
      <point x="414" y="720" type="curve" smooth="yes"/>
      <point x="338" y="720"/>
      <point x="278" y="705"/>
      <point x="234" y="670" type="curve" smooth="yes"/>
      <point x="197" y="641"/>
      <point x="170" y="605"/>
      <point x="160" y="566" type="curve" smooth="yes"/>
      <point x="155" y="544"/>
      <point x="163" y="519"/>
      <point x="172" y="506" type="curve"/>
      <point x="177" y="506" type="line"/>
      <point x="232" y="597"/>
      <point x="303" y="640"/>
      <point x="396" y="640" type="curve" smooth="yes"/>
      <point x="495" y="640"/>
      <point x="544" y="586"/>
      <point x="528" y="522" type="curve" smooth="yes"/>
      <point x="523" y="502"/>
      <point x="516" y="483"/>
      <point x="506" y="463" type="curve"/>
      <point x="540" y="463"/>
      <point x="574" y="485"/>
      <point x="583" y="517" type="curve" smooth="yes"/>
      <point x="613" y="638"/>
      <point x="539" y="720"/>
    </contour>
  </outline>
</glyph>
<glyph name="three" format="2">
  <advance width="600"/>
  <unicode hex="0033"/>
  <outline>
    <contour>
      <point x="380" y="640" type="curve" smooth="yes"/>
      <point x="504" y="640"/>
      <point x="541" y="571"/>
      <point x="519" y="482" type="curve" smooth="yes"/>
      <point x="517" y="471"/>
      <point x="513" y="460"/>
      <point x="507" y="448" type="curve"/>
      <point x="532" y="448"/>
      <point x="576" y="476"/>
      <point x="585" y="511" type="curve" smooth="yes"/>
      <point x="587" y="521" type="line" smooth="yes"/>
      <point x="614" y="630"/>
      <point x="544" y="719"/>
      <point x="400" y="719" type="curve" smooth="yes"/>
      <point x="313" y="719"/>
      <point x="256" y="701"/>
      <point x="212" y="670" type="curve" smooth="yes"/>
      <point x="183" y="647"/>
      <point x="171" y="633"/>
      <point x="164" y="604" type="curve" smooth="yes"/>
      <point x="159" y="588"/>
      <point x="160" y="569"/>
      <point x="162" y="552" type="curve"/>
      <point x="167" y="552" type="line"/>
      <point x="236" y="618"/>
      <point x="291" y="640"/>
    </contour>
    <contour>
      <point x="214" y="307" type="curve" smooth="yes"/>
      <point x="414" y="307"/>
      <point x="551" y="380"/>
      <point x="585" y="511" type="curve" smooth="yes"/>
      <point x="592" y="542"/>
      <point x="551" y="586"/>
      <point x="525" y="588" type="curve"/>
      <point x="524" y="576"/>
      <point x="522" y="565"/>
      <point x="517" y="549" type="curve" smooth="yes"/>
      <point x="485" y="413"/>
      <point x="357" y="358"/>
      <point x="198" y="358" type="curve"/>
      <point x="193" y="349"/>
      <point x="190" y="342"/>
      <point x="188" y="331" type="curve" smooth="yes"/>
      <point x="184" y="316"/>
      <point x="199" y="307"/>
    </contour>
    <contour>
      <point x="205" y="286" type="curve" smooth="yes"/>
      <point x="356" y="283"/>
      <point x="455" y="236"/>
      <point x="431" y="140" type="curve" smooth="yes"/>
      <point x="428" y="126"/>
      <point x="426" y="119"/>
      <point x="421" y="109" type="curve"/>
      <point x="455" y="112"/>
      <point x="499" y="130"/>
      <point x="507" y="155" type="curve" smooth="yes"/>
      <point x="537" y="277"/>
      <point x="422" y="342"/>
      <point x="193" y="342" type="curve"/>
      <point x="190" y="338"/>
      <point x="189" y="335"/>
      <point x="188" y="331" type="curve" smooth="yes"/>
      <point x="181" y="304"/>
      <point x="183" y="287"/>
    </contour>
    <contour>
      <point x="242" y="60" type="curve" smooth="yes"/>
      <point x="143" y="60"/>
      <point x="90" y="90"/>
      <point x="51" y="156" type="curve"/>
      <point x="47" y="156" type="line"/>
      <point x="40" y="142"/>
      <point x="36" y="132"/>
      <point x="31" y="113" type="curve" smooth="yes"/>
      <point x="24" y="85"/>
      <point x="25" y="68"/>
      <point x="40" y="49" type="curve" smooth="yes"/>
      <point x="69" y="10"/>
      <point x="135" y="-20"/>
      <point x="233" y="-20" type="curve" smooth="yes"/>
      <point x="382" y="-20"/>
      <point x="477" y="37"/>
      <point x="504" y="145" type="curve" smooth="yes"/>
      <point x="507" y="155" type="line" smooth="yes"/>
      <point x="515" y="189"/>
      <point x="482" y="227"/>
      <point x="458" y="229" type="curve"/>
      <point x="457" y="221"/>
      <point x="454" y="211"/>
      <point x="452" y="200" type="curve" smooth="yes"/>
      <point x="429" y="109"/>
      <point x="366" y="60"/>
    </contour>
  </outline>
</glyph>
<glyph name="four" format="2">
  <advance width="600"/>
  <unicode hex="0034"/>
  <outline>
    <contour>
      <point x="101" y="200" type="curve"/>
      <point x="199" y="366"/>
      <point x="431" y="593"/>
      <point x="603" y="687" type="curve"/>
      <point x="604" y="691" type="line"/>
      <point x="590" y="705"/>
      <point x="566" y="714"/>
      <point x="529" y="714" type="curve" smooth="yes"/>
      <point x="502" y="714"/>
      <point x="481" y="708"/>
      <point x="412" y="656" type="curve" smooth="yes"/>
      <point x="231" y="520"/>
      <point x="59" y="309"/>
      <point x="38" y="225" type="curve" smooth="yes"/>
      <point x="34" y="207"/>
      <point x="74" y="200"/>
    </contour>
    <contour>
      <point x="537" y="152" type="line"/>
      <point x="539" y="158"/>
      <point x="542" y="166"/>
      <point x="544" y="173" type="curve" smooth="yes"/>
      <point x="551" y="202"/>
      <point x="552" y="231"/>
      <point x="528" y="231" type="curve" smooth="yes"/>
      <point x="299" y="231" type="line"/>
      <point x="219" y="231"/>
      <point x="123" y="229"/>
      <point x="38" y="225" type="curve"/>
      <point x="36" y="217" type="line" smooth="yes"/>
      <point x="30" y="192"/>
      <point x="33" y="171"/>
      <point x="41" y="159" type="curve" smooth="yes"/>
      <point x="45" y="154"/>
      <point x="51" y="152"/>
      <point x="62" y="152" type="curve" smooth="yes"/>
    </contour>
    <contour>
      <point x="423" y="-4" type="curve"/>
      <point x="423" y="30"/>
      <point x="426" y="53"/>
      <point x="437" y="99" type="curve" smooth="yes"/>
      <point x="501" y="354" type="line" smooth="yes"/>
      <point x="505" y="369"/>
      <point x="487" y="388"/>
      <point x="452" y="388" type="curve" smooth="yes"/>
      <point x="444" y="388" type="line"/>
      <point x="419" y="326"/>
      <point x="392" y="252"/>
      <point x="376" y="191" type="curve"/>
      <point x="343" y="58" type="line" smooth="yes"/>
      <point x="330" y="6"/>
      <point x="350" y="-9"/>
      <point x="387" y="-9" type="curve" smooth="yes"/>
      <point x="403" y="-9"/>
      <point x="415" y="-7"/>
    </contour>
  </outline>
</glyph>
<glyph name="six" format="2">
  <advance width="600"/>
  <unicode hex="0036"/>
  <outline>
    <contour>
      <point x="117" y="129" type="curve"/>
      <point x="91" y="57"/>
      <point x="165" y="-20"/>
      <point x="260" y="-20" type="curve"/>
      <point x="398" y="-20"/>
      <point x="476" y="52"/>
      <point x="508" y="180" type="curve" smooth="yes"/>
      <point x="509" y="185" type="line" smooth="yes"/>
      <point x="535" y="287"/>
      <point x="476" y="351"/>
      <point x="416" y="324" type="curve"/>
      <point x="441" y="285"/>
      <point x="444" y="246"/>
      <point x="430" y="193" type="curve" smooth="yes"/>
      <point x="428" y="187" type="line" smooth="yes"/>
      <point x="409" y="107"/>
      <point x="359" y="58"/>
      <point x="267" y="58" type="curve" smooth="yes"/>
      <point x="201" y="58"/>
      <point x="162" y="76"/>
    </contour>
    <contour>
      <point x="234" y="566" type="curve"/>
      <point x="301" y="615"/>
      <point x="355" y="640"/>
      <point x="431" y="640" type="curve" smooth="yes"/>
      <point x="497" y="640"/>
      <point x="546" y="625"/>
      <point x="577" y="592" type="curve"/>
      <point x="581" y="592" type="line"/>
      <point x="587" y="602"/>
      <point x="590" y="612"/>
      <point x="594" y="626" type="curve" smooth="yes"/>
      <point x="601" y="655"/>
      <point x="598" y="670"/>
      <point x="590" y="680" type="curve" smooth="yes"/>
      <point x="575" y="700"/>
      <point x="521" y="720"/>
      <point x="448" y="720" type="curve" smooth="yes"/>
      <point x="344" y="720"/>
      <point x="220" y="651"/>
    </contour>
    <contour>
      <point x="89" y="352" type="curve" smooth="yes"/>
      <point x="86" y="341" type="line" smooth="yes"/>
      <point x="30" y="106"/>
      <point x="102" y="-20"/>
      <point x="260" y="-20" type="curve" smooth="yes"/>
      <point x="271" y="-20"/>
      <point x="292" y="-7"/>
      <point x="300" y="21" type="curve"/>
      <point x="166" y="30"/>
      <point x="119" y="139"/>
      <point x="169" y="339" type="curve" smooth="yes"/>
      <point x="171" y="350" type="line" smooth="yes"/>
      <point x="229" y="581"/>
      <point x="303" y="658"/>
      <point x="467" y="682" type="curve"/>
      <point x="473" y="703"/>
      <point x="463" y="720"/>
      <point x="448" y="720" type="curve" smooth="yes"/>
      <point x="270" y="719"/>
      <point x="154" y="626"/>
    </contour>
    <contour>
      <point x="343" y="391" type="curve" smooth="yes"/>
      <point x="264" y="391"/>
      <point x="192" y="364"/>
      <point x="147" y="330" type="curve" smooth="yes"/>
      <point x="133" y="318"/>
      <point x="124" y="298"/>
      <point x="112" y="259" type="curve"/>
      <point x="178" y="298"/>
      <point x="248" y="319"/>
      <point x="318" y="319" type="curve" smooth="yes"/>
      <point x="429" y="319"/>
      <point x="481" y="255"/>
      <point x="457" y="161" type="curve" smooth="yes"/>
      <point x="454" y="149"/>
      <point x="450" y="137"/>
      <point x="444" y="128" type="curve"/>
      <point x="470" y="128"/>
      <point x="503" y="158"/>
      <point x="509" y="185" type="curve" smooth="yes"/>
      <point x="542" y="316"/>
      <point x="460" y="391"/>
    </contour>
  </outline>
</glyph>
<glyph name="seven" format="2">
  <advance width="600"/>
  <unicode hex="0037"/>
  <outline>
    <contour>
      <point x="540" y="620" type="line" smooth="yes"/>
      <point x="571" y="620"/>
      <point x="599" y="622"/>
      <point x="623" y="624" type="curve"/>
      <point x="625" y="635" type="line"/>
      <point x="633" y="664"/>
      <point x="628" y="700"/>
      <point x="605" y="700" type="curve"/>
      <point x="208" y="700" type="line"/>
      <point x="205" y="685" type="line" smooth="yes"/>
      <point x="194" y="643"/>
      <point x="198" y="620"/>
      <point x="222" y="620" type="curve" smooth="yes"/>
    </contour>
    <contour>
      <point x="249" y="-10" type="line"/>
      <point x="309" y="225"/>
      <point x="584" y="471"/>
      <point x="623" y="624" type="curve" smooth="yes"/>
      <point x="627" y="642"/>
      <point x="586" y="647"/>
      <point x="539" y="646" type="curve"/>
      <point x="500" y="492"/>
      <point x="222" y="231"/>
      <point x="172" y="32" type="curve" smooth="yes"/>
      <point x="165" y="3"/>
      <point x="203" y="-10"/>
      <point x="234" y="-10" type="curve" smooth="yes"/>
    </contour>
    <contour>
      <point x="204" y="471" type="curve"/>
      <point x="231" y="580"/>
      <point x="273" y="663"/>
      <point x="279" y="687" type="curve"/>
      <point x="285" y="710"/>
      <point x="251" y="720"/>
      <point x="218" y="720" type="curve" smooth="yes"/>
      <point x="210" y="720" type="line"/>
      <point x="174" y="649"/>
      <point x="148" y="575"/>
      <point x="131" y="504" type="curve"/>
      <point x="123" y="475"/>
      <point x="146" y="469"/>
      <point x="179" y="469" type="curve" smooth="yes"/>
      <point x="188" y="469"/>
      <point x="197" y="469"/>
    </contour>
  </outline>
</glyph>
<glyph name="eight" format="2">
  <advance width="600"/>
  <unicode hex="0038"/>
  <outline>
    <contour>
      <point x="387" y="326" type="curve" smooth="yes"/>
      <point x="308" y="358" type="line" smooth="yes"/>
      <point x="214" y="395"/>
      <point x="200" y="461"/>
      <point x="216" y="522" type="curve" smooth="yes"/>
      <point x="220" y="542"/>
      <point x="228" y="566"/>
      <point x="239" y="596" type="curve"/>
      <point x="198" y="589"/>
      <point x="152" y="569"/>
      <point x="140" y="523" type="curve" smooth="yes"/>
      <point x="121" y="446"/>
      <point x="147" y="355"/>
      <point x="271" y="304" type="curve" smooth="yes"/>
      <point x="350" y="271" type="line" smooth="yes"/>
      <point x="432" y="238"/>
      <point x="446" y="194"/>
      <point x="426" y="116" type="curve" smooth="yes"/>
      <point x="424" y="109"/>
      <point x="422" y="100"/>
      <point x="420" y="91" type="curve"/>
      <point x="450" y="95"/>
      <point x="498" y="123"/>
      <point x="505" y="149" type="curve"/>
      <point x="520" y="208"/>
      <point x="495" y="283"/>
    </contour>
    <contour>
      <point x="243" y="-20" type="curve" smooth="yes"/>
      <point x="397" y="-20"/>
      <point x="475" y="34"/>
      <point x="502" y="140" type="curve" smooth="yes"/>
      <point x="505" y="149" type="line" smooth="yes"/>
      <point x="510" y="168"/>
      <point x="481" y="209"/>
      <point x="457" y="211" type="curve"/>
      <point x="456" y="202"/>
      <point x="456" y="197"/>
      <point x="452" y="184" type="curve" smooth="yes"/>
      <point x="433" y="100"/>
      <point x="372" y="57"/>
      <point x="252" y="57" type="curve" smooth="yes"/>
      <point x="157" y="57"/>
      <point x="124" y="88"/>
      <point x="88" y="142" type="curve"/>
      <point x="37" y="79"/>
      <point x="119" y="-20"/>
    </contour>
    <contour>
      <point x="410" y="720" type="curve" smooth="yes"/>
      <point x="269" y="720"/>
      <point x="167" y="649"/>
      <point x="141" y="529" type="curve" smooth="yes"/>
      <point x="140" y="523" type="line" smooth="yes"/>
      <point x="133" y="490"/>
      <point x="169" y="460"/>
      <point x="203" y="456" type="curve"/>
      <point x="207" y="476"/>
      <point x="210" y="499"/>
      <point x="216" y="522" type="curve" smooth="yes"/>
      <point x="239" y="616"/>
      <point x="325" y="645"/>
      <point x="398" y="645" type="curve" smooth="yes"/>
      <point x="456" y="645"/>
      <point x="510" y="622"/>
      <point x="540" y="582" type="curve"/>
      <point x="593" y="634"/>
      <point x="481" y="720"/>
    </contour>
    <contour>
      <point x="354" y="314" type="curve" smooth="yes"/>
      <point x="435" y="314"/>
      <point x="562" y="393"/>
      <point x="591" y="508" type="curve" smooth="yes"/>
      <point x="593" y="516" type="line" smooth="yes"/>
      <point x="624" y="637"/>
      <point x="543" y="720"/>
      <point x="410" y="720" type="curve" smooth="yes"/>
      <point x="397" y="720"/>
      <point x="376" y="712"/>
      <point x="365" y="676" type="curve"/>
      <point x="476" y="676"/>
      <point x="540" y="615"/>
      <point x="514" y="515" type="curve" smooth="yes"/>
      <point x="513" y="507" type="line" smooth="yes"/>
      <point x="492" y="424"/>
      <point x="422" y="376"/>
      <point x="298" y="338" type="curve"/>
      <point x="317" y="321"/>
      <point x="331" y="314"/>
    </contour>
    <contour>
      <point x="291" y="26" type="curve"/>
      <point x="150" y="26"/>
      <point x="98" y="94"/>
      <point x="111" y="148" type="curve" smooth="yes"/>
      <point x="113" y="157" type="line" smooth="yes"/>
      <point x="131" y="231"/>
      <point x="198" y="272"/>
      <point x="324" y="299" type="curve"/>
      <point x="306" y="317"/>
      <point x="297" y="328"/>
      <point x="274" y="328" type="curve" smooth="yes"/>
      <point x="182" y="328"/>
      <point x="67" y="271"/>
      <point x="44" y="174" type="curve" smooth="yes"/>
      <point x="42" y="166" type="line" smooth="yes"/>
      <point x="18" y="73"/>
      <point x="80" y="-20"/>
      <point x="243" y="-20" type="curve" smooth="yes"/>
      <point x="265" y="-20"/>
      <point x="284" y="-2"/>
    </contour>
  </outline>
</glyph>
<glyph name="nine" format="2">
  <advance width="600"/>
  <unicode hex="0039"/>
  <outline>
    <contour>
      <point x="529" y="571" type="curve"/>
      <point x="571" y="630"/>
      <point x="493" y="720"/>
      <point x="399" y="720" type="curve"/>
      <point x="265" y="720"/>
      <point x="159" y="639"/>
      <point x="119" y="479" type="curve" smooth="yes"/>
      <point x="116" y="469" type="line" smooth="yes"/>
      <point x="89" y="357"/>
      <point x="149" y="277"/>
      <point x="211" y="304" type="curve"/>
      <point x="178" y="348"/>
      <point x="180" y="397"/>
      <point x="195" y="459" type="curve" smooth="yes"/>
      <point x="197" y="466" type="line" smooth="yes"/>
      <point x="225" y="577"/>
      <point x="296" y="642"/>
      <point x="392" y="642" type="curve" smooth="yes"/>
      <point x="455" y="642"/>
      <point x="491" y="623"/>
    </contour>
    <contour>
      <point x="420" y="141" type="curve"/>
      <point x="348" y="83"/>
      <point x="290" y="60"/>
      <point x="213" y="60" type="curve" smooth="yes"/>
      <point x="147" y="60"/>
      <point x="96" y="79"/>
      <point x="62" y="111" type="curve"/>
      <point x="58" y="111" type="line"/>
      <point x="52" y="101"/>
      <point x="48" y="92"/>
      <point x="46" y="78" type="curve" smooth="yes"/>
      <point x="40" y="51"/>
      <point x="42" y="36"/>
      <point x="50" y="25" type="curve" smooth="yes"/>
      <point x="67" y="4"/>
      <point x="127" y="-20"/>
      <point x="203" y="-20" type="curve" smooth="yes"/>
      <point x="309" y="-20"/>
      <point x="427" y="53"/>
    </contour>
    <contour>
      <point x="553" y="349" type="curve" smooth="yes"/>
      <point x="556" y="360" type="line" smooth="yes"/>
      <point x="613" y="593"/>
      <point x="556" y="720"/>
      <point x="399" y="720" type="curve" smooth="yes"/>
      <point x="383" y="720"/>
      <point x="366" y="711"/>
      <point x="358" y="676" type="curve"/>
      <point x="498" y="664"/>
      <point x="524" y="560"/>
      <point x="474" y="361" type="curve" smooth="yes"/>
      <point x="471" y="350" type="line" smooth="yes"/>
      <point x="414" y="119"/>
      <point x="343" y="42"/>
      <point x="182" y="24" type="curve"/>
      <point x="176" y="-3"/>
      <point x="188" y="-20"/>
      <point x="203" y="-20" type="curve" smooth="yes"/>
      <point x="376" y="-20"/>
      <point x="483" y="70"/>
    </contour>
    <contour>
      <point x="280" y="234" type="curve" smooth="yes"/>
      <point x="354" y="234"/>
      <point x="422" y="252"/>
      <point x="466" y="291" type="curve" smooth="yes"/>
      <point x="481" y="304"/>
      <point x="490" y="324"/>
      <point x="498" y="365" type="curve"/>
      <point x="435" y="324"/>
      <point x="368" y="305"/>
      <point x="298" y="305" type="curve" smooth="yes"/>
      <point x="189" y="305"/>
      <point x="138" y="369"/>
      <point x="165" y="477" type="curve" smooth="yes"/>
      <point x="170" y="498"/>
      <point x="176" y="513"/>
      <point x="185" y="530" type="curve"/>
      <point x="157" y="530"/>
      <point x="126" y="509"/>
      <point x="116" y="469" type="curve" smooth="yes"/>
      <point x="79" y="321"/>
      <point x="147" y="234"/>
    </contour>
  </outline>
</glyph>
<glyph name="colon" format="2">
  <advance width="600"/>
  <unicode hex="003A"/>
  <outline>
    <contour>
      <point x="407" y="393" type="curve"/>
      <point x="428" y="478" type="line" smooth="yes"/>
      <point x="439" y="521"/>
      <point x="406" y="538"/>
      <point x="353" y="538" type="curve" smooth="yes"/>
      <point x="330" y="538"/>
      <point x="309" y="534"/>
      <point x="290" y="527" type="curve"/>
      <point x="269" y="441" type="line" smooth="yes"/>
      <point x="258" y="398"/>
      <point x="291" y="381"/>
      <point x="345" y="381" type="curve" smooth="yes"/>
      <point x="367" y="381"/>
      <point x="388" y="385"/>
    </contour>
    <contour>
      <point x="310" y="5" type="curve"/>
      <point x="331" y="90" type="line" smooth="yes"/>
      <point x="342" y="133"/>
      <point x="309" y="150"/>
      <point x="256" y="150" type="curve" smooth="yes"/>
      <point x="233" y="150"/>
      <point x="212" y="146"/>
      <point x="193" y="139" type="curve"/>
      <point x="172" y="53" type="line" smooth="yes"/>
      <point x="161" y="10"/>
      <point x="194" y="-7"/>
      <point x="248" y="-7" type="curve" smooth="yes"/>
      <point x="270" y="-7"/>
      <point x="291" y="-3"/>
    </contour>
  </outline>
</glyph>
<glyph name="greater" format="2">
  <advance width="600"/>
  <unicode hex="003E"/>
  <outline>
    <contour>
      <point x="34" y="104" type="curve"/>
      <point x="31" y="90" type="line"/>
      <point x="23" y="58"/>
      <point x="32" y="31"/>
      <point x="51" y="31" type="curve" smooth="yes"/>
      <point x="64" y="31"/>
      <point x="98" y="38"/>
      <point x="147" y="55" type="curve" smooth="yes"/>
      <point x="305" y="108"/>
      <point x="430" y="182"/>
      <point x="533" y="273" type="curve"/>
      <point x="540" y="301" type="line"/>
      <point x="544" y="320"/>
      <point x="524" y="329"/>
      <point x="481" y="319" type="curve"/>
      <point x="344" y="210"/>
      <point x="251" y="152"/>
    </contour>
    <contour>
      <point x="157" y="574" type="curve"/>
      <point x="152" y="565"/>
      <point x="149" y="556"/>
      <point x="145" y="544" type="curve" smooth="yes"/>
      <point x="138" y="515"/>
      <point x="140" y="492"/>
      <point x="156" y="486" type="curve" smooth="yes"/>
      <point x="326" y="434"/>
      <point x="386" y="387"/>
      <point x="473" y="279" type="curve" smooth="yes"/>
      <point x="479" y="273"/>
      <point x="480" y="266"/>
      <point x="478" y="261" type="curve" smooth="yes"/>
      <point x="477" y="257"/>
      <point x="476" y="251"/>
      <point x="474" y="242" type="curve"/>
      <point x="514" y="261"/>
      <point x="534" y="280"/>
      <point x="539" y="297" type="curve" smooth="yes"/>
      <point x="541" y="307" type="line" smooth="yes"/>
      <point x="546" y="328"/>
      <point x="542" y="341"/>
      <point x="520" y="365" type="curve" smooth="yes"/>
      <point x="437" y="455"/>
      <point x="358" y="525"/>
    </contour>
  </outline>
</glyph>
<glyph name="question" format="2">
  <advance width="600"/>
  <unicode hex="003F"/>
  <outline>
    <contour>
      <point x="419" y="720" type="curve" smooth="yes"/>
      <point x="346" y="720"/>
      <point x="279" y="697"/>
      <point x="235" y="662" type="curve" smooth="yes"/>
      <point x="199" y="634"/>
      <point x="173" y="599"/>
      <point x="164" y="562" type="curve" smooth="yes"/>
      <point x="159" y="543"/>
      <point x="164" y="529"/>
      <point x="172" y="517" type="curve"/>
      <point x="177" y="517" type="line"/>
      <point x="231" y="590"/>
      <point x="303" y="639"/>
      <point x="401" y="639" type="curve" smooth="yes"/>
      <point x="497" y="639"/>
      <point x="544" y="598"/>
      <point x="530" y="543" type="curve" smooth="yes"/>
      <point x="525" y="522"/>
      <point x="521" y="510"/>
      <point x="513" y="496" type="curve"/>
      <point x="555" y="493"/>
      <point x="581" y="527"/>
      <point x="587" y="550" type="curve" smooth="yes"/>
      <point x="608" y="634"/>
      <point x="570" y="720"/>
    </contour>
    <contour>
      <point x="486" y="664" type="curve"/>
      <point x="506" y="627"/>
      <point x="517" y="601"/>
      <point x="505" y="553" type="curve" smooth="yes"/>
      <point x="494" y="506"/>
      <point x="467" y="468"/>
      <point x="395" y="424" type="curve" smooth="yes"/>
      <point x="369" y="408" type="line" smooth="yes"/>
      <point x="298" y="365"/>
      <point x="255" y="325"/>
      <point x="246" y="285" type="curve" smooth="yes"/>
      <point x="244" y="281" type="line" smooth="yes"/>
      <point x="240" y="261"/>
      <point x="256" y="242"/>
      <point x="303" y="242" type="curve" smooth="yes"/>
      <point x="310" y="242" type="line"/>
      <point x="312" y="250" type="line" smooth="yes"/>
      <point x="321" y="287"/>
      <point x="340" y="310"/>
      <point x="410" y="353" type="curve" smooth="yes"/>
      <point x="438" y="370" type="line" smooth="yes"/>
      <point x="525" y="422"/>
      <point x="568" y="475"/>
      <point x="586" y="545" type="curve" smooth="yes"/>
      <point x="587" y="550" type="line" smooth="yes"/>
      <point x="602" y="610"/>
      <point x="565" y="685"/>
    </contour>
    <contour>
      <point x="292" y="5" type="curve"/>
      <point x="312" y="84" type="line" smooth="yes"/>
      <point x="323" y="127"/>
      <point x="290" y="144"/>
      <point x="236" y="144" type="curve" smooth="yes"/>
      <point x="214" y="144"/>
      <point x="192" y="140"/>
      <point x="174" y="133" type="curve"/>
      <point x="154" y="53" type="line" smooth="yes"/>
      <point x="143" y="10"/>
      <point x="176" y="-7"/>
      <point x="230" y="-7" type="curve" smooth="yes"/>
      <point x="252" y="-7"/>
      <point x="273" y="-3"/>
    </contour>
  </outline>
</glyph>
<glyph name="D" format="2">
  <advance width="600"/>
  <unicode hex="0044"/>
  <anchor x="399" y="711" name="top"/>
  <outline>
    <contour>
      <point x="117" y="26" type="curve"/>
      <point x="254" y="576" type="line" smooth="yes"/>
      <point x="269" y="636"/>
      <point x="248" y="661"/>
      <point x="191" y="661" type="curve"/>
      <point x="40" y="57" type="line" smooth="yes"/>
      <point x="35" y="40"/>
      <point x="67" y="26"/>
    </contour>
    <contour>
      <point x="151" y="700" type="curve"/>
      <point x="148" y="693"/>
      <point x="145" y="685"/>
      <point x="143" y="675" type="curve"/>
      <point x="137" y="652"/>
      <point x="138" y="638"/>
      <point x="145" y="628" type="curve" smooth="yes"/>
      <point x="149" y="623"/>
      <point x="155" y="622"/>
      <point x="160" y="622" type="curve" smooth="yes"/>
      <point x="168" y="622"/>
      <point x="180" y="624"/>
      <point x="201" y="627" type="curve" smooth="yes"/>
      <point x="250" y="635"/>
      <point x="317" y="642"/>
      <point x="373" y="642" type="curve" smooth="yes"/>
      <point x="454" y="642"/>
      <point x="494" y="627"/>
      <point x="541" y="576" type="curve"/>
      <point x="578" y="624"/>
      <point x="509" y="720"/>
      <point x="399" y="720" type="curve" smooth="yes"/>
      <point x="320" y="720"/>
      <point x="248" y="715"/>
    </contour>
    <contour>
      <point x="562" y="358" type="curve" smooth="yes"/>
      <point x="574" y="403" type="line" smooth="yes"/>
      <point x="623" y="593"/>
      <point x="567" y="720"/>
      <point x="399" y="720" type="curve"/>
      <point x="383" y="720"/>
      <point x="371" y="701"/>
      <point x="366" y="679" type="curve"/>
      <point x="511" y="664"/>
      <point x="534" y="583"/>
      <point x="486" y="390" type="curve" smooth="yes"/>
      <point x="478" y="359" type="line" smooth="yes"/>
      <point x="428" y="162"/>
      <point x="324" y="70"/>
      <point x="177" y="70" type="curve" smooth="yes"/>
      <point x="129" y="70"/>
      <point x="99" y="78"/>
      <point x="68" y="98" type="curve"/>
      <point x="53" y="88"/>
      <point x="45" y="76"/>
      <point x="40" y="57" type="curve" smooth="yes"/>
      <point x="32" y="23"/>
      <point x="83" y="-10"/>
      <point x="161" y="-10" type="curve" smooth="yes"/>
      <point x="166" y="-10" type="line" smooth="yes"/>
      <point x="363" y="-10"/>
      <point x="498" y="113"/>
    </contour>
  </outline>
</glyph>
<glyph name="E" format="2">
  <advance width="600"/>
  <unicode hex="0045"/>
  <anchor x="411" y="711" name="top"/>
  <anchor x="468" y="-1" name="ogonek"/>
  <anchor x="259" y="-1" name="bottom"/>
  <outline>
    <contour>
      <point x="151" y="700" type="line"/>
      <point x="149" y="695"/>
      <point x="148" y="690"/>
      <point x="147" y="685" type="curve" smooth="yes"/>
      <point x="141" y="661"/>
      <point x="139" y="638"/>
      <point x="146" y="628" type="curve" smooth="yes"/>
      <point x="150" y="624"/>
      <point x="154" y="622"/>
      <point x="161" y="622" type="curve" smooth="yes"/>
      <point x="621" y="622" type="line"/>
      <point x="625" y="629"/>
      <point x="630" y="640"/>
      <point x="632" y="650" type="curve" smooth="yes"/>
      <point x="635" y="662"/>
      <point x="637" y="682"/>
      <point x="629" y="693" type="curve" smooth="yes"/>
      <point x="625" y="698"/>
      <point x="620" y="700"/>
      <point x="611" y="700" type="curve" smooth="yes"/>
    </contour>
    <contour>
      <point x="122" y="47" type="curve"/>
      <point x="252" y="566" type="line" smooth="yes"/>
      <point x="266" y="625"/>
      <point x="251" y="649"/>
      <point x="188" y="649" type="curve"/>
      <point x="46" y="78" type="line"/>
      <point x="39" y="54"/>
      <point x="73" y="47"/>
    </contour>
    <contour>
      <point x="46" y="78" type="line"/>
      <point x="43" y="66" type="line" smooth="yes"/>
      <point x="35" y="35"/>
      <point x="54" y="0"/>
      <point x="80" y="0" type="curve" smooth="yes"/>
      <point x="467" y="0" type="line"/>
      <point x="471" y="6"/>
      <point x="473" y="14"/>
      <point x="476" y="24" type="curve" smooth="yes"/>
      <point x="486" y="62"/>
      <point x="478" y="78"/>
      <point x="454" y="78" type="curve" smooth="yes"/>
    </contour>
    <contour>
      <point x="153" y="366" type="line"/>
      <point x="140" y="314"/>
      <point x="142" y="294"/>
      <point x="168" y="294" type="curve" smooth="yes"/>
      <point x="472" y="294" type="line"/>
      <point x="473" y="297"/>
      <point x="474" y="301"/>
      <point x="475" y="305" type="curve" smooth="yes"/>
      <point x="480" y="324"/>
      <point x="479" y="344"/>
      <point x="470" y="357" type="curve" smooth="yes"/>
      <point x="465" y="363"/>
      <point x="459" y="366"/>
      <point x="450" y="366" type="curve" smooth="yes"/>
    </contour>
  </outline>
</glyph>
<glyph name="F" format="2">
  <advance width="600"/>
  <unicode hex="0046"/>
  <outline>
    <contour>
      <point x="125" y="-7" type="curve"/>
      <point x="124" y="25"/>
      <point x="127" y="42"/>
      <point x="137" y="85" type="curve" smooth="yes"/>
      <point x="258" y="566" type="line"/>
      <point x="273" y="628"/>
      <point x="257" y="654"/>
      <point x="195" y="654" type="curve"/>
      <point x="43" y="45" type="line" smooth="yes"/>
      <point x="34" y="10"/>
      <point x="57" y="-7"/>
      <point x="116" y="-7" type="curve" smooth="yes"/>
      <point x="119" y="-7"/>
      <point x="122" y="-7"/>
    </contour>
    <contour>
      <point x="151" y="700" type="line"/>
      <point x="149" y="695"/>
      <point x="148" y="690"/>
      <point x="147" y="685" type="curve" smooth="yes"/>
      <point x="139" y="654"/>
      <point x="140" y="639"/>
      <point x="147" y="629" type="curve" smooth="yes"/>
      <point x="152" y="624"/>
      <point x="156" y="622"/>
      <point x="166" y="622" type="curve"/>
      <point x="621" y="622" type="line"/>
      <point x="625" y="629"/>
      <point x="630" y="639"/>
      <point x="632" y="650" type="curve" smooth="yes"/>
      <point x="636" y="668"/>
      <point x="636" y="683"/>
      <point x="629" y="692" type="curve" smooth="yes"/>
      <point x="625" y="698"/>
      <point x="619" y="700"/>
      <point x="609" y="700" type="curve"/>
    </contour>
    <contour>
      <point x="131" y="316" type="line"/>
      <point x="117" y="264"/>
      <point x="118" y="237"/>
      <point x="144" y="237" type="curve"/>
      <point x="485" y="237" type="line"/>
      <point x="487" y="242"/>
      <point x="489" y="248"/>
      <point x="490" y="253" type="curve"/>
      <point x="495" y="274"/>
      <point x="494" y="293"/>
      <point x="484" y="305" type="curve" smooth="yes"/>
      <point x="479" y="313"/>
      <point x="473" y="316"/>
      <point x="460" y="316" type="curve"/>
    </contour>
  </outline>
</glyph>
<glyph name="G" format="2">
  <advance width="600"/>
  <unicode hex="0047"/>
  <anchor x="427" y="711" name="top"/>
  <anchor x="249" y="-1" name="bottom"/>
  <outline>
    <contour>
      <point x="461" y="645" type="curve" smooth="yes"/>
      <point x="541" y="645"/>
      <point x="561" y="609"/>
      <point x="545" y="546" type="curve"/>
      <point x="574" y="546"/>
      <point x="587" y="558"/>
      <point x="590" y="571" type="curve" smooth="yes"/>
      <point x="602" y="617"/>
      <point x="600" y="647"/>
      <point x="578" y="676" type="curve" smooth="yes"/>
      <point x="557" y="704"/>
      <point x="526" y="720"/>
      <point x="473" y="720" type="curve" smooth="yes"/>
      <point x="301" y="720"/>
      <point x="146" y="582"/>
      <point x="73" y="301" type="curve" smooth="yes"/>
      <point x="69" y="286" type="line" smooth="yes"/>
      <point x="53" y="224"/>
      <point x="76" y="135"/>
      <point x="131" y="123" type="curve"/>
      <point x="127" y="169"/>
      <point x="134" y="215"/>
      <point x="148" y="271" type="curve" smooth="yes"/>
      <point x="151" y="285" type="line" smooth="yes"/>
      <point x="208" y="520"/>
      <point x="339" y="645"/>
    </contour>
    <contour>
      <point x="268" y="58" type="curve" smooth="yes"/>
      <point x="147" y="58"/>
      <point x="99" y="143"/>
      <point x="144" y="317" type="curve"/>
      <point x="102" y="322"/>
      <point x="77" y="318"/>
      <point x="69" y="286" type="curve" smooth="yes"/>
      <point x="23" y="105"/>
      <point x="90" y="-20"/>
      <point x="259" y="-20" type="curve" smooth="yes"/>
      <point x="381" y="-20"/>
      <point x="478" y="44"/>
      <point x="510" y="165" type="curve" smooth="yes"/>
      <point x="512" y="174" type="line" smooth="yes"/>
      <point x="527" y="233"/>
      <point x="510" y="278"/>
      <point x="463" y="278" type="curve"/>
      <point x="463" y="257"/>
      <point x="460" y="235"/>
      <point x="452" y="204" type="curve" smooth="yes"/>
      <point x="429" y="114"/>
      <point x="360" y="58"/>
    </contour>
    <contour>
      <point x="309" y="316" type="line"/>
      <point x="306" y="312"/>
      <point x="304" y="306"/>
      <point x="303" y="300" type="curve" smooth="yes"/>
      <point x="298" y="280"/>
      <point x="300" y="266"/>
      <point x="307" y="257" type="curve" smooth="yes"/>
      <point x="315" y="247"/>
      <point x="326" y="242"/>
      <point x="354" y="242" type="curve"/>
      <point x="561" y="242" type="line"/>
      <point x="563" y="252" type="line" smooth="yes"/>
      <point x="574" y="299"/>
      <point x="569" y="316"/>
      <point x="542" y="316" type="curve" smooth="yes"/>
    </contour>
    <contour>
      <point x="566" y="472" type="curve"/>
      <point x="590" y="571" type="line" smooth="yes"/>
      <point x="608" y="639"/>
      <point x="573" y="678"/>
      <point x="525" y="669" type="curve"/>
      <point x="525" y="627"/>
      <point x="516" y="598"/>
      <point x="509" y="571" type="curve" smooth="yes"/>
      <point x="493" y="507" type="line" smooth="yes"/>
      <point x="486" y="479"/>
      <point x="497" y="469"/>
      <point x="536" y="469" type="curve" smooth="yes"/>
      <point x="547" y="469"/>
      <point x="558" y="470"/>
    </contour>
  </outline>
</glyph>
<glyph name="H" format="2">
  <advance width="600"/>
  <unicode hex="0048"/>
  <anchor x="399" y="711" name="top"/>
  <outline>
    <contour>
      <point x="186" y="706" type="curve"/>
      <point x="184" y="670"/>
      <point x="177" y="635"/>
      <point x="168" y="597" type="curve" smooth="yes"/>
      <point x="25" y="27" type="line" smooth="yes"/>
      <point x="19" y="0"/>
      <point x="41" y="-10"/>
      <point x="82" y="-10" type="curve" smooth="yes"/>
      <point x="89" y="-10"/>
      <point x="96" y="-10"/>
      <point x="100" y="-9" type="curve"/>
      <point x="265" y="647" type="line" smooth="yes"/>
      <point x="270" y="670"/>
      <point x="272" y="686"/>
      <point x="264" y="698" type="curve" smooth="yes"/>
      <point x="257" y="706"/>
      <point x="246" y="710"/>
      <point x="220" y="710" type="curve" smooth="yes"/>
      <point x="209" y="710"/>
      <point x="198" y="709"/>
    </contour>
    <contour>
      <point x="465" y="-6" type="curve"/>
      <point x="467" y="30"/>
      <point x="475" y="65"/>
      <point x="484" y="103" type="curve" smooth="yes"/>
      <point x="627" y="673" type="line" smooth="yes"/>
      <point x="633" y="699"/>
      <point x="608" y="710"/>
      <point x="564" y="710" type="curve" smooth="yes"/>
      <point x="559" y="710"/>
      <point x="555" y="710"/>
      <point x="552" y="710" type="curve"/>
      <point x="387" y="53" type="line" smooth="yes"/>
      <point x="381" y="30"/>
      <point x="380" y="14"/>
      <point x="388" y="2" type="curve" smooth="yes"/>
      <point x="395" y="-6"/>
      <point x="406" y="-10"/>
      <point x="431" y="-10" type="curve" smooth="yes"/>
      <point x="443" y="-10"/>
      <point x="454" y="-9"/>
    </contour>
    <contour>
      <point x="58" y="330" type="line"/>
      <point x="55" y="315" type="line" smooth="yes"/>
      <point x="48" y="289"/>
      <point x="49" y="271"/>
      <point x="59" y="257" type="curve" smooth="yes"/>
      <point x="63" y="253"/>
      <point x="66" y="251"/>
      <point x="72" y="251" type="curve"/>
      <point x="468" y="251" type="line"/>
      <point x="483" y="311"/>
      <point x="459" y="330"/>
      <point x="400" y="330" type="curve" smooth="yes"/>
    </contour>
  </outline>
</glyph>
<glyph name="I" format="2">
  <advance width="600"/>
  <unicode hex="0049"/>
  <anchor x="411" y="711" name="top"/>
  <anchor x="468" y="-1" name="ogonek"/>
  <anchor x="233" y="-1" name="bottom"/>
  <outline>
    <contour>
      <point x="284" y="41" type="curve"/>
      <point x="416" y="566" type="line" smooth="yes"/>
      <point x="430" y="624"/>
      <point x="415" y="648"/>
      <point x="352" y="648" type="curve"/>
      <point x="224" y="136" type="line" smooth="yes"/>
      <point x="208" y="72"/>
      <point x="221" y="41"/>
    </contour>
    <contour>
      <point x="173" y="700" type="line"/>
      <point x="169" y="694"/>
      <point x="166" y="687"/>
      <point x="164" y="678" type="curve"/>
      <point x="159" y="658"/>
      <point x="160" y="645"/>
      <point x="169" y="634" type="curve" smooth="yes"/>
      <point x="176" y="625"/>
      <point x="188" y="622"/>
      <point x="215" y="622" type="curve" smooth="yes"/>
      <point x="622" y="622" type="line"/>
      <point x="626" y="631"/>
      <point x="631" y="641"/>
      <point x="633" y="649" type="curve" smooth="yes"/>
      <point x="640" y="681"/>
      <point x="637" y="700"/>
      <point x="610" y="700" type="curve" smooth="yes"/>
    </contour>
    <contour>
      <point x="18" y="78" type="line"/>
      <point x="13" y="71"/>
      <point x="10" y="61"/>
      <point x="7" y="51" type="curve"/>
      <point x="3" y="34"/>
      <point x="2" y="20"/>
      <point x="11" y="10" type="curve" smooth="yes"/>
      <point x="16" y="3"/>
      <point x="22" y="0"/>
      <point x="39" y="0" type="curve" smooth="yes"/>
      <point x="468" y="0" type="line"/>
      <point x="471" y="7"/>
      <point x="474" y="16"/>
      <point x="477" y="25" type="curve" smooth="yes"/>
      <point x="485" y="59"/>
      <point x="481" y="78"/>
      <point x="454" y="78" type="curve" smooth="yes"/>
    </contour>
  </outline>
</glyph>
<glyph name="J" format="2">
  <advance width="600"/>
  <unicode hex="004A"/>
  <anchor x="410" y="711" name="top"/>
  <outline>
    <contour>
      <point x="251" y="700" type="line"/>
      <point x="249" y="695"/>
      <point x="246" y="689"/>
      <point x="245" y="682" type="curve" smooth="yes"/>
      <point x="240" y="660"/>
      <point x="240" y="645"/>
      <point x="249" y="634" type="curve" smooth="yes"/>
      <point x="256" y="625"/>
      <point x="268" y="622"/>
      <point x="294" y="622" type="curve" smooth="yes"/>
      <point x="551" y="622" type="line"/>
      <point x="566" y="680"/>
      <point x="559" y="700"/>
      <point x="531" y="700" type="curve"/>
    </contour>
    <contour>
      <point x="487" y="208" type="curve" smooth="yes"/>
      <point x="602" y="668" type="line" smooth="yes"/>
      <point x="607" y="688"/>
      <point x="589" y="700"/>
      <point x="543" y="700" type="curve" smooth="yes"/>
      <point x="526" y="700" type="line"/>
      <point x="409" y="230" type="line" smooth="yes"/>
      <point x="384" y="135"/>
      <point x="363" y="99"/>
      <point x="289" y="41" type="curve"/>
      <point x="350" y="16"/>
      <point x="454" y="79"/>
    </contour>
    <contour>
      <point x="228" y="58" type="curve" smooth="yes"/>
      <point x="152" y="58"/>
      <point x="114" y="78"/>
      <point x="67" y="111" type="curve"/>
      <point x="63" y="111" type="line"/>
      <point x="57" y="103"/>
      <point x="54" y="94"/>
      <point x="52" y="84" type="curve"/>
      <point x="44" y="55"/>
      <point x="47" y="36"/>
      <point x="55" y="24" type="curve" smooth="yes"/>
      <point x="77" y="-4"/>
      <point x="141" y="-20"/>
      <point x="209" y="-20" type="curve" smooth="yes"/>
      <point x="217" y="-20" type="line" smooth="yes"/>
      <point x="366" y="-20"/>
      <point x="450" y="59"/>
      <point x="487" y="208" type="curve"/>
      <point x="490" y="221"/>
      <point x="485" y="250"/>
      <point x="457" y="250" type="curve"/>
      <point x="412" y="122"/>
      <point x="330" y="58"/>
    </contour>
  </outline>
</glyph>
<glyph name="L" format="2">
  <advance width="600"/>
  <unicode hex="004C"/>
  <anchor x="483" y="550" name="caronslovak"/>
  <anchor x="243" y="711" name="top"/>
  <anchor x="424" y="400" name="dot"/>
  <anchor x="243" y="-1" name="bottom"/>
  <outline>
    <contour>
      <point x="116" y="37" type="curve"/>
      <point x="269" y="647" type="line" smooth="yes"/>
      <point x="274" y="670"/>
      <point x="277" y="687"/>
      <point x="267" y="698" type="curve" smooth="yes"/>
      <point x="260" y="706"/>
      <point x="249" y="710"/>
      <point x="224" y="710" type="curve" smooth="yes"/>
      <point x="212" y="710"/>
      <point x="202" y="709"/>
      <point x="190" y="706" type="curve"/>
      <point x="188" y="671"/>
      <point x="181" y="635"/>
      <point x="172" y="597" type="curve" smooth="yes"/>
      <point x="43" y="81" type="line" smooth="yes"/>
      <point x="37" y="56"/>
      <point x="67" y="37"/>
    </contour>
    <contour>
      <point x="43" y="81" type="line"/>
      <point x="40" y="68" type="line" smooth="yes"/>
      <point x="32" y="37"/>
      <point x="51" y="0"/>
      <point x="77" y="0" type="curve" smooth="yes"/>
      <point x="471" y="0" type="line"/>
      <point x="475" y="7"/>
      <point x="478" y="18"/>
      <point x="480" y="28" type="curve" smooth="yes"/>
      <point x="490" y="67"/>
      <point x="479" y="81"/>
      <point x="455" y="81" type="curve" smooth="yes"/>
    </contour>
  </outline>
</glyph>
<glyph name="M" format="2">
  <advance width="600"/>
  <unicode hex="004D"/>
  <outline>
    <contour>
      <point x="82" y="-9" type="curve"/>
      <point x="100" y="60"/>
      <point x="117" y="129"/>
      <point x="134" y="198" type="curve" smooth="yes"/>
      <point x="173" y="352"/>
      <point x="213" y="548"/>
      <point x="246" y="684" type="curve" smooth="yes"/>
      <point x="248" y="690"/>
      <point x="248" y="697"/>
      <point x="245" y="701" type="curve" smooth="yes"/>
      <point x="240" y="707"/>
      <point x="236" y="710"/>
      <point x="225" y="710" type="curve" smooth="yes"/>
      <point x="212" y="710"/>
      <point x="195" y="709"/>
      <point x="175" y="704" type="curve"/>
      <point x="173" y="671"/>
      <point x="166" y="636"/>
      <point x="157" y="600" type="curve" smooth="yes"/>
      <point x="13" y="26" type="line" smooth="yes"/>
      <point x="11" y="17"/>
      <point x="12" y="11"/>
      <point x="16" y="6" type="curve" smooth="yes"/>
      <point x="24" y="-5"/>
      <point x="44" y="-10"/>
      <point x="65" y="-10" type="curve" smooth="yes"/>
      <point x="71" y="-10"/>
      <point x="78" y="-10"/>
    </contour>
    <contour>
      <point x="469" y="-7" type="curve"/>
      <point x="472" y="28"/>
      <point x="478" y="63"/>
      <point x="487" y="100" type="curve" smooth="yes"/>
      <point x="632" y="678" type="line" smooth="yes"/>
      <point x="634" y="685"/>
      <point x="633" y="690"/>
      <point x="629" y="695" type="curve" smooth="yes"/>
      <point x="622" y="703"/>
      <point x="600" y="710"/>
      <point x="564" y="710" type="curve" smooth="yes"/>
      <point x="560" y="710" type="line"/>
      <point x="569" y="699"/>
      <point x="568" y="692"/>
      <point x="563" y="670" type="curve" smooth="yes"/>
      <point x="531" y="542"/>
      <point x="456" y="288"/>
      <point x="432" y="190" type="curve" smooth="yes"/>
      <point x="420" y="140"/>
      <point x="407" y="90"/>
      <point x="394" y="40" type="curve" smooth="yes"/>
      <point x="390" y="23"/>
      <point x="390" y="13"/>
      <point x="396" y="6" type="curve" smooth="yes"/>
      <point x="404" y="-5"/>
      <point x="421" y="-10"/>
      <point x="443" y="-10" type="curve"/>
      <point x="451" y="-10"/>
      <point x="461" y="-9"/>
    </contour>
    <contour>
      <point x="225" y="710" type="line"/>
      <point x="202" y="482"/>
      <point x="223" y="279"/>
      <point x="270" y="216" type="curve"/>
      <point x="273" y="212"/>
      <point x="280" y="209"/>
      <point x="285" y="209" type="curve"/>
      <point x="296" y="209"/>
      <point x="312" y="248"/>
      <point x="317" y="282" type="curve"/>
      <point x="276" y="357"/>
      <point x="270" y="524"/>
      <point x="286" y="682" type="curve"/>
      <point x="288" y="699"/>
      <point x="269" y="710"/>
      <point x="228" y="710" type="curve"/>
    </contour>
    <contour>
      <point x="560" y="710" type="curve" smooth="yes"/>
      <point x="550" y="710"/>
      <point x="538" y="709"/>
      <point x="529" y="707" type="curve"/>
      <point x="456" y="504"/>
      <point x="366" y="362"/>
      <point x="285" y="285" type="curve"/>
      <point x="277" y="278"/>
      <point x="272" y="209"/>
      <point x="285" y="209" type="curve"/>
      <point x="294" y="209" type="line"/>
      <point x="390" y="285"/>
      <point x="519" y="494"/>
      <point x="572" y="666" type="curve"/>
      <point x="583" y="699"/>
      <point x="581" y="710"/>
    </contour>
  </outline>
</glyph>
<glyph name="N" format="2">
  <advance width="600"/>
  <unicode hex="004E"/>
  <anchor x="411" y="711" name="top"/>
  <anchor x="230" y="-1" name="bottom"/>
  <outline>
    <contour>
      <point x="88" y="-7" type="curve"/>
      <point x="180" y="360" type="line"/>
      <point x="223" y="532"/>
      <point x="249" y="691"/>
      <point x="240" y="703" type="curve" smooth="yes"/>
      <point x="237" y="706"/>
      <point x="233" y="710"/>
      <point x="229" y="710" type="curve"/>
      <point x="214" y="710"/>
      <point x="200" y="709"/>
      <point x="179" y="705" type="curve"/>
      <point x="177" y="670"/>
      <point x="168" y="625"/>
      <point x="161" y="597" type="curve" smooth="yes"/>
      <point x="18" y="27" type="line"/>
      <point x="12" y="-1"/>
      <point x="40" y="-10"/>
      <point x="65" y="-10" type="curve"/>
      <point x="74" y="-10"/>
      <point x="81" y="-9"/>
    </contour>
    <contour>
      <point x="455" y="-10" type="line"/>
      <point x="627" y="676" type="line"/>
      <point x="633" y="701"/>
      <point x="608" y="710"/>
      <point x="573" y="710" type="curve"/>
      <point x="558" y="710" type="line"/>
      <point x="428" y="190" type="line"/>
      <point x="406" y="103"/>
      <point x="397" y="17"/>
      <point x="407" y="4" type="curve" smooth="yes"/>
      <point x="415" y="-6"/>
      <point x="424" y="-10"/>
      <point x="436" y="-10" type="curve"/>
    </contour>
    <contour>
      <point x="229" y="710" type="line"/>
      <point x="233" y="689"/>
      <point x="232" y="659"/>
      <point x="230" y="632" type="curve" smooth="yes"/>
      <point x="215" y="349"/>
      <point x="310" y="106"/>
      <point x="383" y="9" type="curve"/>
      <point x="392" y="-4"/>
      <point x="409" y="-10"/>
      <point x="436" y="-10" type="curve" smooth="yes"/>
      <point x="440" y="-10"/>
      <point x="439" y="-10"/>
      <point x="443" y="-10" type="curve"/>
      <point x="445" y="-10"/>
      <point x="449" y="7"/>
      <point x="454" y="27" type="curve"/>
      <point x="330" y="208"/>
      <point x="287" y="411"/>
      <point x="293" y="675" type="curve"/>
      <point x="294" y="694"/>
      <point x="270" y="710"/>
      <point x="232" y="710" type="curve"/>
    </contour>
  </outline>
</glyph>
<glyph name="O" format="2">
  <advance width="600"/>
  <unicode hex="004F"/>
  <anchor x="411" y="711" name="top"/>
  <anchor x="325" y="-1" name="ogonek"/>
  <anchor x="233" y="-1" name="bottom"/>
  <outline>
    <contour>
      <point x="405" y="720" type="curve" smooth="yes"/>
      <point x="253" y="720"/>
      <point x="141" y="586"/>
      <point x="81" y="346" type="curve" smooth="yes"/>
      <point x="74" y="318" type="line" smooth="yes"/>
      <point x="21" y="107"/>
      <point x="86" y="-20"/>
      <point x="247" y="-20" type="curve" smooth="yes"/>
      <point x="268" y="-20"/>
      <point x="284" y="2"/>
      <point x="292" y="35" type="curve"/>
      <point x="147" y="39"/>
      <point x="111" y="140"/>
      <point x="154" y="313" type="curve" smooth="yes"/>
      <point x="159" y="333" type="line" smooth="yes"/>
      <point x="207" y="531"/>
      <point x="286" y="642"/>
      <point x="398" y="642" type="curve" smooth="yes"/>
      <point x="436" y="642"/>
      <point x="467" y="631"/>
      <point x="502" y="607" type="curve"/>
      <point x="538" y="646"/>
      <point x="487" y="720"/>
    </contour>
    <contour>
      <point x="247" y="-20" type="curve" smooth="yes"/>
      <point x="402" y="-20"/>
      <point x="501" y="99"/>
      <point x="556" y="319" type="curve" smooth="yes"/>
      <point x="563" y="346" type="line" smooth="yes"/>
      <point x="620" y="570"/>
      <point x="567" y="720"/>
      <point x="405" y="720" type="curve" smooth="yes"/>
      <point x="384" y="720"/>
      <point x="366" y="698"/>
      <point x="357" y="665" type="curve"/>
      <point x="502" y="661"/>
      <point x="528" y="537"/>
      <point x="482" y="349" type="curve" smooth="yes"/>
      <point x="477" y="329" type="line" smooth="yes"/>
      <point x="434" y="151"/>
      <point x="361" y="58"/>
      <point x="249" y="58" type="curve" smooth="yes"/>
      <point x="210" y="58"/>
      <point x="180" y="67"/>
      <point x="147" y="93" type="curve"/>
      <point x="100" y="57"/>
      <point x="162" y="-20"/>
    </contour>
  </outline>
</glyph>
<glyph name="P" format="2">
  <advance width="600"/>
  <unicode hex="0050"/>
  <outline>
    <contour>
      <point x="117" y="-6" type="curve"/>
      <point x="119" y="30"/>
      <point x="127" y="65"/>
      <point x="136" y="103" type="curve" smooth="yes"/>
      <point x="254" y="578" type="line" smooth="yes"/>
      <point x="269" y="638"/>
      <point x="249" y="662"/>
      <point x="191" y="662" type="curve"/>
      <point x="39" y="53" type="line" smooth="yes"/>
      <point x="33" y="30"/>
      <point x="32" y="14"/>
      <point x="40" y="2" type="curve" smooth="yes"/>
      <point x="47" y="-6"/>
      <point x="58" y="-10"/>
      <point x="83" y="-10" type="curve" smooth="yes"/>
      <point x="95" y="-10"/>
      <point x="106" y="-9"/>
    </contour>
    <contour>
      <point x="151" y="700" type="curve"/>
      <point x="148" y="693"/>
      <point x="145" y="685"/>
      <point x="143" y="675" type="curve"/>
      <point x="137" y="652"/>
      <point x="138" y="638"/>
      <point x="145" y="628" type="curve" smooth="yes"/>
      <point x="149" y="623"/>
      <point x="155" y="622"/>
      <point x="160" y="622" type="curve" smooth="yes"/>
      <point x="168" y="622"/>
      <point x="180" y="624"/>
      <point x="201" y="627" type="curve" smooth="yes"/>
      <point x="250" y="635"/>
      <point x="317" y="642"/>
      <point x="373" y="642" type="curve" smooth="yes"/>
      <point x="463" y="642"/>
      <point x="498" y="627"/>
      <point x="541" y="577" type="curve"/>
      <point x="584" y="632"/>
      <point x="501" y="720"/>
      <point x="408" y="720" type="curve" smooth="yes"/>
      <point x="329" y="720"/>
      <point x="248" y="715"/>
    </contour>
    <contour>
      <point x="581" y="460" type="curve" smooth="yes"/>
      <point x="593" y="511" type="line" smooth="yes"/>
      <point x="623" y="630"/>
      <point x="554" y="720"/>
      <point x="408" y="720" type="curve"/>
      <point x="381" y="720"/>
      <point x="367" y="705"/>
      <point x="362" y="682" type="curve"/>
      <point x="484" y="677"/>
      <point x="538" y="622"/>
      <point x="509" y="508" type="curve" smooth="yes"/>
      <point x="500" y="470" type="line" smooth="yes"/>
      <point x="467" y="338"/>
      <point x="344" y="255"/>
      <point x="217" y="255" type="curve" smooth="yes"/>
      <point x="183" y="255"/>
      <point x="173" y="256"/>
      <point x="161" y="258" type="curve"/>
      <point x="155" y="254"/>
      <point x="151" y="249"/>
      <point x="150" y="241" type="curve" smooth="yes"/>
      <point x="142" y="214"/>
      <point x="181" y="179"/>
      <point x="216" y="179" type="curve" smooth="yes"/>
      <point x="220" y="179" type="line" smooth="yes"/>
      <point x="390" y="179"/>
      <point x="535" y="280"/>
    </contour>
  </outline>
</glyph>
<glyph name="Q" format="2">
  <advance width="600"/>
  <unicode hex="0051"/>
  <outline>
    <contour>
      <point x="405" y="720" type="curve" smooth="yes"/>
      <point x="253" y="720"/>
      <point x="141" y="586"/>
      <point x="81" y="346" type="curve" smooth="yes"/>
      <point x="74" y="318" type="line" smooth="yes"/>
      <point x="21" y="107"/>
      <point x="86" y="-20"/>
      <point x="247" y="-20" type="curve" smooth="yes"/>
      <point x="268" y="-20"/>
      <point x="284" y="2"/>
      <point x="292" y="35" type="curve"/>
      <point x="147" y="39"/>
      <point x="111" y="140"/>
      <point x="154" y="313" type="curve" smooth="yes"/>
      <point x="159" y="333" type="line" smooth="yes"/>
      <point x="207" y="531"/>
      <point x="286" y="642"/>
      <point x="398" y="642" type="curve" smooth="yes"/>
      <point x="436" y="642"/>
      <point x="467" y="631"/>
      <point x="502" y="607" type="curve"/>
      <point x="538" y="646"/>
      <point x="487" y="720"/>
    </contour>
    <contour>
      <point x="247" y="-20" type="curve" smooth="yes"/>
      <point x="402" y="-20"/>
      <point x="501" y="99"/>
      <point x="556" y="319" type="curve" smooth="yes"/>
      <point x="563" y="346" type="line" smooth="yes"/>
      <point x="620" y="570"/>
      <point x="567" y="720"/>
      <point x="405" y="720" type="curve" smooth="yes"/>
      <point x="384" y="720"/>
      <point x="366" y="698"/>
      <point x="357" y="665" type="curve"/>
      <point x="502" y="661"/>
      <point x="528" y="537"/>
      <point x="482" y="349" type="curve" smooth="yes"/>
      <point x="477" y="329" type="line" smooth="yes"/>
      <point x="434" y="151"/>
      <point x="361" y="58"/>
      <point x="249" y="58" type="curve" smooth="yes"/>
      <point x="210" y="58"/>
      <point x="180" y="67"/>
      <point x="147" y="93" type="curve"/>
      <point x="100" y="57"/>
      <point x="162" y="-20"/>
    </contour>
    <contour>
      <point x="346" y="66" type="line"/>
      <point x="294" y="39"/>
      <point x="276" y="21"/>
      <point x="281" y="6" type="curve" smooth="yes"/>
      <point x="315" y="-79" type="line" smooth="yes"/>
      <point x="339" y="-139"/>
      <point x="366" y="-164"/>
      <point x="408" y="-164" type="curve" smooth="yes"/>
      <point x="412" y="-164" type="line" smooth="yes"/>
      <point x="451" y="-164"/>
      <point x="477" y="-144"/>
      <point x="489" y="-101" type="curve" smooth="yes"/>
      <point x="493" y="-86"/>
      <point x="494" y="-72"/>
      <point x="494" y="-59" type="curve"/>
      <point x="490" y="-59" type="line"/>
      <point x="477" y="-69"/>
      <point x="462" y="-74"/>
      <point x="446" y="-74" type="curve" smooth="yes"/>
      <point x="419" y="-74"/>
      <point x="402" y="-63"/>
      <point x="388" y="-32" type="curve" smooth="yes"/>
    </contour>
  </outline>
</glyph>
<glyph name="S" format="2">
  <advance width="600"/>
  <unicode hex="0053"/>
  <anchor x="449" y="711" name="top"/>
  <anchor x="233" y="-1" name="bottom"/>
  <outline>
    <contour>
      <point x="484" y="720" type="curve" smooth="yes"/>
      <point x="332" y="720"/>
      <point x="166" y="599"/>
      <point x="133" y="467" type="curve" smooth="yes"/>
      <point x="130" y="453" type="line" smooth="yes"/>
      <point x="122" y="425"/>
      <point x="158" y="386"/>
      <point x="197" y="382" type="curve"/>
      <point x="198" y="405"/>
      <point x="204" y="427"/>
      <point x="209" y="450" type="curve" smooth="yes"/>
      <point x="234" y="546"/>
      <point x="369" y="642"/>
      <point x="467" y="642" type="curve" smooth="yes"/>
      <point x="533" y="642"/>
      <point x="553" y="612"/>
      <point x="537" y="549" type="curve"/>
      <point x="562" y="549"/>
      <point x="581" y="569"/>
      <point x="584" y="581" type="curve" smooth="yes"/>
      <point x="595" y="623"/>
      <point x="593" y="653"/>
      <point x="573" y="679" type="curve" smooth="yes"/>
      <point x="557" y="701"/>
      <point x="534" y="720"/>
    </contour>
    <contour>
      <point x="381" y="300" type="curve" smooth="yes"/>
      <point x="302" y="332" type="line" smooth="yes"/>
      <point x="201" y="372"/>
      <point x="199" y="411"/>
      <point x="209" y="450" type="curve" smooth="yes"/>
      <point x="215" y="473"/>
      <point x="221" y="490"/>
      <point x="231" y="516" type="curve"/>
      <point x="184" y="509"/>
      <point x="141" y="502"/>
      <point x="130" y="453" type="curve" smooth="yes"/>
      <point x="113" y="387"/>
      <point x="137" y="322"/>
      <point x="265" y="270" type="curve" smooth="yes"/>
      <point x="345" y="237" type="line" smooth="yes"/>
      <point x="422" y="205"/>
      <point x="437" y="172"/>
      <point x="417" y="104" type="curve" smooth="yes"/>
      <point x="416" y="100"/>
      <point x="413" y="93"/>
      <point x="412" y="88" type="curve"/>
      <point x="443" y="92"/>
      <point x="490" y="115"/>
      <point x="496" y="139" type="curve"/>
      <point x="511" y="197"/>
      <point x="483" y="259"/>
    </contour>
    <contour>
      <point x="243" y="-15" type="curve" smooth="yes"/>
      <point x="373" y="-15"/>
      <point x="469" y="30"/>
      <point x="493" y="128" type="curve" smooth="yes"/>
      <point x="496" y="139" type="line" smooth="yes"/>
      <point x="502" y="163"/>
      <point x="477" y="197"/>
      <point x="455" y="199" type="curve"/>
      <point x="454" y="195"/>
      <point x="452" y="190"/>
      <point x="450" y="180" type="curve" smooth="yes"/>
      <point x="432" y="104"/>
      <point x="359" y="64"/>
      <point x="259" y="64" type="curve" smooth="yes"/>
      <point x="144" y="64"/>
      <point x="90" y="91"/>
      <point x="51" y="148" type="curve"/>
      <point x="47" y="148" type="line"/>
      <point x="38" y="138"/>
      <point x="33" y="126"/>
      <point x="29" y="108" type="curve" smooth="yes"/>
      <point x="22" y="82"/>
      <point x="25" y="66"/>
      <point x="38" y="51" type="curve" smooth="yes"/>
      <point x="68" y="13"/>
      <point x="135" y="-15"/>
    </contour>
    <contour>
      <point x="551" y="448" type="curve"/>
      <point x="584" y="581" type="line" smooth="yes"/>
      <point x="605" y="663"/>
      <point x="561" y="676"/>
      <point x="522" y="663" type="curve"/>
      <point x="517" y="630"/>
      <point x="508" y="602"/>
      <point x="499" y="564" type="curve" smooth="yes"/>
      <point x="482" y="493" type="line" smooth="yes"/>
      <point x="478" y="477"/>
      <point x="478" y="465"/>
      <point x="484" y="456" type="curve" smooth="yes"/>
      <point x="490" y="448"/>
      <point x="502" y="444"/>
      <point x="523" y="444" type="curve" smooth="yes"/>
      <point x="534" y="444"/>
      <point x="543" y="445"/>
    </contour>
  </outline>
</glyph>
<glyph name="T" format="2">
  <advance width="600"/>
  <unicode hex="0054"/>
  <anchor x="410" y="711" name="top"/>
  <anchor x="233" y="-1" name="bottom"/>
  <outline>
    <contour>
      <point x="155" y="700" type="line"/>
      <point x="151" y="695"/>
      <point x="149" y="687"/>
      <point x="146" y="678" type="curve" smooth="yes"/>
      <point x="141" y="660"/>
      <point x="142" y="646"/>
      <point x="151" y="634" type="curve" smooth="yes"/>
      <point x="159" y="625"/>
      <point x="172" y="622"/>
      <point x="201" y="622" type="curve" smooth="yes"/>
      <point x="640" y="622" type="line"/>
      <point x="644" y="629"/>
      <point x="648" y="639"/>
      <point x="651" y="649" type="curve" smooth="yes"/>
      <point x="658" y="680"/>
      <point x="655" y="700"/>
      <point x="628" y="700" type="curve" smooth="yes"/>
    </contour>
    <contour>
      <point x="283" y="-6" type="curve"/>
      <point x="285" y="30"/>
      <point x="292" y="65"/>
      <point x="302" y="103" type="curve" smooth="yes"/>
      <point x="418" y="569" type="line" smooth="yes"/>
      <point x="433" y="630"/>
      <point x="417" y="653"/>
      <point x="355" y="653" type="curve"/>
      <point x="205" y="53" type="line" smooth="yes"/>
      <point x="199" y="30"/>
      <point x="198" y="14"/>
      <point x="206" y="2" type="curve" smooth="yes"/>
      <point x="212" y="-6"/>
      <point x="224" y="-10"/>
      <point x="249" y="-10" type="curve" smooth="yes"/>
      <point x="261" y="-10"/>
      <point x="271" y="-9"/>
    </contour>
  </outline>
</glyph>
<glyph name="U" format="2">
  <advance width="600"/>
  <unicode hex="0055"/>
  <anchor x="411" y="711" name="top"/>
  <anchor x="466" y="-7" name="ogonek"/>
  <anchor x="407" y="695" name="ring"/>
  <anchor x="229" y="-1" name="bottom"/>
  <outline>
    <contour>
      <point x="167" y="705" type="curve"/>
      <point x="167" y="670"/>
      <point x="161" y="629"/>
      <point x="148" y="576" type="curve" smooth="yes"/>
      <point x="42" y="153" type="line"/>
      <point x="32" y="113"/>
      <point x="54" y="108"/>
      <point x="98" y="108" type="curve"/>
      <point x="158" y="285"/>
      <point x="193" y="395"/>
      <point x="231" y="545" type="curve" smooth="yes"/>
      <point x="233" y="554" type="line"/>
      <point x="263" y="674"/>
      <point x="246" y="710"/>
      <point x="202" y="710" type="curve"/>
      <point x="189" y="710"/>
      <point x="179" y="709"/>
    </contour>
    <contour>
      <point x="167" y="-17" type="curve" smooth="yes"/>
      <point x="254" y="-17"/>
      <point x="334" y="23"/>
      <point x="412" y="126" type="curve" smooth="yes"/>
      <point x="441" y="164"/>
      <point x="449" y="196"/>
      <point x="444" y="233" type="curve"/>
      <point x="344" y="101"/>
      <point x="273" y="67"/>
      <point x="193" y="67" type="curve" smooth="yes"/>
      <point x="129" y="67"/>
      <point x="97" y="105"/>
      <point x="111" y="195" type="curve"/>
      <point x="76" y="188"/>
      <point x="47" y="172"/>
      <point x="42" y="153" type="curve" smooth="yes"/>
      <point x="20" y="66"/>
      <point x="71" y="-17"/>
    </contour>
    <contour>
      <point x="466" y="-6" type="curve"/>
      <point x="468" y="28"/>
      <point x="476" y="63"/>
      <point x="485" y="100" type="curve" smooth="yes"/>
      <point x="629" y="676" type="line" smooth="yes"/>
      <point x="635" y="701"/>
      <point x="613" y="710"/>
      <point x="574" y="710" type="curve" smooth="yes"/>
      <point x="566" y="710"/>
      <point x="559" y="710"/>
      <point x="553" y="709" type="curve"/>
      <point x="418" y="168" type="line" smooth="yes"/>
      <point x="392" y="66"/>
      <point x="389" y="24"/>
      <point x="404" y="4" type="curve" smooth="yes"/>
      <point x="411" y="-6"/>
      <point x="421" y="-10"/>
      <point x="438" y="-10" type="curve" smooth="yes"/>
      <point x="448" y="-10"/>
      <point x="457" y="-9"/>
    </contour>
  </outline>
</glyph>
<glyph name="V" format="2">
  <advance width="600"/>
  <unicode hex="0056"/>
  <outline>
    <contour>
      <point x="184" y="710" type="curve"/>
      <point x="170" y="710" type="line"/>
      <point x="92" y="332"/>
      <point x="89" y="143"/>
      <point x="180" y="21" type="curve" smooth="yes"/>
      <point x="198" y="-3"/>
      <point x="216" y="-10"/>
      <point x="237" y="-10" type="curve" smooth="yes"/>
      <point x="248" y="-10" type="line" smooth="yes"/>
      <point x="267" y="-10"/>
      <point x="282" y="10"/>
      <point x="298" y="36" type="curve"/>
      <point x="292" y="36"/>
      <point x="289" y="36"/>
      <point x="284" y="36" type="curve" smooth="yes"/>
      <point x="279" y="36"/>
      <point x="274" y="37"/>
      <point x="267" y="44" type="curve"/>
      <point x="170" y="161"/>
      <point x="168" y="289"/>
      <point x="248" y="679" type="curve"/>
      <point x="252" y="701"/>
      <point x="236" y="710"/>
    </contour>
    <contour>
      <point x="582" y="710" type="curve"/>
      <point x="567" y="710" type="line"/>
      <point x="442" y="305"/>
      <point x="386" y="168"/>
      <point x="225" y="51" type="curve"/>
      <point x="205" y="37"/>
      <point x="204" y="-10"/>
      <point x="243" y="-10" type="curve"/>
      <point x="270" y="-10" type="line"/>
      <point x="441" y="112"/>
      <point x="530" y="306"/>
      <point x="640" y="668" type="curve"/>
      <point x="647" y="691"/>
      <point x="620" y="710"/>
    </contour>
  </outline>
</glyph>
<glyph name="W" format="2">
  <advance width="600"/>
  <unicode hex="0057"/>
  <anchor x="410" y="711" name="top"/>
  <outline>
    <contour>
      <point x="151" y="710" type="curve"/>
      <point x="29" y="257"/>
      <point x="23" y="105"/>
      <point x="88" y="8" type="curve"/>
      <point x="96" y="-4"/>
      <point x="108" y="-10"/>
      <point x="120" y="-10" type="curve"/>
      <point x="127" y="-10" type="line" smooth="yes"/>
      <point x="137" y="-10"/>
      <point x="152" y="35"/>
      <point x="155" y="51" type="curve"/>
      <point x="101" y="138"/>
      <point x="108" y="216"/>
      <point x="223" y="679" type="curve"/>
      <point x="225" y="686"/>
      <point x="224" y="691"/>
      <point x="220" y="696" type="curve" smooth="yes"/>
      <point x="214" y="703"/>
      <point x="195" y="710"/>
      <point x="165" y="710" type="curve"/>
      <point x="161" y="710"/>
      <point x="156" y="710"/>
    </contour>
    <contour>
      <point x="588" y="710" type="curve"/>
      <point x="481" y="233"/>
      <point x="431" y="152"/>
      <point x="339" y="55" type="curve"/>
      <point x="330" y="12"/>
      <point x="336" y="-10"/>
      <point x="349" y="-10" type="curve"/>
      <point x="376" y="-10" type="line"/>
      <point x="506" y="131"/>
      <point x="565" y="255"/>
      <point x="664" y="673" type="curve"/>
      <point x="667" y="685"/>
      <point x="667" y="691"/>
      <point x="662" y="697" type="curve" smooth="yes"/>
      <point x="655" y="704"/>
      <point x="639" y="710"/>
      <point x="603" y="710" type="curve"/>
      <point x="598" y="710"/>
      <point x="593" y="710"/>
    </contour>
    <contour>
      <point x="363" y="577" type="curve"/>
      <point x="345" y="577" type="line"/>
      <point x="276" y="299"/>
      <point x="225" y="172"/>
      <point x="105" y="28" type="curve"/>
      <point x="101" y="10"/>
      <point x="106" y="-10"/>
      <point x="120" y="-10" type="curve"/>
      <point x="143" y="-10" type="line"/>
      <point x="274" y="133"/>
      <point x="337" y="320"/>
      <point x="391" y="538" type="curve"/>
      <point x="398" y="565"/>
      <point x="385" y="577"/>
    </contour>
    <contour>
      <point x="363" y="577" type="curve"/>
      <point x="355" y="577" type="line"/>
      <point x="273" y="251"/>
      <point x="268" y="90"/>
      <point x="318" y="2" type="curve"/>
      <point x="323" y="-6"/>
      <point x="330" y="-10"/>
      <point x="340" y="-10" type="curve"/>
      <point x="357" y="-10" type="line"/>
      <point x="365" y="-10"/>
      <point x="375" y="12"/>
      <point x="380" y="31" type="curve"/>
      <point x="323" y="101"/>
      <point x="339" y="288"/>
      <point x="404" y="549" type="curve"/>
      <point x="408" y="564"/>
      <point x="396" y="577"/>
    </contour>
  </outline>
</glyph>
<glyph name="X" format="2">
  <advance width="600"/>
  <unicode hex="0058"/>
  <outline>
    <contour>
      <point x="458" y="-7" type="curve" smooth="yes"/>
      <point x="473" y="-7"/>
      <point x="488" y="-5"/>
      <point x="501" y="-2" type="curve"/>
      <point x="439" y="76"/>
      <point x="377" y="187"/>
      <point x="331" y="310" type="curve" smooth="yes"/>
      <point x="327" y="324"/>
      <point x="322" y="337"/>
      <point x="318" y="350" type="curve" smooth="yes"/>
      <point x="274" y="469"/>
      <point x="254" y="593"/>
      <point x="242" y="678" type="curve" smooth="yes"/>
      <point x="240" y="699"/>
      <point x="219" y="707"/>
      <point x="162" y="707" type="curve" smooth="yes"/>
      <point x="146" y="707" type="line"/>
      <point x="164" y="585"/>
      <point x="197" y="428"/>
      <point x="247" y="294" type="curve" smooth="yes"/>
      <point x="251" y="283"/>
      <point x="256" y="271"/>
      <point x="259" y="259" type="curve" smooth="yes"/>
      <point x="301" y="157"/>
      <point x="356" y="73"/>
      <point x="396" y="19" type="curve" smooth="yes"/>
      <point x="408" y="0"/>
      <point x="420" y="-7"/>
    </contour>
    <contour>
      <point x="595" y="707" type="curve"/>
      <point x="583" y="707" type="line"/>
      <point x="497" y="560"/>
      <point x="405" y="447"/>
      <point x="281" y="339" type="curve"/>
      <point x="251" y="311"/>
      <point x="285" y="281"/>
      <point x="326" y="284" type="curve"/>
      <point x="475" y="409"/>
      <point x="571" y="522"/>
      <point x="664" y="668" type="curve"/>
      <point x="670" y="676"/>
      <point x="670" y="684"/>
      <point x="664" y="690" type="curve" smooth="yes"/>
      <point x="651" y="703"/>
      <point x="621" y="707"/>
    </contour>
    <contour>
      <point x="48" y="-7" type="curve" smooth="yes"/>
      <point x="56" y="-7" type="line"/>
      <point x="123" y="100"/>
      <point x="209" y="197"/>
      <point x="302" y="272" type="curve"/>
      <point x="332" y="296"/>
      <point x="300" y="334"/>
      <point x="262" y="334" type="curve"/>
      <point x="139" y="235"/>
      <point x="48" y="136"/>
      <point x="-27" y="34" type="curve"/>
      <point x="-34" y="24"/>
      <point x="-33" y="15"/>
      <point x="-26" y="9" type="curve" smooth="yes"/>
      <point x="-15" y="-2"/>
      <point x="15" y="-7"/>
    </contour>
  </outline>
</glyph>
<glyph name="Y" format="2">
  <advance width="600"/>
  <unicode hex="0059"/>
  <anchor x="411" y="711" name="top"/>
  <outline>
    <contour>
      <point x="155" y="710" type="line"/>
      <point x="129" y="453"/>
      <point x="158" y="349"/>
      <point x="245" y="234" type="curve"/>
      <point x="256" y="218"/>
      <point x="272" y="216"/>
      <point x="285" y="216" type="curve"/>
      <point x="307" y="216"/>
      <point x="318" y="228"/>
      <point x="328" y="265" type="curve"/>
      <point x="236" y="364"/>
      <point x="210" y="448"/>
      <point x="232" y="681" type="curve"/>
      <point x="234" y="699"/>
      <point x="217" y="710"/>
      <point x="169" y="710" type="curve" smooth="yes"/>
    </contour>
    <contour>
      <point x="580" y="710" type="line"/>
      <point x="495" y="482"/>
      <point x="418" y="384"/>
      <point x="272" y="273" type="curve"/>
      <point x="240" y="250"/>
      <point x="264" y="216"/>
      <point x="285" y="216" type="curve"/>
      <point x="321" y="216" type="line"/>
      <point x="472" y="336"/>
      <point x="573" y="456"/>
      <point x="653" y="668" type="curve"/>
      <point x="661" y="691"/>
      <point x="637" y="710"/>
      <point x="594" y="710" type="curve"/>
    </contour>
    <contour>
      <point x="280" y="-6" type="curve"/>
      <point x="282" y="30"/>
      <point x="289" y="65"/>
      <point x="299" y="103" type="curve" smooth="yes"/>
      <point x="334" y="245" type="line" smooth="yes"/>
      <point x="341" y="271"/>
      <point x="305" y="282"/>
      <point x="259" y="282" type="curve"/>
      <point x="202" y="53" type="line" smooth="yes"/>
      <point x="196" y="30"/>
      <point x="195" y="13"/>
      <point x="203" y="2" type="curve" smooth="yes"/>
      <point x="209" y="-6"/>
      <point x="221" y="-10"/>
      <point x="246" y="-10" type="curve" smooth="yes"/>
      <point x="258" y="-10"/>
      <point x="268" y="-9"/>
    </contour>
  </outline>
</glyph>
<glyph name="Z" format="2">
  <advance width="600"/>
  <unicode hex="005A"/>
  <anchor x="411" y="711" name="top"/>
  <outline>
    <contour>
      <point x="222" y="700" type="line"/>
      <point x="219" y="695"/>
      <point x="216" y="687"/>
      <point x="214" y="678" type="curve" smooth="yes"/>
      <point x="208" y="657"/>
      <point x="209" y="642"/>
      <point x="218" y="630" type="curve" smooth="yes"/>
      <point x="223" y="624"/>
      <point x="227" y="622"/>
      <point x="238" y="622" type="curve" smooth="yes"/>
      <point x="512" y="622" type="line" smooth="yes"/>
      <point x="565" y="622"/>
      <point x="588" y="611"/>
      <point x="608" y="590" type="curve" smooth="yes"/>
      <point x="625" y="598"/>
      <point x="632" y="603"/>
      <point x="635" y="614" type="curve"/>
      <point x="637" y="621" type="line" smooth="yes"/>
      <point x="648" y="665"/>
      <point x="624" y="700"/>
      <point x="561" y="700" type="curve" smooth="yes"/>
    </contour>
    <contour>
      <point x="571" y="654" type="curve"/>
      <point x="453" y="432"/>
      <point x="277" y="263"/>
      <point x="9" y="75" type="curve"/>
      <point x="1" y="43"/>
      <point x="49" y="36"/>
      <point x="86" y="55" type="curve" smooth="yes"/>
      <point x="386" y="241"/>
      <point x="614" y="532"/>
      <point x="635" y="614" type="curve"/>
      <point x="642" y="645"/>
      <point x="615" y="652"/>
    </contour>
    <contour>
      <point x="480" y="0" type="line"/>
      <point x="482" y="5"/>
      <point x="484" y="10"/>
      <point x="485" y="17" type="curve" smooth="yes"/>
      <point x="491" y="41"/>
      <point x="490" y="55"/>
      <point x="479" y="69" type="curve" smooth="yes"/>
      <point x="474" y="76"/>
      <point x="467" y="78"/>
      <point x="456" y="78" type="curve" smooth="yes"/>
      <point x="243" y="78" type="line" smooth="yes"/>
      <point x="177" y="78"/>
      <point x="77" y="77"/>
      <point x="9" y="75" type="curve"/>
      <point x="7" y="64" type="line" smooth="yes"/>
      <point x="-2" y="25"/>
      <point x="0" y="0"/>
      <point x="23" y="0" type="curve" smooth="yes"/>
    </contour>
    <contour>
      <point x="217" y="501" type="curve"/>
      <point x="241" y="596"/>
      <point x="275" y="665"/>
      <point x="281" y="687" type="curve"/>
      <point x="286" y="709"/>
      <point x="259" y="720"/>
      <point x="222" y="720" type="curve" smooth="yes"/>
      <point x="214" y="720" type="line"/>
      <point x="185" y="661"/>
      <point x="161" y="598"/>
      <point x="145" y="535" type="curve"/>
      <point x="138" y="508"/>
      <point x="156" y="499"/>
      <point x="192" y="499" type="curve" smooth="yes"/>
      <point x="201" y="499"/>
      <point x="210" y="500"/>
    </contour>
  </outline>
</glyph>
<glyph name="bracketleft" format="2">
  <advance width="600"/>
  <unicode hex="005B"/>
  <outline>
    <contour>
      <point x="300" y="647" type="curve" smooth="yes"/>
      <point x="118" y="-81" type="line" smooth="yes"/>
      <point x="112" y="-104"/>
      <point x="156" y="-108"/>
      <point x="195" y="-108" type="curve"/>
      <point x="400" y="711" type="line" smooth="yes"/>
      <point x="408" y="743"/>
      <point x="402" y="760"/>
      <point x="359" y="760" type="curve" smooth="yes"/>
      <point x="344" y="760"/>
      <point x="332" y="759"/>
      <point x="318" y="755" type="curve"/>
      <point x="316" y="720"/>
      <point x="309" y="685"/>
    </contour>
    <contour>
      <point x="612" y="679" type="line"/>
      <point x="617" y="687"/>
      <point x="621" y="697"/>
      <point x="624" y="707" type="curve" smooth="yes"/>
      <point x="627" y="720"/>
      <point x="629" y="741"/>
      <point x="621" y="753" type="curve" smooth="yes"/>
      <point x="617" y="758"/>
      <point x="612" y="760"/>
      <point x="604" y="760" type="curve" smooth="yes"/>
      <point x="359" y="760" type="line"/>
      <point x="346" y="711"/>
      <point x="359" y="679"/>
      <point x="435" y="679" type="curve"/>
    </contour>
    <contour>
      <point x="405" y="-161" type="line"/>
      <point x="408" y="-154"/>
      <point x="411" y="-145"/>
      <point x="413" y="-136" type="curve" smooth="yes"/>
      <point x="423" y="-97"/>
      <point x="416" y="-80"/>
      <point x="392" y="-80" type="curve" smooth="yes"/>
      <point x="118" y="-80" type="line"/>
      <point x="115" y="-92" type="line" smooth="yes"/>
      <point x="107" y="-124"/>
      <point x="126" y="-161"/>
      <point x="152" y="-161" type="curve" smooth="yes"/>
    </contour>
  </outline>
</glyph>
<glyph name="bracketright" format="2">
  <advance width="600"/>
  <unicode hex="005D"/>
  <outline>
    <contour>
      <point x="317" y="-48" type="curve" smooth="yes"/>
      <point x="499" y="680" type="line" smooth="yes"/>
      <point x="505" y="703"/>
      <point x="461" y="707"/>
      <point x="422" y="707" type="curve"/>
      <point x="217" y="-112" type="line" smooth="yes"/>
      <point x="209" y="-144"/>
      <point x="215" y="-161"/>
      <point x="258" y="-161" type="curve" smooth="yes"/>
      <point x="273" y="-161"/>
      <point x="285" y="-160"/>
      <point x="299" y="-156" type="curve"/>
      <point x="301" y="-121"/>
      <point x="308" y="-86"/>
    </contour>
    <contour>
      <point x="5" y="-80" type="line"/>
      <point x="0" y="-88"/>
      <point x="-4" y="-98"/>
      <point x="-7" y="-108" type="curve" smooth="yes"/>
      <point x="-10" y="-121"/>
      <point x="-12" y="-142"/>
      <point x="-4" y="-154" type="curve" smooth="yes"/>
      <point x="0" y="-159"/>
      <point x="5" y="-161"/>
      <point x="14" y="-161" type="curve" smooth="yes"/>
      <point x="258" y="-161" type="line"/>
      <point x="271" y="-112"/>
      <point x="258" y="-80"/>
      <point x="182" y="-80" type="curve"/>
    </contour>
    <contour>
      <point x="212" y="760" type="line"/>
      <point x="209" y="753"/>
      <point x="206" y="744"/>
      <point x="204" y="735" type="curve" smooth="yes"/>
      <point x="194" y="696"/>
      <point x="201" y="679"/>
      <point x="225" y="679" type="curve" smooth="yes"/>
      <point x="499" y="679" type="line"/>
      <point x="502" y="691" type="line" smooth="yes"/>
      <point x="510" y="723"/>
      <point x="491" y="760"/>
      <point x="465" y="760" type="curve" smooth="yes"/>
    </contour>
  </outline>
</glyph>
<glyph name="grave" format="2">
  <advance width="600"/>
  <unicode hex="0060"/>
  <outline>
    <contour>
      <point x="448" y="410" type="curve"/>
      <point x="414" y="498"/>
      <point x="402" y="595"/>
      <point x="415" y="712" type="curve"/>
      <point x="400" y="718"/>
      <point x="388" y="720"/>
      <point x="370" y="720" type="curve" smooth="yes"/>
      <point x="332" y="720"/>
      <point x="298" y="710"/>
      <point x="288" y="672" type="curve" smooth="yes"/>
      <point x="271" y="602"/>
      <point x="311" y="451"/>
      <point x="353" y="402" type="curve" smooth="yes"/>
      <point x="359" y="394"/>
      <point x="367" y="391"/>
      <point x="381" y="391" type="curve" smooth="yes"/>
      <point x="407" y="391"/>
      <point x="426" y="397"/>
    </contour>
  </outline>
</glyph>
<glyph name="a" format="2">
  <advance width="600"/>
  <unicode hex="0061"/>
  <outline>
    <contour>
      <point x="346" y="541" type="curve" smooth="yes"/>
      <point x="224" y="541"/>
      <point x="112" y="451"/>
      <point x="53" y="223" type="curve" smooth="yes"/>
      <point x="49" y="204" type="line" smooth="yes"/>
      <point x="35" y="150"/>
      <point x="49" y="59"/>
      <point x="95" y="59" type="curve" smooth="yes"/>
      <point x="110" y="59"/>
      <point x="121" y="65"/>
      <point x="126" y="75" type="curve"/>
      <point x="115" y="122"/>
      <point x="121" y="160"/>
      <point x="135" y="214" type="curve" smooth="yes"/>
      <point x="137" y="222" type="line" smooth="yes"/>
      <point x="177" y="382"/>
      <point x="244" y="463"/>
      <point x="342" y="463" type="curve" smooth="yes"/>
      <point x="405" y="463"/>
      <point x="434" y="439"/>
      <point x="464" y="389" type="curve"/>
      <point x="477" y="398"/>
      <point x="484" y="420"/>
      <point x="481" y="433" type="curve" smooth="yes"/>
      <point x="485" y="482"/>
      <point x="431" y="541"/>
    </contour>
    <contour>
      <point x="164" y="-11" type="curve" smooth="yes"/>
      <point x="255" y="-11"/>
      <point x="351" y="68"/>
      <point x="413" y="178" type="curve" smooth="yes"/>
      <point x="436" y="218"/>
      <point x="443" y="260"/>
      <point x="437" y="289" type="curve"/>
      <point x="335" y="128"/>
      <point x="255" y="73"/>
      <point x="182" y="73" type="curve" smooth="yes"/>
      <point x="127" y="73"/>
      <point x="92" y="129"/>
      <point x="96" y="221" type="curve"/>
      <point x="63" y="220"/>
      <point x="51" y="212"/>
      <point x="49" y="204" type="curve" smooth="yes"/>
      <point x="18" y="82"/>
      <point x="60" y="-11"/>
    </contour>
    <contour>
      <point x="571" y="532" type="line"/>
      <point x="563" y="534"/>
      <point x="556" y="535"/>
      <point x="544" y="535" type="curve" smooth="yes"/>
      <point x="514" y="535"/>
      <point x="489" y="529"/>
      <point x="482" y="500" type="curve" smooth="yes"/>
      <point x="381" y="93" type="line" smooth="yes"/>
      <point x="369" y="47"/>
      <point x="412" y="20"/>
      <point x="466" y="36" type="curve"/>
      <point x="457" y="59"/>
      <point x="457" y="75"/>
      <point x="466" y="112" type="curve"/>
    </contour>
    <contour>
      <point x="518" y="75" type="line"/>
      <point x="514" y="75" type="line"/>
      <point x="506" y="70"/>
      <point x="497" y="68"/>
      <point x="487" y="68" type="curve" smooth="yes"/>
      <point x="463" y="68"/>
      <point x="442" y="82"/>
      <point x="447" y="130" type="curve"/>
      <point x="402" y="131"/>
      <point x="387" y="122"/>
      <point x="381" y="93" type="curve" smooth="yes"/>
      <point x="366" y="35"/>
      <point x="390" y="-10"/>
      <point x="445" y="-10" type="curve" smooth="yes"/>
      <point x="449" y="-10" type="line" smooth="yes"/>
      <point x="480" y="-10"/>
      <point x="503" y="17"/>
      <point x="515" y="65" type="curve"/>
    </contour>
  </outline>
</glyph>
<glyph name="b" format="2">
  <advance width="600"/>
  <unicode hex="0062"/>
  <outline>
    <contour>
      <point x="25" y="0" type="line"/>
      <point x="32" y="-3"/>
      <point x="41" y="-5"/>
      <point x="54" y="-5" type="curve" smooth="yes"/>
      <point x="90" y="-5"/>
      <point x="110" y="15"/>
      <point x="118" y="47" type="curve" smooth="yes"/>
      <point x="284" y="689" type="line"/>
      <point x="296" y="737"/>
      <point x="283" y="759"/>
      <point x="244" y="759" type="curve" smooth="yes"/>
      <point x="231" y="759"/>
      <point x="218" y="757"/>
      <point x="204" y="753" type="curve"/>
      <point x="208" y="725"/>
      <point x="205" y="703"/>
      <point x="193" y="656" type="curve" smooth="yes"/>
    </contour>
    <contour>
      <point x="437" y="541" type="curve" smooth="yes"/>
      <point x="348" y="541"/>
      <point x="244" y="461"/>
      <point x="184" y="353" type="curve" smooth="yes"/>
      <point x="162" y="314"/>
      <point x="154" y="267"/>
      <point x="159" y="238" type="curve"/>
      <point x="263" y="401"/>
      <point x="342" y="459"/>
      <point x="418" y="459" type="curve" smooth="yes"/>
      <point x="476" y="459"/>
      <point x="507" y="414"/>
      <point x="503" y="317" type="curve"/>
      <point x="536" y="318"/>
      <point x="547" y="322"/>
      <point x="549" y="330" type="curve" smooth="yes"/>
      <point x="580" y="452"/>
      <point x="537" y="541"/>
    </contour>
    <contour>
      <point x="257" y="-11" type="curve" smooth="yes"/>
      <point x="390" y="-11"/>
      <point x="487" y="75"/>
      <point x="543" y="308" type="curve" smooth="yes"/>
      <point x="549" y="330" type="line" smooth="yes"/>
      <point x="561" y="383"/>
      <point x="552" y="470"/>
      <point x="505" y="470" type="curve"/>
      <point x="493" y="470"/>
      <point x="481" y="463"/>
      <point x="475" y="452" type="curve"/>
      <point x="482" y="405"/>
      <point x="478" y="373"/>
      <point x="464" y="319" type="curve" smooth="yes"/>
      <point x="460" y="303" type="line" smooth="yes"/>
      <point x="418" y="146"/>
      <point x="352" y="66"/>
      <point x="253" y="66" type="curve" smooth="yes"/>
      <point x="191" y="66"/>
      <point x="158" y="89"/>
      <point x="131" y="144" type="curve"/>
      <point x="121" y="135"/>
      <point x="112" y="114"/>
      <point x="116" y="100" type="curve" smooth="yes"/>
      <point x="111" y="54"/>
      <point x="173" y="-11"/>
    </contour>
  </outline>
</glyph>
<glyph name="d" format="2">
  <advance width="600"/>
  <unicode hex="0064"/>
  <anchor x="635" y="711" name="caronslovak"/>
  <outline>
    <contour>
      <point x="340" y="541" type="curve" smooth="yes"/>
      <point x="207" y="541"/>
      <point x="109" y="452"/>
      <point x="53" y="219" type="curve" smooth="yes"/>
      <point x="48" y="200" type="line" smooth="yes"/>
      <point x="35" y="146"/>
      <point x="46" y="59"/>
      <point x="93" y="59" type="curve" smooth="yes"/>
      <point x="106" y="59"/>
      <point x="118" y="66"/>
      <point x="123" y="77" type="curve"/>
      <point x="117" y="124"/>
      <point x="119" y="157"/>
      <point x="133" y="211" type="curve" smooth="yes"/>
      <point x="137" y="225" type="line" smooth="yes"/>
      <point x="176" y="379"/>
      <point x="245" y="465"/>
      <point x="344" y="465" type="curve" smooth="yes"/>
      <point x="406" y="465"/>
      <point x="439" y="442"/>
      <point x="466" y="386" type="curve"/>
      <point x="476" y="395"/>
      <point x="484" y="416"/>
      <point x="481" y="429" type="curve" smooth="yes"/>
      <point x="485" y="477"/>
      <point x="427" y="541"/>
    </contour>
    <contour>
      <point x="159" y="-11" type="curve" smooth="yes"/>
      <point x="248" y="-11"/>
      <point x="353" y="69"/>
      <point x="414" y="177" type="curve" smooth="yes"/>
      <point x="435" y="216"/>
      <point x="443" y="264"/>
      <point x="438" y="292" type="curve"/>
      <point x="337" y="129"/>
      <point x="256" y="71"/>
      <point x="179" y="71" type="curve" smooth="yes"/>
      <point x="119" y="71"/>
      <point x="90" y="116"/>
      <point x="94" y="214" type="curve"/>
      <point x="61" y="212"/>
      <point x="50" y="208"/>
      <point x="48" y="200" type="curve" smooth="yes"/>
      <point x="17" y="81"/>
      <point x="60" y="-11"/>
    </contour>
    <contour>
      <point x="537" y="753" type="curve"/>
      <point x="538" y="724"/>
      <point x="536" y="705"/>
      <point x="524" y="661" type="curve" smooth="yes"/>
      <point x="384" y="114" type="line"/>
      <point x="371" y="62"/>
      <point x="367" y="30"/>
      <point x="379" y="13" type="curve" smooth="yes"/>
      <point x="389" y="0"/>
      <point x="407" y="-4"/>
      <point x="423" y="-4" type="curve" smooth="yes"/>
      <point x="431" y="-4"/>
      <point x="439" y="-3"/>
      <point x="447" y="-1" type="curve"/>
      <point x="446" y="29"/>
      <point x="448" y="48"/>
      <point x="460" y="92" type="curve" smooth="yes"/>
      <point x="612" y="688" type="line"/>
      <point x="618" y="712"/>
      <point x="621" y="731"/>
      <point x="612" y="742" type="curve" smooth="yes"/>
      <point x="603" y="755"/>
      <point x="588" y="757"/>
      <point x="568" y="757" type="curve" smooth="yes"/>
      <point x="558" y="757"/>
      <point x="546" y="756"/>
    </contour>
  </outline>
</glyph>
<glyph name="e" format="2">
  <advance width="600"/>
  <unicode hex="0065"/>
  <anchor x="392" y="541" name="top"/>
  <anchor x="428" y="35" name="ogonek"/>
  <anchor x="233" y="-1" name="bottom"/>
  <outline>
    <contour>
      <point x="380" y="467" type="curve" smooth="yes"/>
      <point x="425" y="467"/>
      <point x="453" y="456"/>
      <point x="482" y="428" type="curve"/>
      <point x="495" y="440"/>
      <point x="504" y="452"/>
      <point x="506" y="464" type="curve"/>
      <point x="515" y="498"/>
      <point x="457" y="541"/>
      <point x="387" y="541" type="curve"/>
      <point x="252" y="541"/>
      <point x="125" y="462"/>
      <point x="77" y="276" type="curve" smooth="yes"/>
      <point x="73" y="263" type="line" smooth="yes"/>
      <point x="31" y="102"/>
      <point x="121" y="-11"/>
      <point x="279" y="-11" type="curve" smooth="yes"/>
      <point x="306" y="-11"/>
      <point x="319" y="16"/>
      <point x="325" y="37" type="curve"/>
      <point x="158" y="37"/>
      <point x="125" y="145"/>
      <point x="150" y="237" type="curve" smooth="yes"/>
      <point x="153" y="249" type="line" smooth="yes"/>
      <point x="191" y="393"/>
      <point x="276" y="467"/>
    </contour>
    <contour>
      <point x="448" y="35" type="curve" smooth="yes"/>
      <point x="464" y="49"/>
      <point x="475" y="70"/>
      <point x="482" y="98" type="curve" smooth="yes"/>
      <point x="484" y="108"/>
      <point x="486" y="118"/>
      <point x="485" y="129" type="curve"/>
      <point x="481" y="129" type="line"/>
      <point x="419" y="84"/>
      <point x="369" y="65"/>
      <point x="283" y="65" type="curve" smooth="yes"/>
      <point x="184" y="65"/>
      <point x="153" y="94"/>
      <point x="110" y="148" type="curve"/>
      <point x="65" y="77"/>
      <point x="172" y="-11"/>
      <point x="279" y="-11" type="curve" smooth="yes"/>
      <point x="371" y="-11"/>
      <point x="416" y="7"/>
    </contour>
    <contour>
      <point x="304" y="208" type="line" smooth="yes"/>
      <point x="451" y="208"/>
      <point x="529" y="262"/>
      <point x="551" y="352" type="curve" smooth="yes"/>
      <point x="553" y="360" type="line" smooth="yes"/>
      <point x="576" y="450"/>
      <point x="511" y="541"/>
      <point x="387" y="541" type="curve" smooth="yes"/>
      <point x="366" y="541"/>
      <point x="350" y="521"/>
      <point x="343" y="488" type="curve"/>
      <point x="436" y="488"/>
      <point x="488" y="434"/>
      <point x="472" y="366" type="curve" smooth="yes"/>
      <point x="470" y="357" type="line" smooth="yes"/>
      <point x="456" y="301"/>
      <point x="401" y="268"/>
      <point x="301" y="268" type="curve" smooth="yes"/>
      <point x="221" y="268"/>
      <point x="178" y="278"/>
      <point x="145" y="298" type="curve"/>
      <point x="132" y="273"/>
      <point x="131" y="259"/>
      <point x="141" y="247" type="curve" smooth="yes"/>
      <point x="158" y="226"/>
      <point x="217" y="208"/>
      <point x="296" y="208" type="curve" smooth="yes"/>
    </contour>
  </outline>
</glyph>
<glyph name="f" format="2">
  <advance width="600"/>
  <unicode hex="0066"/>
  <outline>
    <contour>
      <point x="355" y="641" type="curve"/>
      <point x="401" y="675"/>
      <point x="445" y="689"/>
      <point x="506" y="689" type="curve" smooth="yes"/>
      <point x="567" y="689"/>
      <point x="616" y="675"/>
      <point x="651" y="658" type="curve"/>
      <point x="655" y="658" type="line"/>
      <point x="658" y="666"/>
      <point x="661" y="675"/>
      <point x="663" y="684" type="curve"/>
      <point x="669" y="709"/>
      <point x="667" y="723"/>
      <point x="660" y="732" type="curve" smooth="yes"/>
      <point x="650" y="746"/>
      <point x="596" y="763"/>
      <point x="522" y="763" type="curve" smooth="yes"/>
      <point x="439" y="763"/>
      <point x="336" y="686"/>
    </contour>
    <contour>
      <point x="274" y="568" type="curve"/>
      <point x="121" y="-40" type="line" smooth="yes"/>
      <point x="108" y="-96"/>
      <point x="130" y="-109"/>
      <point x="169" y="-109" type="curve"/>
      <point x="181" y="-109"/>
      <point x="193" y="-107"/>
      <point x="203" y="-104" type="curve"/>
      <point x="202" y="-68"/>
      <point x="205" y="-42"/>
      <point x="218" y="7" type="curve"/>
      <point x="346" y="520" type="line"/>
      <point x="349" y="537"/>
      <point x="351" y="550"/>
      <point x="355" y="567" type="curve"/>
      <point x="382" y="670"/>
      <point x="429" y="721"/>
      <point x="539" y="732" type="curve"/>
      <point x="546" y="757"/>
      <point x="534" y="763"/>
      <point x="522" y="763" type="curve" smooth="yes"/>
      <point x="386" y="763"/>
      <point x="307" y="699"/>
    </contour>
    <contour>
      <point x="128" y="521" type="line"/>
      <point x="127" y="517"/>
      <point x="126" y="512"/>
      <point x="125" y="508" type="curve" smooth="yes"/>
      <point x="118" y="483"/>
      <point x="120" y="467"/>
      <point x="128" y="456" type="curve" smooth="yes"/>
      <point x="136" y="444"/>
      <point x="153" y="441"/>
      <point x="195" y="441" type="curve"/>
      <point x="558" y="441" type="line"/>
      <point x="561" y="448"/>
      <point x="564" y="458"/>
      <point x="567" y="468" type="curve" smooth="yes"/>
      <point x="575" y="503"/>
      <point x="572" y="521"/>
      <point x="542" y="521" type="curve"/>
    </contour>
  </outline>
</glyph>
<glyph name="h" format="2">
  <advance width="600"/>
  <unicode hex="0068"/>
  <anchor x="244" y="730" name="top"/>
  <outline>
    <contour>
      <point x="103" y="-3" type="curve"/>
      <point x="276" y="672" type="line" smooth="yes"/>
      <point x="284" y="704"/>
      <point x="285" y="725"/>
      <point x="276" y="738" type="curve" smooth="yes"/>
      <point x="265" y="752"/>
      <point x="248" y="757"/>
      <point x="226" y="757" type="curve" smooth="yes"/>
      <point x="218" y="757"/>
      <point x="209" y="756"/>
      <point x="201" y="753" type="curve"/>
      <point x="202" y="724"/>
      <point x="200" y="705"/>
      <point x="188" y="660" type="curve" smooth="yes"/>
      <point x="27" y="30" type="line" smooth="yes"/>
      <point x="19" y="1"/>
      <point x="44" y="-5"/>
      <point x="77" y="-5" type="curve" smooth="yes"/>
      <point x="86" y="-5"/>
      <point x="95" y="-5"/>
    </contour>
    <contour>
      <point x="443" y="542" type="curve" smooth="yes"/>
      <point x="358" y="542"/>
      <point x="250" y="453"/>
      <point x="176" y="336" type="curve" smooth="yes"/>
      <point x="148" y="286"/>
      <point x="135" y="234"/>
      <point x="142" y="183" type="curve"/>
      <point x="229" y="348"/>
      <point x="334" y="458"/>
      <point x="416" y="458" type="curve" smooth="yes"/>
      <point x="460" y="458"/>
      <point x="478" y="426"/>
      <point x="473" y="357" type="curve"/>
      <point x="513" y="358"/>
      <point x="532" y="371"/>
      <point x="536" y="387" type="curve" smooth="yes"/>
      <point x="556" y="463"/>
      <point x="525" y="542"/>
    </contour>
    <contour>
      <point x="452" y="0" type="curve"/>
      <point x="453" y="48"/>
      <point x="459" y="83"/>
      <point x="472" y="134" type="curve" smooth="yes"/>
      <point x="536" y="387" type="line"/>
      <point x="546" y="421"/>
      <point x="532" y="441"/>
      <point x="484" y="440" type="curve"/>
      <point x="433" y="299"/>
      <point x="408" y="235"/>
      <point x="384" y="141" type="curve" smooth="yes"/>
      <point x="381" y="131" type="line" smooth="yes"/>
      <point x="354" y="26"/>
      <point x="380" y="-3"/>
      <point x="425" y="-3" type="curve" smooth="yes"/>
      <point x="435" y="-3"/>
      <point x="443" y="-2"/>
    </contour>
  </outline>
</glyph>
<glyph name="i" format="2">
  <advance width="600"/>
  <unicode hex="0069"/>
  <outline>
    <contour>
      <point x="131" y="530" type="curve"/>
      <point x="126" y="522"/>
      <point x="122" y="512"/>
      <point x="119" y="500" type="curve" smooth="yes"/>
      <point x="111" y="467"/>
      <point x="119" y="450"/>
      <point x="137" y="450" type="curve" smooth="yes"/>
      <point x="164" y="450"/>
      <point x="227" y="463"/>
      <point x="343" y="463" type="curve"/>
      <point x="355" y="510"/>
      <point x="361" y="540"/>
      <point x="333" y="540" type="curve"/>
      <point x="274" y="540"/>
      <point x="211" y="537"/>
    </contour>
    <contour>
      <point x="402" y="524" type="curve" smooth="yes"/>
      <point x="391" y="535"/>
      <point x="369" y="540"/>
      <point x="341" y="540" type="curve" smooth="yes"/>
      <point x="333" y="540" type="line"/>
      <point x="236" y="153" type="line" smooth="yes"/>
      <point x="214" y="64"/>
      <point x="280" y="6"/>
      <point x="331" y="29" type="curve"/>
      <point x="305" y="76"/>
      <point x="303" y="93"/>
      <point x="321" y="167" type="curve" smooth="yes"/>
      <point x="405" y="502" type="line" smooth="yes"/>
      <point x="408" y="513"/>
      <point x="407" y="519"/>
    </contour>
    <contour>
      <point x="513" y="109" type="curve"/>
      <point x="509" y="109" type="line"/>
      <point x="466" y="78"/>
      <point x="428" y="62"/>
      <point x="375" y="62" type="curve"/>
      <point x="304" y="62"/>
      <point x="265" y="87"/>
      <point x="285" y="190" type="curve"/>
      <point x="255" y="185"/>
      <point x="239" y="167"/>
      <point x="236" y="153" type="curve" smooth="yes"/>
      <point x="213" y="57"/>
      <point x="256" y="-17"/>
      <point x="363" y="-17" type="curve" smooth="yes"/>
      <point x="369" y="-17" type="line" smooth="yes"/>
      <point x="425" y="-17"/>
      <point x="460" y="-2"/>
      <point x="478" y="15" type="curve" smooth="yes"/>
      <point x="493" y="28"/>
      <point x="504" y="44"/>
      <point x="510" y="75" type="curve"/>
      <point x="513" y="88"/>
      <point x="513" y="98"/>
    </contour>
    <contour>
      <point x="458" y="653" type="curve"/>
      <point x="473" y="715" type="line" smooth="yes"/>
      <point x="481" y="747"/>
      <point x="456" y="758"/>
      <point x="415" y="758" type="curve" smooth="yes"/>
      <point x="400" y="758"/>
      <point x="383" y="757"/>
      <point x="369" y="754" type="curve"/>
      <point x="354" y="693" type="line" smooth="yes"/>
      <point x="346" y="661"/>
      <point x="371" y="649"/>
      <point x="412" y="649" type="curve" smooth="yes"/>
      <point x="427" y="649"/>
      <point x="444" y="651"/>
    </contour>
  </outline>
</glyph>
<glyph name="j" format="2">
  <advance width="600"/>
  <unicode hex="006A"/>
  <outline>
    <contour>
      <point x="142" y="530" type="curve"/>
      <point x="137" y="522"/>
      <point x="133" y="512"/>
      <point x="130" y="500" type="curve" smooth="yes"/>
      <point x="122" y="468"/>
      <point x="129" y="450"/>
      <point x="148" y="450" type="curve" smooth="yes"/>
      <point x="182" y="450"/>
      <point x="275" y="460"/>
      <point x="435" y="468" type="curve"/>
      <point x="448" y="516"/>
      <point x="447" y="540"/>
      <point x="425" y="540" type="curve" smooth="yes"/>
      <point x="348" y="540"/>
      <point x="248" y="539"/>
    </contour>
    <contour>
      <point x="367" y="-2" type="curve" smooth="yes"/>
      <point x="496" y="502" type="line" smooth="yes"/>
      <point x="499" y="512"/>
      <point x="498" y="517"/>
      <point x="493" y="523" type="curve" smooth="yes"/>
      <point x="484" y="535"/>
      <point x="459" y="540"/>
      <point x="431" y="540" type="curve" smooth="yes"/>
      <point x="425" y="540" type="line"/>
      <point x="286" y="-3" type="line" smooth="yes"/>
      <point x="259" y="-108"/>
      <point x="234" y="-136"/>
      <point x="162" y="-183" type="curve"/>
      <point x="204" y="-221"/>
      <point x="322" y="-163"/>
    </contour>
    <contour>
      <point x="97" y="-172" type="curve" smooth="yes"/>
      <point x="26" y="-172"/>
      <point x="-10" y="-163"/>
      <point x="-53" y="-134" type="curve"/>
      <point x="-57" y="-134" type="line"/>
      <point x="-60" y="-142"/>
      <point x="-63" y="-152"/>
      <point x="-66" y="-161" type="curve" smooth="yes"/>
      <point x="-71" y="-183"/>
      <point x="-71" y="-203"/>
      <point x="-63" y="-215" type="curve" smooth="yes"/>
      <point x="-48" y="-235"/>
      <point x="1" y="-250"/>
      <point x="78" y="-250" type="curve" smooth="yes"/>
      <point x="235" y="-250"/>
      <point x="324" y="-172"/>
      <point x="367" y="-2" type="curve" smooth="yes"/>
      <point x="369" y="5"/>
      <point x="346" y="21"/>
      <point x="336" y="21" type="curve"/>
      <point x="270" y="-145"/>
      <point x="179" y="-172"/>
    </contour>
    <contour>
      <point x="545" y="653" type="curve"/>
      <point x="561" y="715" type="line" smooth="yes"/>
      <point x="570" y="747"/>
      <point x="545" y="758"/>
      <point x="503" y="758" type="curve" smooth="yes"/>
      <point x="488" y="758"/>
      <point x="472" y="757"/>
      <point x="457" y="754" type="curve"/>
      <point x="442" y="693" type="line" smooth="yes"/>
      <point x="434" y="661"/>
      <point x="459" y="649"/>
      <point x="499" y="649" type="curve" smooth="yes"/>
      <point x="514" y="649"/>
      <point x="532" y="651"/>
    </contour>
  </outline>
</glyph>
<glyph name="l" format="2">
  <advance width="600"/>
  <unicode hex="006C"/>
  <outline>
    <contour>
      <point x="186" y="750" type="curve"/>
      <point x="181" y="742"/>
      <point x="177" y="731"/>
      <point x="174" y="719" type="curve" smooth="yes"/>
      <point x="166" y="686"/>
      <point x="174" y="670"/>
      <point x="191" y="670" type="curve" smooth="yes"/>
      <point x="219" y="670"/>
      <point x="282" y="683"/>
      <point x="398" y="683" type="curve"/>
      <point x="410" y="730"/>
      <point x="416" y="760"/>
      <point x="388" y="760" type="curve"/>
      <point x="328" y="760"/>
      <point x="265" y="757"/>
    </contour>
    <contour>
      <point x="456" y="744" type="curve" smooth="yes"/>
      <point x="446" y="754"/>
      <point x="424" y="760"/>
      <point x="396" y="760" type="curve" smooth="yes"/>
      <point x="388" y="760" type="line"/>
      <point x="234" y="153" type="line" smooth="yes"/>
      <point x="212" y="64"/>
      <point x="278" y="6"/>
      <point x="329" y="29" type="curve"/>
      <point x="303" y="76"/>
      <point x="301" y="93"/>
      <point x="319" y="167" type="curve" smooth="yes"/>
      <point x="460" y="722" type="line" smooth="yes"/>
      <point x="463" y="733"/>
      <point x="462" y="738"/>
    </contour>
    <contour>
      <point x="510" y="109" type="curve"/>
      <point x="506" y="109" type="line"/>
      <point x="463" y="78"/>
      <point x="424" y="62"/>
      <point x="370" y="62" type="curve"/>
      <point x="302" y="62"/>
      <point x="263" y="87"/>
      <point x="284" y="190" type="curve"/>
      <point x="255" y="185"/>
      <point x="237" y="167"/>
      <point x="234" y="153" type="curve" smooth="yes"/>
      <point x="211" y="57"/>
      <point x="254" y="-17"/>
      <point x="361" y="-17" type="curve" smooth="yes"/>
      <point x="367" y="-17" type="line" smooth="yes"/>
      <point x="423" y="-17"/>
      <point x="457" y="-3"/>
      <point x="476" y="15" type="curve" smooth="yes"/>
      <point x="493" y="30"/>
      <point x="501" y="45"/>
      <point x="508" y="75" type="curve"/>
      <point x="510" y="88"/>
      <point x="511" y="98"/>
    </contour>
  </outline>
</glyph>
<glyph name="m" format="2">
  <advance width="600"/>
  <unicode hex="006D"/>
  <outline>
    <contour>
      <point x="54" y="-4" type="curve"/>
      <point x="168" y="443" type="line" smooth="yes"/>
      <point x="180" y="487"/>
      <point x="180" y="507"/>
      <point x="170" y="520" type="curve" smooth="yes"/>
      <point x="160" y="533"/>
      <point x="144" y="536"/>
      <point x="127" y="536" type="curve" smooth="yes"/>
      <point x="119" y="536"/>
      <point x="110" y="535"/>
      <point x="102" y="532" type="curve"/>
      <point x="103" y="503"/>
      <point x="101" y="484"/>
      <point x="90" y="439" type="curve" smooth="yes"/>
      <point x="-16" y="29" type="line" smooth="yes"/>
      <point x="-23" y="0"/>
      <point x="-5" y="-6"/>
      <point x="28" y="-6" type="curve" smooth="yes"/>
      <point x="38" y="-6"/>
      <point x="47" y="-5"/>
    </contour>
    <contour>
      <point x="308" y="540" type="curve" smooth="yes"/>
      <point x="254" y="540"/>
      <point x="191" y="488"/>
      <point x="138" y="388" type="curve" smooth="yes"/>
      <point x="121" y="357"/>
      <point x="121" y="333"/>
      <point x="125" y="308" type="curve"/>
      <point x="196" y="423"/>
      <point x="241" y="461"/>
      <point x="282" y="461" type="curve" smooth="yes"/>
      <point x="311" y="461"/>
      <point x="322" y="445"/>
      <point x="321" y="405" type="curve"/>
      <point x="356" y="408"/>
      <point x="368" y="415"/>
      <point x="372" y="430" type="curve" smooth="yes"/>
      <point x="385" y="483"/>
      <point x="365" y="540"/>
    </contour>
    <contour>
      <point x="261" y="0" type="curve"/>
      <point x="372" y="430" type="line" smooth="yes"/>
      <point x="381" y="465"/>
      <point x="370" y="477"/>
      <point x="335" y="473" type="curve"/>
      <point x="280" y="310"/>
      <point x="250" y="215"/>
      <point x="226" y="117" type="curve" smooth="yes"/>
      <point x="224" y="112" type="line" smooth="yes"/>
      <point x="201" y="19"/>
      <point x="214" y="-3"/>
      <point x="246" y="-3" type="curve" smooth="yes"/>
      <point x="252" y="-3"/>
      <point x="256" y="-2"/>
    </contour>
    <contour>
      <point x="525" y="541" type="curve" smooth="yes"/>
      <point x="467" y="541"/>
      <point x="393" y="485"/>
      <point x="343" y="394" type="curve" smooth="yes"/>
      <point x="321" y="354"/>
      <point x="318" y="337"/>
      <point x="332" y="315" type="curve"/>
      <point x="389" y="407"/>
      <point x="447" y="461"/>
      <point x="491" y="461" type="curve" smooth="yes"/>
      <point x="523" y="461"/>
      <point x="530" y="441"/>
      <point x="527" y="397" type="curve"/>
      <point x="576" y="400"/>
      <point x="589" y="409"/>
      <point x="592" y="424" type="curve" smooth="yes"/>
      <point x="606" y="479"/>
      <point x="579" y="541"/>
    </contour>
    <contour>
      <point x="497" y="0" type="curve"/>
      <point x="499" y="48"/>
      <point x="505" y="83"/>
      <point x="518" y="135" type="curve" smooth="yes"/>
      <point x="592" y="424" type="line" smooth="yes"/>
      <point x="600" y="454"/>
      <point x="582" y="472"/>
      <point x="540" y="472" type="curve"/>
      <point x="489" y="323"/>
      <point x="459" y="225"/>
      <point x="434" y="128" type="curve" smooth="yes"/>
      <point x="432" y="123" type="line" smooth="yes"/>
      <point x="405" y="17"/>
      <point x="426" y="-3"/>
      <point x="467" y="-3" type="curve" smooth="yes"/>
      <point x="480" y="-3"/>
      <point x="489" y="-2"/>
    </contour>
  </outline>
</glyph>
<glyph name="n" format="2">
  <advance width="600"/>
  <unicode hex="006E"/>
  <anchor x="435" y="711" name="caronslovak"/>
  <anchor x="369" y="541" name="top"/>
  <anchor x="234" y="-1" name="bottom"/>
  <outline>
    <contour>
      <point x="103" y="-4" type="curve"/>
      <point x="212" y="418" type="line" smooth="yes"/>
      <point x="225" y="468"/>
      <point x="224" y="500"/>
      <point x="212" y="517" type="curve" smooth="yes"/>
      <point x="203" y="530"/>
      <point x="189" y="535"/>
      <point x="170" y="535" type="curve" smooth="yes"/>
      <point x="162" y="535"/>
      <point x="153" y="534"/>
      <point x="145" y="532" type="curve"/>
      <point x="146" y="502"/>
      <point x="143" y="479"/>
      <point x="132" y="434" type="curve" smooth="yes"/>
      <point x="28" y="29" type="line" smooth="yes"/>
      <point x="20" y="0"/>
      <point x="45" y="-6"/>
      <point x="78" y="-6" type="curve" smooth="yes"/>
      <point x="87" y="-6"/>
      <point x="96" y="-6"/>
    </contour>
    <contour>
      <point x="443" y="541" type="curve" smooth="yes"/>
      <point x="358" y="541"/>
      <point x="253" y="450"/>
      <point x="178" y="332" type="curve" smooth="yes"/>
      <point x="150" y="283"/>
      <point x="137" y="232"/>
      <point x="143" y="186" type="curve"/>
      <point x="231" y="352"/>
      <point x="336" y="457"/>
      <point x="419" y="457" type="curve" smooth="yes"/>
      <point x="463" y="457"/>
      <point x="481" y="427"/>
      <point x="475" y="362" type="curve"/>
      <point x="518" y="363"/>
      <point x="536" y="377"/>
      <point x="540" y="394" type="curve" smooth="yes"/>
      <point x="558" y="460"/>
      <point x="525" y="541"/>
    </contour>
    <contour>
      <point x="453" y="-1" type="curve"/>
      <point x="454" y="47"/>
      <point x="460" y="82"/>
      <point x="473" y="133" type="curve" smooth="yes"/>
      <point x="540" y="394" type="line"/>
      <point x="548" y="423"/>
      <point x="536" y="440"/>
      <point x="485" y="439" type="curve"/>
      <point x="434" y="299"/>
      <point x="407" y="234"/>
      <point x="384" y="140" type="curve" smooth="yes"/>
      <point x="381" y="130" type="line" smooth="yes"/>
      <point x="354" y="25"/>
      <point x="380" y="-4"/>
      <point x="426" y="-4" type="curve" smooth="yes"/>
      <point x="436" y="-4"/>
      <point x="445" y="-3"/>
    </contour>
  </outline>
</glyph>
<glyph name="o" format="2">
  <advance width="600"/>
  <unicode hex="006F"/>
  <anchor x="369" y="541" name="top"/>
  <anchor x="308" y="-1" name="ogonek"/>
  <anchor x="233" y="-1" name="bottom"/>
  <outline>
    <contour>
      <point x="366" y="541" type="curve" smooth="yes"/>
      <point x="228" y="541"/>
      <point x="111" y="437"/>
      <point x="66" y="259" type="curve" smooth="yes"/>
      <point x="62" y="243" type="line" smooth="yes"/>
      <point x="21" y="90"/>
      <point x="105" y="-11"/>
      <point x="253" y="-11" type="curve" smooth="yes"/>
      <point x="277" y="-11"/>
      <point x="300" y="13"/>
      <point x="305" y="33" type="curve"/>
      <point x="150" y="33"/>
      <point x="110" y="120"/>
      <point x="141" y="238" type="curve" smooth="yes"/>
      <point x="145" y="254" type="line" smooth="yes"/>
      <point x="180" y="388"/>
      <point x="265" y="466"/>
      <point x="357" y="466" type="curve" smooth="yes"/>
      <point x="406" y="466"/>
      <point x="443" y="447"/>
      <point x="471" y="417" type="curve"/>
      <point x="512" y="461"/>
      <point x="439" y="541"/>
    </contour>
    <contour>
      <point x="253" y="-11" type="curve" smooth="yes"/>
      <point x="392" y="-11"/>
      <point x="483" y="61"/>
      <point x="522" y="209" type="curve" smooth="yes"/>
      <point x="526" y="226" type="line" smooth="yes"/>
      <point x="571" y="398"/>
      <point x="497" y="541"/>
      <point x="366" y="541" type="curve" smooth="yes"/>
      <point x="344" y="541"/>
      <point x="323" y="523"/>
      <point x="318" y="498" type="curve"/>
      <point x="440" y="494"/>
      <point x="487" y="391"/>
      <point x="448" y="235" type="curve" smooth="yes"/>
      <point x="445" y="222" type="line" smooth="yes"/>
      <point x="419" y="121"/>
      <point x="361" y="65"/>
      <point x="257" y="65" type="curve" smooth="yes"/>
      <point x="203" y="65"/>
      <point x="161" y="81"/>
      <point x="127" y="110" type="curve"/>
      <point x="93" y="67"/>
      <point x="148" y="-11"/>
    </contour>
  </outline>
</glyph>
<glyph name="p" format="2">
  <advance width="600"/>
  <unicode hex="0070"/>
  <outline>
    <contour>
      <point x="53" y="-214" type="curve"/>
      <point x="214" y="418" type="line" smooth="yes"/>
      <point x="228" y="471"/>
      <point x="233" y="501"/>
      <point x="221" y="518" type="curve" smooth="yes"/>
      <point x="210" y="532"/>
      <point x="192" y="536"/>
      <point x="176" y="536" type="curve"/>
      <point x="168" y="536"/>
      <point x="159" y="535"/>
      <point x="151" y="532" type="curve"/>
      <point x="152" y="503"/>
      <point x="150" y="484"/>
      <point x="139" y="439" type="curve" smooth="yes"/>
      <point x="-21" y="-182" type="line" smooth="yes"/>
      <point x="-28" y="-211"/>
      <point x="-6" y="-217"/>
      <point x="24" y="-217" type="curve"/>
      <point x="35" y="-217"/>
      <point x="45" y="-216"/>
    </contour>
    <contour>
      <point x="440" y="541" type="curve" smooth="yes"/>
      <point x="348" y="541"/>
      <point x="245" y="461"/>
      <point x="185" y="353" type="curve" smooth="yes"/>
      <point x="163" y="314"/>
      <point x="155" y="267"/>
      <point x="160" y="238" type="curve"/>
      <point x="264" y="407"/>
      <point x="349" y="459"/>
      <point x="421" y="459" type="curve" smooth="yes"/>
      <point x="477" y="459"/>
      <point x="503" y="412"/>
      <point x="505" y="320" type="curve"/>
      <point x="538" y="317"/>
      <point x="550" y="326"/>
      <point x="552" y="335" type="curve" smooth="yes"/>
      <point x="584" y="460"/>
      <point x="539" y="541"/>
    </contour>
    <contour>
      <point x="253" y="-11" type="curve" smooth="yes"/>
      <point x="377" y="-11"/>
      <point x="486" y="75"/>
      <point x="547" y="314" type="curve" smooth="yes"/>
      <point x="552" y="335" type="line" smooth="yes"/>
      <point x="566" y="388"/>
      <point x="551" y="473"/>
      <point x="504" y="473" type="curve" smooth="yes"/>
      <point x="491" y="473"/>
      <point x="479" y="466"/>
      <point x="473" y="450" type="curve"/>
      <point x="482" y="408"/>
      <point x="479" y="372"/>
      <point x="465" y="320" type="curve" smooth="yes"/>
      <point x="461" y="303" type="line" smooth="yes"/>
      <point x="422" y="145"/>
      <point x="353" y="66"/>
      <point x="254" y="66" type="curve" smooth="yes"/>
      <point x="192" y="66"/>
      <point x="160" y="90"/>
      <point x="133" y="146" type="curve"/>
      <point x="122" y="137"/>
      <point x="112" y="113"/>
      <point x="115" y="98" type="curve" smooth="yes"/>
      <point x="111" y="53"/>
      <point x="170" y="-11"/>
    </contour>
  </outline>
</glyph>
<glyph name="q" format="2">
  <advance width="600"/>
  <unicode hex="0071"/>
  <outline>
    <contour>
      <point x="341" y="541" type="curve" smooth="yes"/>
      <point x="207" y="541"/>
      <point x="109" y="456"/>
      <point x="53" y="222" type="curve" smooth="yes"/>
      <point x="48" y="200" type="line" smooth="yes"/>
      <point x="35" y="147"/>
      <point x="45" y="61"/>
      <point x="91" y="61" type="curve" smooth="yes"/>
      <point x="105" y="61"/>
      <point x="117" y="67"/>
      <point x="122" y="78" type="curve"/>
      <point x="116" y="125"/>
      <point x="119" y="157"/>
      <point x="133" y="211" type="curve" smooth="yes"/>
      <point x="138" y="228" type="line" smooth="yes"/>
      <point x="176" y="383"/>
      <point x="246" y="465"/>
      <point x="344" y="465" type="curve" smooth="yes"/>
      <point x="407" y="465"/>
      <point x="439" y="442"/>
      <point x="466" y="386" type="curve"/>
      <point x="477" y="395"/>
      <point x="486" y="415"/>
      <point x="483" y="429" type="curve" smooth="yes"/>
      <point x="487" y="475"/>
      <point x="425" y="541"/>
    </contour>
    <contour>
      <point x="160" y="-11" type="curve" smooth="yes"/>
      <point x="249" y="-11"/>
      <point x="353" y="69"/>
      <point x="414" y="177" type="curve" smooth="yes"/>
      <point x="436" y="216"/>
      <point x="444" y="264"/>
      <point x="438" y="292" type="curve"/>
      <point x="336" y="122"/>
      <point x="250" y="71"/>
      <point x="179" y="71" type="curve" smooth="yes"/>
      <point x="121" y="71"/>
      <point x="90" y="117"/>
      <point x="94" y="214" type="curve"/>
      <point x="62" y="212"/>
      <point x="50" y="208"/>
      <point x="48" y="200" type="curve" smooth="yes"/>
      <point x="17" y="78"/>
      <point x="61" y="-11"/>
    </contour>
    <contour>
      <point x="382" y="-214" type="curve"/>
      <point x="549" y="439" type="line" smooth="yes"/>
      <point x="561" y="484"/>
      <point x="568" y="502"/>
      <point x="584" y="532" type="curve"/>
      <point x="578" y="534"/>
      <point x="569" y="535"/>
      <point x="562" y="535" type="curve" smooth="yes"/>
      <point x="545" y="535"/>
      <point x="524" y="532"/>
      <point x="507" y="518" type="curve" smooth="yes"/>
      <point x="487" y="502"/>
      <point x="476" y="472"/>
      <point x="463" y="423" type="curve" smooth="yes"/>
      <point x="309" y="-178" type="line" smooth="yes"/>
      <point x="301" y="-209"/>
      <point x="323" y="-217"/>
      <point x="353" y="-217" type="curve" smooth="yes"/>
      <point x="364" y="-217"/>
      <point x="373" y="-216"/>
    </contour>
  </outline>
</glyph>
<glyph name="r" format="2">
  <advance width="600"/>
  <unicode hex="0072"/>
  <outline>
    <contour>
      <point x="129" y="530" type="curve"/>
      <point x="122" y="518"/>
      <point x="119" y="508"/>
      <point x="116" y="495" type="curve" smooth="yes"/>
      <point x="108" y="466"/>
      <point x="116" y="452"/>
      <point x="134" y="452" type="curve" smooth="yes"/>
      <point x="159" y="452"/>
      <point x="197" y="466"/>
      <point x="296" y="466" type="curve"/>
      <point x="311" y="522"/>
      <point x="307" y="540"/>
      <point x="286" y="540" type="curve" smooth="yes"/>
      <point x="228" y="540"/>
      <point x="187" y="537"/>
    </contour>
    <contour>
      <point x="226" y="-1" type="curve"/>
      <point x="225" y="35"/>
      <point x="229" y="61"/>
      <point x="241" y="109" type="curve" smooth="yes"/>
      <point x="328" y="450" type="line" smooth="yes"/>
      <point x="342" y="504"/>
      <point x="324" y="540"/>
      <point x="286" y="540" type="curve" smooth="yes"/>
      <point x="280" y="540"/>
      <point x="274" y="539"/>
      <point x="268" y="535" type="curve"/>
      <point x="147" y="61" type="line" smooth="yes"/>
      <point x="133" y="7"/>
      <point x="155" y="-6"/>
      <point x="192" y="-6" type="curve" smooth="yes"/>
      <point x="204" y="-6"/>
      <point x="215" y="-5"/>
    </contour>
    <contour>
      <point x="257" y="201" type="curve"/>
      <point x="349" y="378"/>
      <point x="445" y="457"/>
      <point x="520" y="457" type="curve" smooth="yes"/>
      <point x="552" y="457"/>
      <point x="569" y="452"/>
      <point x="586" y="440" type="curve"/>
      <point x="590" y="440" type="line"/>
      <point x="597" y="454"/>
      <point x="604" y="468"/>
      <point x="609" y="486" type="curve"/>
      <point x="620" y="526"/>
      <point x="600" y="546"/>
      <point x="551" y="546" type="curve" smooth="yes"/>
      <point x="548" y="546" type="line" smooth="yes"/>
      <point x="458" y="546"/>
      <point x="348" y="462"/>
      <point x="280" y="326" type="curve" smooth="yes"/>
      <point x="260" y="287"/>
      <point x="252" y="250"/>
    </contour>
  </outline>
</glyph>
<glyph name="s" format="2">
  <advance width="600"/>
  <unicode hex="0073"/>
  <anchor x="384" y="541" name="top"/>
  <anchor x="247" y="-1" name="bottom"/>
  <outline>
    <contour>
      <point x="430" y="543" type="curve" smooth="yes"/>
      <point x="424" y="543" type="line" smooth="yes"/>
      <point x="284" y="543"/>
      <point x="157" y="484"/>
      <point x="131" y="381" type="curve" smooth="yes"/>
      <point x="121" y="342"/>
      <point x="167" y="314"/>
      <point x="204" y="314" type="curve"/>
      <point x="201" y="337"/>
      <point x="205" y="356"/>
      <point x="210" y="376" type="curve" smooth="yes"/>
      <point x="223" y="427"/>
      <point x="310" y="463"/>
      <point x="410" y="463" type="curve" smooth="yes"/>
      <point x="461" y="463"/>
      <point x="499" y="454"/>
      <point x="533" y="437" type="curve"/>
      <point x="537" y="437" type="line"/>
      <point x="541" y="445"/>
      <point x="544" y="452"/>
      <point x="546" y="461" type="curve"/>
      <point x="553" y="488"/>
      <point x="552" y="505"/>
      <point x="541" y="520" type="curve" smooth="yes"/>
      <point x="532" y="533"/>
      <point x="491" y="543"/>
    </contour>
    <contour>
      <point x="376" y="282" type="curve" smooth="yes"/>
      <point x="290" y="299" type="line" smooth="yes"/>
      <point x="208" y="316"/>
      <point x="202" y="346"/>
      <point x="210" y="376" type="curve" smooth="yes"/>
      <point x="213" y="387"/>
      <point x="219" y="407"/>
      <point x="233" y="430" type="curve"/>
      <point x="174" y="417"/>
      <point x="138" y="407"/>
      <point x="131" y="381" type="curve"/>
      <point x="114" y="317"/>
      <point x="145" y="262"/>
      <point x="246" y="240" type="curve" smooth="yes"/>
      <point x="338" y="220" type="line" smooth="yes"/>
      <point x="413" y="204"/>
      <point x="422" y="172"/>
      <point x="410" y="121" type="curve" smooth="yes"/>
      <point x="407" y="109"/>
      <point x="402" y="99"/>
      <point x="396" y="92" type="curve"/>
      <point x="447" y="96"/>
      <point x="482" y="117"/>
      <point x="488" y="137" type="curve" smooth="yes"/>
      <point x="505" y="204"/>
      <point x="470" y="264"/>
    </contour>
    <contour>
      <point x="250" y="68" type="curve" smooth="yes"/>
      <point x="143" y="68"/>
      <point x="101" y="81"/>
      <point x="48" y="126" type="curve"/>
      <point x="44" y="126" type="line"/>
      <point x="40" y="119"/>
      <point x="37" y="111"/>
      <point x="33" y="98" type="curve" smooth="yes"/>
      <point x="26" y="69"/>
      <point x="30" y="51"/>
      <point x="39" y="38" type="curve" smooth="yes"/>
      <point x="56" y="15"/>
      <point x="123" y="-11"/>
      <point x="217" y="-11" type="curve" smooth="yes"/>
      <point x="227" y="-11" type="line" smooth="yes"/>
      <point x="370" y="-11"/>
      <point x="462" y="34"/>
      <point x="488" y="137" type="curve" smooth="yes"/>
      <point x="495" y="165"/>
      <point x="472" y="178"/>
      <point x="443" y="182" type="curve"/>
      <point x="441" y="171"/>
      <point x="439" y="164"/>
      <point x="438" y="158" type="curve" smooth="yes"/>
      <point x="425" y="108"/>
      <point x="364" y="68"/>
    </contour>
  </outline>
</glyph>
<glyph name="t" format="2">
  <advance width="600"/>
  <unicode hex="0074"/>
  <anchor x="554" y="700" name="caronslovak"/>
  <anchor x="295" y="-1" name="bottom"/>
  <outline>
    <contour>
      <point x="301" y="700" type="curve"/>
      <point x="164" y="156" type="line" smooth="yes"/>
      <point x="144" y="76"/>
      <point x="196" y="13"/>
      <point x="261" y="26" type="curve"/>
      <point x="234" y="74"/>
      <point x="234" y="106"/>
      <point x="250" y="172" type="curve" smooth="yes"/>
      <point x="374" y="669" type="line" smooth="yes"/>
      <point x="381" y="697"/>
      <point x="358" y="704"/>
      <point x="330" y="704" type="curve" smooth="yes"/>
      <point x="320" y="704"/>
      <point x="310" y="703"/>
    </contour>
    <contour>
      <point x="494" y="128" type="curve"/>
      <point x="490" y="128" type="line"/>
      <point x="439" y="85"/>
      <point x="387" y="62"/>
      <point x="320" y="62" type="curve" smooth="yes"/>
      <point x="256" y="62"/>
      <point x="209" y="90"/>
      <point x="206" y="182" type="curve"/>
      <point x="181" y="180"/>
      <point x="168" y="170"/>
      <point x="164" y="156" type="curve" smooth="yes"/>
      <point x="140" y="55"/>
      <point x="191" y="-17"/>
      <point x="309" y="-17" type="curve" smooth="yes"/>
      <point x="316" y="-17" type="line" smooth="yes"/>
      <point x="377" y="-17"/>
      <point x="428" y="1"/>
      <point x="456" y="25" type="curve" smooth="yes"/>
      <point x="473" y="41"/>
      <point x="484" y="62"/>
      <point x="492" y="93" type="curve" smooth="yes"/>
      <point x="494" y="103"/>
      <point x="495" y="115"/>
    </contour>
    <contour>
      <point x="131" y="530" type="line"/>
      <point x="130" y="526"/>
      <point x="128" y="522"/>
      <point x="127" y="517" type="curve" smooth="yes"/>
      <point x="121" y="491"/>
      <point x="122" y="474"/>
      <point x="130" y="464" type="curve" smooth="yes"/>
      <point x="138" y="454"/>
      <point x="151" y="450"/>
      <point x="183" y="450" type="curve" smooth="yes"/>
      <point x="577" y="450" type="line"/>
      <point x="580" y="459"/>
      <point x="584" y="468"/>
      <point x="586" y="478" type="curve" smooth="yes"/>
      <point x="595" y="514"/>
      <point x="588" y="530"/>
      <point x="558" y="530" type="curve" smooth="yes"/>
    </contour>
  </outline>
</glyph>
<glyph name="u" format="2">
  <advance width="600"/>
  <unicode hex="0075"/>
  <anchor x="369" y="541" name="top"/>
  <anchor x="456" y="-1" name="ogonek"/>
  <anchor x="234" y="-1" name="bottom"/>
  <outline>
    <contour>
      <point x="495" y="535" type="curve"/>
      <point x="386" y="113" type="line" smooth="yes"/>
      <point x="373" y="63"/>
      <point x="374" y="31"/>
      <point x="386" y="14" type="curve" smooth="yes"/>
      <point x="396" y="0"/>
      <point x="409" y="-5"/>
      <point x="428" y="-5" type="curve" smooth="yes"/>
      <point x="436" y="-5"/>
      <point x="445" y="-4"/>
      <point x="453" y="-2" type="curve"/>
      <point x="452" y="28"/>
      <point x="454" y="47"/>
      <point x="466" y="91" type="curve" smooth="yes"/>
      <point x="570" y="501" type="line" smooth="yes"/>
      <point x="578" y="531"/>
      <point x="553" y="537"/>
      <point x="520" y="537" type="curve" smooth="yes"/>
      <point x="511" y="537"/>
      <point x="502" y="536"/>
    </contour>
    <contour>
      <point x="155" y="-10" type="curve" smooth="yes"/>
      <point x="240" y="-10"/>
      <point x="346" y="80"/>
      <point x="421" y="197" type="curve" smooth="yes"/>
      <point x="449" y="247"/>
      <point x="461" y="298"/>
      <point x="456" y="345" type="curve"/>
      <point x="367" y="178"/>
      <point x="262" y="73"/>
      <point x="180" y="73" type="curve" smooth="yes"/>
      <point x="135" y="73"/>
      <point x="117" y="103"/>
      <point x="123" y="169" type="curve"/>
      <point x="80" y="167"/>
      <point x="61" y="151"/>
      <point x="57" y="133" type="curve" smooth="yes"/>
      <point x="39" y="67"/>
      <point x="74" y="-10"/>
    </contour>
    <contour>
      <point x="145" y="531" type="curve"/>
      <point x="144" y="483"/>
      <point x="138" y="449"/>
      <point x="125" y="396" type="curve" smooth="yes"/>
      <point x="57" y="133" type="line"/>
      <point x="49" y="104"/>
      <point x="62" y="90"/>
      <point x="113" y="91" type="curve"/>
      <point x="164" y="231"/>
      <point x="189" y="300"/>
      <point x="213" y="394" type="curve" smooth="yes"/>
      <point x="216" y="402" type="line" smooth="yes"/>
      <point x="243" y="508"/>
      <point x="218" y="535"/>
      <point x="172" y="535" type="curve" smooth="yes"/>
      <point x="162" y="535"/>
      <point x="154" y="533"/>
    </contour>
  </outline>
</glyph>
<glyph name="v" format="2">
  <advance width="600"/>
  <unicode hex="0076"/>
  <outline>
    <contour>
      <point x="528" y="537" type="curve" smooth="yes"/>
      <point x="514" y="537" type="line"/>
      <point x="421" y="248"/>
      <point x="355" y="143"/>
      <point x="215" y="52" type="curve"/>
      <point x="193" y="37"/>
      <point x="204" y="-10"/>
      <point x="233" y="-10" type="curve"/>
      <point x="265" y="-10" type="line"/>
      <point x="405" y="83"/>
      <point x="496" y="220"/>
      <point x="586" y="494" type="curve"/>
      <point x="594" y="518"/>
      <point x="566" y="537"/>
    </contour>
    <contour>
      <point x="150" y="537" type="curve" smooth="yes"/>
      <point x="135" y="537" type="line"/>
      <point x="89" y="268"/>
      <point x="99" y="120"/>
      <point x="172" y="21" type="curve"/>
      <point x="190" y="-3"/>
      <point x="208" y="-10"/>
      <point x="230" y="-10" type="curve" smooth="yes"/>
      <point x="237" y="-10" type="line" smooth="yes"/>
      <point x="262" y="-10"/>
      <point x="278" y="6"/>
      <point x="298" y="34" type="curve"/>
      <point x="289" y="34"/>
      <point x="283" y="34"/>
      <point x="279" y="34" type="curve" smooth="yes"/>
      <point x="273" y="34"/>
      <point x="266" y="37"/>
      <point x="261" y="42" type="curve"/>
      <point x="180" y="136"/>
      <point x="174" y="262"/>
      <point x="214" y="504" type="curve"/>
      <point x="219" y="526"/>
      <point x="188" y="537"/>
    </contour>
  </outline>
</glyph>
<glyph name="w" format="2">
  <advance width="600"/>
  <unicode hex="0077"/>
  <anchor x="368" y="541" name="top"/>
  <outline>
    <contour>
      <point x="125" y="539" type="curve"/>
      <point x="38" y="213"/>
      <point x="36" y="88"/>
      <point x="86" y="9" type="curve" smooth="yes"/>
      <point x="94" y="-4"/>
      <point x="106" y="-10"/>
      <point x="119" y="-10" type="curve" smooth="yes"/>
      <point x="126" y="-10" type="line" smooth="yes"/>
      <point x="135" y="-10"/>
      <point x="147" y="20"/>
      <point x="151" y="39" type="curve" smooth="yes"/>
      <point x="108" y="105"/>
      <point x="111" y="193"/>
      <point x="193" y="512" type="curve"/>
      <point x="194" y="517"/>
      <point x="194" y="521"/>
      <point x="190" y="525" type="curve" smooth="yes"/>
      <point x="184" y="535"/>
      <point x="165" y="540"/>
      <point x="143" y="540" type="curve"/>
      <point x="136" y="540"/>
      <point x="130" y="540"/>
    </contour>
    <contour>
      <point x="329" y="442" type="curve" smooth="yes"/>
      <point x="314" y="442" type="line"/>
      <point x="260" y="230"/>
      <point x="199" y="131"/>
      <point x="101" y="29" type="curve"/>
      <point x="100" y="7"/>
      <point x="107" y="-10"/>
      <point x="121" y="-10" type="curve"/>
      <point x="140" y="-10" type="line"/>
      <point x="230" y="78"/>
      <point x="309" y="226"/>
      <point x="353" y="403" type="curve" smooth="yes"/>
      <point x="360" y="430"/>
      <point x="352" y="442"/>
    </contour>
    <contour>
      <point x="329" y="442" type="curve" smooth="yes"/>
      <point x="324" y="442" type="line"/>
      <point x="279" y="266"/>
      <point x="267" y="98"/>
      <point x="319" y="3" type="curve" smooth="yes"/>
      <point x="323" y="-5"/>
      <point x="331" y="-10"/>
      <point x="342" y="-10" type="curve" smooth="yes"/>
      <point x="355" y="-10" type="line" smooth="yes"/>
      <point x="366" y="-10"/>
      <point x="370" y="4"/>
      <point x="376" y="29" type="curve" smooth="yes"/>
      <point x="328" y="94"/>
      <point x="322" y="238"/>
      <point x="366" y="415" type="curve" smooth="yes"/>
      <point x="370" y="429"/>
      <point x="362" y="442"/>
    </contour>
    <contour>
      <point x="534" y="539" type="curve"/>
      <point x="458" y="215"/>
      <point x="423" y="142"/>
      <point x="337" y="47" type="curve"/>
      <point x="334" y="11"/>
      <point x="336" y="-10"/>
      <point x="349" y="-10" type="curve"/>
      <point x="367" y="-10" type="line"/>
      <point x="475" y="93"/>
      <point x="526" y="194"/>
      <point x="604" y="506" type="curve"/>
      <point x="606" y="516"/>
      <point x="605" y="521"/>
      <point x="602" y="525" type="curve" smooth="yes"/>
      <point x="592" y="537"/>
      <point x="570" y="540"/>
      <point x="552" y="540" type="curve"/>
      <point x="547" y="540"/>
      <point x="540" y="540"/>
    </contour>
  </outline>
</glyph>
<glyph name="z" format="2">
  <advance width="600"/>
  <unicode hex="007A"/>
  <anchor x="369" y="541" name="top"/>
  <outline>
    <contour>
      <point x="146" y="530" type="line"/>
      <point x="143" y="525"/>
      <point x="141" y="518"/>
      <point x="139" y="511" type="curve" smooth="yes"/>
      <point x="133" y="486"/>
      <point x="135" y="472"/>
      <point x="143" y="461" type="curve" smooth="yes"/>
      <point x="147" y="455"/>
      <point x="152" y="452"/>
      <point x="162" y="452" type="curve" smooth="yes"/>
      <point x="430" y="452" type="line" smooth="yes"/>
      <point x="471" y="452"/>
      <point x="530" y="455"/>
      <point x="572" y="464" type="curve"/>
      <point x="573" y="468" type="line" smooth="yes"/>
      <point x="579" y="492"/>
      <point x="574" y="508"/>
      <point x="564" y="522" type="curve" smooth="yes"/>
      <point x="559" y="528"/>
      <point x="553" y="530"/>
      <point x="543" y="530" type="curve" smooth="yes"/>
    </contour>
    <contour>
      <point x="500" y="492" type="curve"/>
      <point x="395" y="349"/>
      <point x="218" y="187"/>
      <point x="30" y="70" type="curve"/>
      <point x="21" y="41"/>
      <point x="82" y="35"/>
      <point x="120" y="54" type="curve" smooth="yes"/>
      <point x="326" y="179"/>
      <point x="562" y="426"/>
      <point x="572" y="464" type="curve"/>
      <point x="577" y="486"/>
      <point x="549" y="492"/>
    </contour>
    <contour>
      <point x="451" y="0" type="line"/>
      <point x="454" y="7"/>
      <point x="458" y="17"/>
      <point x="460" y="27" type="curve"/>
      <point x="469" y="63"/>
      <point x="464" y="78"/>
      <point x="434" y="78" type="curve" smooth="yes"/>
      <point x="183" y="78" type="line" smooth="yes"/>
      <point x="133" y="78"/>
      <point x="78" y="76"/>
      <point x="30" y="70" type="curve"/>
      <point x="28" y="64" type="line" smooth="yes"/>
      <point x="20" y="37"/>
      <point x="23" y="20"/>
      <point x="32" y="7" type="curve" smooth="yes"/>
      <point x="35" y="2"/>
      <point x="40" y="0"/>
      <point x="47" y="0" type="curve" smooth="yes"/>
    </contour>
  </outline>
</glyph>
<glyph name="braceleft" format="2">
  <advance width="600"/>
  <unicode hex="007B"/>
  <outline>
    <contour>
      <point x="551" y="689" type="curve" smooth="yes"/>
      <point x="576" y="689"/>
      <point x="593" y="687"/>
      <point x="611" y="681" type="curve"/>
      <point x="615" y="681" type="line"/>
      <point x="619" y="690"/>
      <point x="622" y="697"/>
      <point x="625" y="709" type="curve"/>
      <point x="633" y="742"/>
      <point x="620" y="770"/>
      <point x="582" y="770" type="curve" smooth="yes"/>
      <point x="578" y="770" type="line" smooth="yes"/>
      <point x="454" y="770"/>
      <point x="354" y="730"/>
      <point x="335" y="655" type="curve" smooth="yes"/>
      <point x="334" y="651" type="line" smooth="yes"/>
      <point x="330" y="633"/>
      <point x="348" y="613"/>
      <point x="372" y="612" type="curve"/>
      <point x="407" y="671"/>
      <point x="470" y="689"/>
    </contour>
    <contour>
      <point x="415" y="458" type="curve" smooth="yes"/>
      <point x="438" y="549"/>
      <point x="392" y="611"/>
      <point x="402" y="649" type="curve" smooth="yes"/>
      <point x="406" y="667"/>
      <point x="414" y="680"/>
      <point x="429" y="697" type="curve"/>
      <point x="390" y="703"/>
      <point x="346" y="696"/>
      <point x="335" y="654" type="curve" smooth="yes"/>
      <point x="334" y="650" type="line" smooth="yes"/>
      <point x="320" y="593"/>
      <point x="358" y="545"/>
      <point x="338" y="464" type="curve" smooth="yes"/>
      <point x="320" y="391"/>
      <point x="256" y="338"/>
      <point x="138" y="338" type="curve" smooth="yes"/>
      <point x="132" y="338" type="line"/>
      <point x="130" y="327" type="line" smooth="yes"/>
      <point x="124" y="303"/>
      <point x="126" y="285"/>
      <point x="144" y="285" type="curve" smooth="yes"/>
      <point x="156" y="285" type="line" smooth="yes"/>
      <point x="277" y="285"/>
      <point x="387" y="346"/>
    </contour>
    <contour>
      <point x="335" y="140" type="curve" smooth="yes"/>
      <point x="364" y="255"/>
      <point x="287" y="315"/>
      <point x="164" y="315" type="curve" smooth="yes"/>
      <point x="144" y="315"/>
      <point x="138" y="324"/>
      <point x="130" y="330" type="curve"/>
      <point x="128" y="322" type="line" smooth="yes"/>
      <point x="120" y="289"/>
      <point x="124" y="261"/>
      <point x="147" y="261" type="curve" smooth="yes"/>
      <point x="149" y="261" type="line" smooth="yes"/>
      <point x="236" y="261"/>
      <point x="273" y="206"/>
      <point x="255" y="134" type="curve" smooth="yes"/>
      <point x="235" y="53"/>
      <point x="172" y="1"/>
      <point x="158" y="-56" type="curve" smooth="yes"/>
      <point x="157" y="-59" type="line" smooth="yes"/>
      <point x="145" y="-107"/>
      <point x="191" y="-112"/>
      <point x="231" y="-107" type="curve"/>
      <point x="221" y="-88"/>
      <point x="221" y="-73"/>
      <point x="226" y="-52" type="curve" smooth="yes"/>
      <point x="236" y="-14"/>
      <point x="313" y="50"/>
    </contour>
    <contour>
      <point x="353" y="-90" type="curve" smooth="yes"/>
      <point x="256" y="-90"/>
      <point x="215" y="-74"/>
      <point x="211" y="-11" type="curve"/>
      <point x="185" y="-15"/>
      <point x="162" y="-38"/>
      <point x="157" y="-57" type="curve" smooth="yes"/>
      <point x="157" y="-60" type="line" smooth="yes"/>
      <point x="136" y="-141"/>
      <point x="212" y="-172"/>
      <point x="346" y="-172" type="curve" smooth="yes"/>
      <point x="352" y="-172" type="line" smooth="yes"/>
      <point x="387" y="-172"/>
      <point x="412" y="-139"/>
      <point x="425" y="-89" type="curve"/>
      <point x="427" y="-81" type="line"/>
      <point x="423" y="-81" type="line"/>
      <point x="399" y="-87"/>
      <point x="381" y="-90"/>
    </contour>
  </outline>
</glyph>
<glyph name="bar" format="2">
  <advance width="600"/>
  <unicode hex="007C"/>
  <outline>
    <contour>
      <point x="373" y="759" type="curve"/>
      <point x="371" y="724"/>
      <point x="364" y="688"/>
      <point x="354" y="650" type="curve" smooth="yes"/>
      <point x="160" y="-124" type="line" smooth="yes"/>
      <point x="154" y="-151"/>
      <point x="176" y="-161"/>
      <point x="217" y="-161" type="curve" smooth="yes"/>
      <point x="224" y="-161"/>
      <point x="231" y="-161"/>
      <point x="236" y="-160" type="curve"/>
      <point x="451" y="700" type="line" smooth="yes"/>
      <point x="457" y="723"/>
      <point x="458" y="740"/>
      <point x="449" y="751" type="curve" smooth="yes"/>
      <point x="443" y="760"/>
      <point x="431" y="764"/>
      <point x="406" y="764" type="curve" smooth="yes"/>
      <point x="394" y="764"/>
      <point x="385" y="762"/>
    </contour>
  </outline>
</glyph>
<glyph name="braceright" format="2">
  <advance width="600"/>
  <unicode hex="007D"/>
  <outline>
    <contour>
      <point x="66" y="-91" type="curve" smooth="yes"/>
      <point x="41" y="-91"/>
      <point x="23" y="-89"/>
      <point x="6" y="-83" type="curve"/>
      <point x="2" y="-83" type="line"/>
      <point x="-2" y="-92"/>
      <point x="-5" y="-99"/>
      <point x="-8" y="-111" type="curve"/>
      <point x="-16" y="-144"/>
      <point x="-3" y="-172"/>
      <point x="34" y="-172" type="curve" smooth="yes"/>
      <point x="39" y="-172" type="line" smooth="yes"/>
      <point x="162" y="-172"/>
      <point x="263" y="-132"/>
      <point x="282" y="-57" type="curve" smooth="yes"/>
      <point x="283" y="-53" type="line" smooth="yes"/>
      <point x="287" y="-35"/>
      <point x="269" y="-15"/>
      <point x="245" y="-14" type="curve"/>
      <point x="210" y="-73"/>
      <point x="147" y="-91"/>
    </contour>
    <contour>
      <point x="202" y="140" type="curve" smooth="yes"/>
      <point x="179" y="49"/>
      <point x="225" y="-13"/>
      <point x="215" y="-51" type="curve" smooth="yes"/>
      <point x="211" y="-69"/>
      <point x="203" y="-82"/>
      <point x="188" y="-99" type="curve"/>
      <point x="227" y="-105"/>
      <point x="271" y="-98"/>
      <point x="282" y="-56" type="curve" smooth="yes"/>
      <point x="283" y="-52" type="line" smooth="yes"/>
      <point x="297" y="5"/>
      <point x="259" y="53"/>
      <point x="279" y="134" type="curve" smooth="yes"/>
      <point x="297" y="207"/>
      <point x="361" y="260"/>
      <point x="479" y="260" type="curve" smooth="yes"/>
      <point x="485" y="260" type="line"/>
      <point x="487" y="271" type="line" smooth="yes"/>
      <point x="493" y="295"/>
      <point x="491" y="313"/>
      <point x="473" y="313" type="curve" smooth="yes"/>
      <point x="461" y="313" type="line" smooth="yes"/>
      <point x="340" y="313"/>
      <point x="230" y="252"/>
    </contour>
    <contour>
      <point x="282" y="458" type="curve" smooth="yes"/>
      <point x="253" y="343"/>
      <point x="330" y="283"/>
      <point x="453" y="283" type="curve" smooth="yes"/>
      <point x="473" y="283"/>
      <point x="479" y="274"/>
      <point x="486" y="268" type="curve"/>
      <point x="488" y="276" type="line" smooth="yes"/>
      <point x="497" y="309"/>
      <point x="493" y="337"/>
      <point x="470" y="337" type="curve" smooth="yes"/>
      <point x="468" y="337" type="line" smooth="yes"/>
      <point x="381" y="337"/>
      <point x="344" y="392"/>
      <point x="362" y="464" type="curve" smooth="yes"/>
      <point x="382" y="545"/>
      <point x="445" y="597"/>
      <point x="459" y="654" type="curve" smooth="yes"/>
      <point x="460" y="657" type="line" smooth="yes"/>
      <point x="472" y="705"/>
      <point x="426" y="710"/>
      <point x="386" y="705" type="curve"/>
      <point x="396" y="686"/>
      <point x="396" y="671"/>
      <point x="391" y="650" type="curve" smooth="yes"/>
      <point x="381" y="612"/>
      <point x="304" y="548"/>
    </contour>
    <contour>
      <point x="264" y="688" type="curve" smooth="yes"/>
      <point x="361" y="688"/>
      <point x="402" y="672"/>
      <point x="406" y="609" type="curve"/>
      <point x="432" y="613"/>
      <point x="455" y="636"/>
      <point x="460" y="655" type="curve" smooth="yes"/>
      <point x="460" y="658" type="line" smooth="yes"/>
      <point x="481" y="739"/>
      <point x="405" y="770"/>
      <point x="271" y="770" type="curve" smooth="yes"/>
      <point x="265" y="770" type="line" smooth="yes"/>
      <point x="230" y="770"/>
      <point x="205" y="737"/>
      <point x="192" y="687" type="curve"/>
      <point x="190" y="679" type="line"/>
      <point x="194" y="679" type="line"/>
      <point x="218" y="685"/>
      <point x="236" y="688"/>
    </contour>
  </outline>
</glyph>
<glyph name="exclamdown" format="2">
  <advance width="600"/>
  <unicode hex="00A1"/>
  <outline>
    <contour>
      <point x="269" y="279" type="line"/>
      <point x="241" y="205"/>
      <point x="212" y="120"/>
      <point x="194" y="47" type="curve"/>
      <point x="151" y="-126" type="line" smooth="yes"/>
      <point x="142" y="-162"/>
      <point x="164" y="-175"/>
      <point x="216" y="-175" type="curve" smooth="yes"/>
      <point x="230" y="-175"/>
      <point x="241" y="-174"/>
      <point x="253" y="-171" type="curve"/>
      <point x="255" y="-135"/>
      <point x="262" y="-100"/>
      <point x="271" y="-62" type="curve" smooth="yes"/>
      <point x="298" y="45" type="line"/>
      <point x="325" y="153"/>
      <point x="341" y="246"/>
      <point x="329" y="262" type="curve" smooth="yes"/>
      <point x="320" y="274"/>
      <point x="301" y="279"/>
      <point x="276" y="279" type="curve"/>
    </contour>
    <contour>
      <point x="291" y="530" type="curve"/>
      <point x="270" y="445" type="line" smooth="yes"/>
      <point x="259" y="402"/>
      <point x="292" y="385"/>
      <point x="346" y="385" type="curve" smooth="yes"/>
      <point x="368" y="385"/>
      <point x="389" y="389"/>
      <point x="408" y="396" type="curve"/>
      <point x="429" y="482" type="line" smooth="yes"/>
      <point x="440" y="525"/>
      <point x="407" y="542"/>
      <point x="354" y="542" type="curve" smooth="yes"/>
      <point x="331" y="542"/>
      <point x="310" y="538"/>
    </contour>
  </outline>
</glyph>
<glyph name="cent" format="2">
  <advance width="600"/>
  <unicode hex="00A2"/>
  <outline>
    <contour>
      <point x="390" y="410" type="line"/>
      <point x="498" y="700" type="line" smooth="yes"/>
      <point x="518" y="749"/>
      <point x="508" y="774"/>
      <point x="464" y="774" type="curve" smooth="yes"/>
      <point x="453" y="774"/>
      <point x="437" y="771"/>
      <point x="427" y="768" type="curve"/>
      <point x="428" y="742"/>
      <point x="424" y="719"/>
      <point x="414" y="677" type="curve"/>
      <point x="356" y="445" type="line" smooth="yes"/>
      <point x="350" y="423"/>
      <point x="364" y="410"/>
      <point x="386" y="410" type="curve" smooth="yes"/>
    </contour>
    <contour>
      <point x="313" y="284" type="line"/>
      <point x="205" y="-6" type="line" smooth="yes"/>
      <point x="185" y="-55"/>
      <point x="194" y="-80"/>
      <point x="238" y="-80" type="curve" smooth="yes"/>
      <point x="250" y="-80"/>
      <point x="266" y="-77"/>
      <point x="276" y="-74" type="curve"/>
      <point x="275" y="-48"/>
      <point x="278" y="-25"/>
      <point x="288" y="17" type="curve"/>
      <point x="347" y="249" type="line" smooth="yes"/>
      <point x="352" y="271"/>
      <point x="339" y="284"/>
      <point x="317" y="284" type="curve" smooth="yes"/>
    </contour>
    <contour>
      <point x="435" y="626" type="curve" smooth="yes"/>
      <point x="276" y="626"/>
      <point x="129" y="513"/>
      <point x="80" y="316" type="curve" smooth="yes"/>
      <point x="77" y="302" type="line" smooth="yes"/>
      <point x="42" y="165"/>
      <point x="119" y="74"/>
      <point x="274" y="74" type="curve" smooth="yes"/>
      <point x="288" y="74"/>
      <point x="301" y="88"/>
      <point x="309" y="118" type="curve"/>
      <point x="169" y="138"/>
      <point x="135" y="210"/>
      <point x="158" y="302" type="curve" smooth="yes"/>
      <point x="161" y="316" type="line" smooth="yes"/>
      <point x="194" y="447"/>
      <point x="289" y="543"/>
      <point x="406" y="543" type="curve" smooth="yes"/>
      <point x="482" y="543"/>
      <point x="513" y="523"/>
      <point x="550" y="478" type="curve"/>
      <point x="554" y="478" type="line"/>
      <point x="561" y="491"/>
      <point x="566" y="503"/>
      <point x="570" y="519" type="curve" smooth="yes"/>
      <point x="577" y="545"/>
      <point x="578" y="568"/>
      <point x="568" y="582" type="curve" smooth="yes"/>
      <point x="547" y="611"/>
      <point x="502" y="626"/>
    </contour>
    <contour>
      <point x="139" y="237" type="curve"/>
      <point x="81" y="171"/>
      <point x="156" y="74"/>
      <point x="274" y="74" type="curve" smooth="yes"/>
      <point x="357" y="74"/>
      <point x="422" y="98"/>
      <point x="455" y="125" type="curve" smooth="yes"/>
      <point x="473" y="139"/>
      <point x="488" y="172"/>
      <point x="493" y="193" type="curve"/>
      <point x="496" y="205"/>
      <point x="497" y="212"/>
      <point x="498" y="220" type="curve"/>
      <point x="494" y="220" type="line"/>
      <point x="433" y="175"/>
      <point x="376" y="154"/>
      <point x="297" y="154" type="curve" smooth="yes"/>
      <point x="212" y="154"/>
      <point x="171" y="177"/>
    </contour>
  </outline>
</glyph>
<glyph name="sterling" format="2">
  <advance width="600"/>
  <unicode hex="00A3"/>
  <outline>
    <contour>
      <point x="407" y="638" type="curve" smooth="yes"/>
      <point x="500" y="638"/>
      <point x="554" y="611"/>
      <point x="585" y="548" type="curve"/>
      <point x="589" y="548" type="line"/>
      <point x="599" y="564"/>
      <point x="603" y="576"/>
      <point x="608" y="595" type="curve" smooth="yes"/>
      <point x="615" y="625"/>
      <point x="615" y="643"/>
      <point x="599" y="664" type="curve" smooth="yes"/>
      <point x="576" y="694"/>
      <point x="516" y="719"/>
      <point x="427" y="719" type="curve" smooth="yes"/>
      <point x="285" y="719"/>
      <point x="181" y="647"/>
      <point x="155" y="544" type="curve" smooth="yes"/>
      <point x="153" y="536" type="line" smooth="yes"/>
      <point x="144" y="501"/>
      <point x="171" y="492"/>
      <point x="211" y="491" type="curve"/>
      <point x="234" y="584"/>
      <point x="296" y="638"/>
    </contour>
    <contour>
      <point x="153" y="536" type="curve" smooth="yes"/>
      <point x="120" y="404"/>
      <point x="200" y="300"/>
      <point x="167" y="168" type="curve" smooth="yes"/>
      <point x="151" y="101"/>
      <point x="106" y="68"/>
      <point x="43" y="68" type="curve" smooth="yes"/>
      <point x="27" y="68"/>
      <point x="16" y="69"/>
      <point x="7" y="77" type="curve"/>
      <point x="3" y="77" type="line"/>
      <point x="-3" y="66"/>
      <point x="-6" y="58"/>
      <point x="-9" y="46" type="curve" smooth="yes"/>
      <point x="-19" y="7"/>
      <point x="-8" y="-15"/>
      <point x="35" y="-15" type="curve" smooth="yes"/>
      <point x="41" y="-15" type="line" smooth="yes"/>
      <point x="141" y="-15"/>
      <point x="215" y="56"/>
      <point x="241" y="157" type="curve" smooth="yes"/>
      <point x="275" y="296"/>
      <point x="201" y="405"/>
      <point x="235" y="540" type="curve" smooth="yes"/>
      <point x="242" y="567"/>
      <point x="252" y="591"/>
      <point x="274" y="619" type="curve"/>
      <point x="202" y="619"/>
      <point x="165" y="582"/>
    </contour>
    <contour>
      <point x="157" y="82" type="curve"/>
      <point x="231" y="17"/>
      <point x="296" y="-15"/>
      <point x="381" y="-15" type="curve" smooth="yes"/>
      <point x="391" y="-15" type="line" smooth="yes"/>
      <point x="456" y="-15"/>
      <point x="494" y="21"/>
      <point x="507" y="71" type="curve"/>
      <point x="512" y="92"/>
      <point x="511" y="110"/>
      <point x="508" y="123" type="curve"/>
      <point x="504" y="123" type="line"/>
      <point x="475" y="85"/>
      <point x="446" y="70"/>
      <point x="396" y="70" type="curve" smooth="yes"/>
      <point x="324" y="70"/>
      <point x="264" y="93"/>
      <point x="192" y="141" type="curve"/>
      <point x="174" y="132"/>
      <point x="157" y="106"/>
    </contour>
    <contour>
      <point x="75" y="366" type="line"/>
      <point x="74" y="362"/>
      <point x="73" y="357"/>
      <point x="72" y="353" type="curve" smooth="yes"/>
      <point x="65" y="323"/>
      <point x="65" y="305"/>
      <point x="73" y="294" type="curve" smooth="yes"/>
      <point x="78" y="287"/>
      <point x="86" y="284"/>
      <point x="104" y="284" type="curve" smooth="yes"/>
      <point x="453" y="284" type="line"/>
      <point x="456" y="293"/>
      <point x="459" y="303"/>
      <point x="461" y="311" type="curve" smooth="yes"/>
      <point x="470" y="347"/>
      <point x="466" y="366"/>
      <point x="436" y="366" type="curve" smooth="yes"/>
    </contour>
  </outline>
</glyph>
<glyph name="currency" format="2">
  <advance width="600"/>
  <unicode hex="00A4"/>
  <outline>
    <contour>
      <point x="278" y="415" type="curve"/>
      <point x="257" y="437"/>
      <point x="238" y="463"/>
      <point x="222" y="490" type="curve" smooth="yes"/>
      <point x="217" y="500"/>
      <point x="209" y="505"/>
      <point x="201" y="505" type="curve" smooth="yes"/>
      <point x="189" y="505"/>
      <point x="174" y="497"/>
      <point x="157" y="483" type="curve" smooth="yes"/>
      <point x="150" y="477"/>
      <point x="141" y="469"/>
      <point x="135" y="462" type="curve"/>
      <point x="149" y="438"/>
      <point x="165" y="416"/>
      <point x="183" y="396" type="curve" smooth="yes"/>
      <point x="200" y="376"/>
      <point x="235" y="380"/>
      <point x="267" y="406" type="curve" smooth="yes"/>
      <point x="271" y="409"/>
      <point x="275" y="412"/>
    </contour>
    <contour>
      <point x="396" y="415" type="curve"/>
      <point x="398" y="412"/>
      <point x="400" y="409"/>
      <point x="403" y="406" type="curve" smooth="yes"/>
      <point x="422" y="380"/>
      <point x="450" y="374"/>
      <point x="479" y="394" type="curve" smooth="yes"/>
      <point x="507" y="414"/>
      <point x="535" y="436"/>
      <point x="563" y="462" type="curve"/>
      <point x="560" y="469"/>
      <point x="556" y="477"/>
      <point x="551" y="483" type="curve" smooth="yes"/>
      <point x="542" y="497"/>
      <point x="530" y="505"/>
      <point x="518" y="505" type="curve" smooth="yes"/>
      <point x="510" y="505"/>
      <point x="501" y="500"/>
      <point x="491" y="490" type="curve" smooth="yes"/>
      <point x="460" y="462"/>
      <point x="428" y="436"/>
    </contour>
    <contour>
      <point x="337" y="182" type="curve"/>
      <point x="359" y="159"/>
      <point x="377" y="134"/>
      <point x="393" y="107" type="curve" smooth="yes"/>
      <point x="399" y="96"/>
      <point x="406" y="92"/>
      <point x="414" y="92" type="curve" smooth="yes"/>
      <point x="426" y="92"/>
      <point x="442" y="100"/>
      <point x="459" y="114" type="curve" smooth="yes"/>
      <point x="465" y="120"/>
      <point x="474" y="127"/>
      <point x="481" y="134" type="curve"/>
      <point x="467" y="158"/>
      <point x="450" y="181"/>
      <point x="433" y="200" type="curve" smooth="yes"/>
      <point x="415" y="221"/>
      <point x="380" y="216"/>
      <point x="348" y="191" type="curve" smooth="yes"/>
      <point x="344" y="188"/>
      <point x="340" y="184"/>
    </contour>
    <contour>
      <point x="217" y="181" type="curve"/>
      <point x="215" y="184"/>
      <point x="213" y="187"/>
      <point x="210" y="190" type="curve" smooth="yes"/>
      <point x="191" y="216"/>
      <point x="164" y="222"/>
      <point x="134" y="202" type="curve" smooth="yes"/>
      <point x="106" y="182"/>
      <point x="78" y="160"/>
      <point x="50" y="134" type="curve"/>
      <point x="53" y="127"/>
      <point x="57" y="119"/>
      <point x="62" y="113" type="curve" smooth="yes"/>
      <point x="71" y="99"/>
      <point x="83" y="91"/>
      <point x="95" y="91" type="curve" smooth="yes"/>
      <point x="103" y="91"/>
      <point x="112" y="96"/>
      <point x="122" y="106" type="curve" smooth="yes"/>
      <point x="153" y="134"/>
      <point x="185" y="160"/>
    </contour>
    <contour>
      <point x="295" y="179" type="curve"/>
      <point x="224" y="179"/>
      <point x="192" y="223"/>
      <point x="210" y="293" type="curve" smooth="yes"/>
      <point x="211" y="300" type="line" smooth="yes"/>
      <point x="228" y="368"/>
      <point x="275" y="409"/>
      <point x="343" y="409" type="curve" smooth="yes"/>
      <point x="374" y="409"/>
      <point x="394" y="402"/>
      <point x="417" y="382" type="curve"/>
      <point x="444" y="424"/>
      <point x="412" y="472"/>
      <point x="354" y="472" type="curve"/>
      <point x="255" y="472"/>
      <point x="169" y="401"/>
      <point x="144" y="301" type="curve" smooth="yes"/>
      <point x="143" y="294" type="line" smooth="yes"/>
      <point x="118" y="196"/>
      <point x="169" y="131"/>
      <point x="262" y="131" type="curve"/>
      <point x="275" y="131"/>
      <point x="289" y="153"/>
    </contour>
    <contour>
      <point x="320" y="420" type="curve"/>
      <point x="392" y="420"/>
      <point x="424" y="378"/>
      <point x="407" y="310" type="curve" smooth="yes"/>
      <point x="405" y="303" type="line" smooth="yes"/>
      <point x="388" y="235"/>
      <point x="341" y="194"/>
      <point x="273" y="194" type="curve" smooth="yes"/>
      <point x="242" y="194"/>
      <point x="223" y="200"/>
      <point x="199" y="221" type="curve"/>
      <point x="172" y="179"/>
      <point x="204" y="131"/>
      <point x="262" y="131" type="curve"/>
      <point x="361" y="131"/>
      <point x="447" y="202"/>
      <point x="472" y="302" type="curve" smooth="yes"/>
      <point x="474" y="309" type="line" smooth="yes"/>
      <point x="498" y="407"/>
      <point x="447" y="472"/>
      <point x="354" y="472" type="curve"/>
      <point x="341" y="472"/>
      <point x="328" y="452"/>
    </contour>
  </outline>
</glyph>
<glyph name="brokenbar" format="2">
  <advance width="600"/>
  <unicode hex="00A6"/>
  <outline>
    <contour>
      <point x="373" y="759" type="curve"/>
      <point x="371" y="724"/>
      <point x="364" y="688"/>
      <point x="354" y="650" type="curve" smooth="yes"/>
      <point x="293" y="406" type="line" smooth="yes"/>
      <point x="286" y="379"/>
      <point x="309" y="369"/>
      <point x="350" y="369" type="curve" smooth="yes"/>
      <point x="357" y="369"/>
      <point x="364" y="369"/>
      <point x="368" y="370" type="curve"/>
      <point x="451" y="700" type="line" smooth="yes"/>
      <point x="457" y="723"/>
      <point x="458" y="740"/>
      <point x="449" y="751" type="curve" smooth="yes"/>
      <point x="443" y="760"/>
      <point x="431" y="764"/>
      <point x="406" y="764" type="curve" smooth="yes"/>
      <point x="394" y="764"/>
      <point x="385" y="762"/>
    </contour>
    <contour>
      <point x="249" y="229" type="curve"/>
      <point x="160" y="-124" type="line"/>
      <point x="154" y="-151"/>
      <point x="176" y="-161"/>
      <point x="217" y="-161" type="curve" smooth="yes"/>
      <point x="224" y="-161"/>
      <point x="231" y="-161"/>
      <point x="236" y="-160" type="curve"/>
      <point x="322" y="186" type="line" smooth="yes"/>
      <point x="330" y="218"/>
      <point x="321" y="234"/>
      <point x="278" y="234" type="curve" smooth="yes"/>
      <point x="267" y="234"/>
      <point x="257" y="232"/>
    </contour>
  </outline>
</glyph>
<glyph name="section" format="2">
  <advance width="600"/>
  <unicode hex="00A7"/>
  <outline>
    <contour>
      <point x="491" y="720" type="curve" smooth="yes"/>
      <point x="342" y="720"/>
      <point x="160" y="569"/>
      <point x="128" y="441" type="curve" smooth="yes"/>
      <point x="125" y="430" type="line" smooth="yes"/>
      <point x="118" y="402"/>
      <point x="159" y="378"/>
      <point x="197" y="374" type="curve"/>
      <point x="198" y="397"/>
      <point x="203" y="418"/>
      <point x="209" y="440" type="curve" smooth="yes"/>
      <point x="231" y="530"/>
      <point x="374" y="639"/>
      <point x="471" y="639" type="curve" smooth="yes"/>
      <point x="535" y="639"/>
      <point x="555" y="609"/>
      <point x="539" y="548" type="curve"/>
      <point x="565" y="548"/>
      <point x="584" y="569"/>
      <point x="587" y="581" type="curve" smooth="yes"/>
      <point x="597" y="623"/>
      <point x="598" y="657"/>
      <point x="579" y="683" type="curve" smooth="yes"/>
      <point x="562" y="705"/>
      <point x="536" y="720"/>
    </contour>
    <contour>
      <point x="386" y="307" type="curve" smooth="yes"/>
      <point x="306" y="339" type="line" smooth="yes"/>
      <point x="206" y="379"/>
      <point x="199" y="403"/>
      <point x="209" y="440" type="curve" smooth="yes"/>
      <point x="214" y="462"/>
      <point x="219" y="478"/>
      <point x="230" y="503" type="curve"/>
      <point x="185" y="496"/>
      <point x="137" y="477"/>
      <point x="125" y="430" type="curve" smooth="yes"/>
      <point x="109" y="364"/>
      <point x="138" y="319"/>
      <point x="263" y="268" type="curve" smooth="yes"/>
      <point x="342" y="235" type="line" smooth="yes"/>
      <point x="418" y="204"/>
      <point x="431" y="177"/>
      <point x="418" y="126" type="curve" smooth="yes"/>
      <point x="417" y="121" type="line" smooth="yes"/>
      <point x="409" y="87"/>
      <point x="393" y="62"/>
      <point x="357" y="29" type="curve"/>
      <point x="362" y="21"/>
      <point x="374" y="14"/>
      <point x="390" y="14" type="curve" smooth="yes"/>
      <point x="420" y="14"/>
      <point x="480" y="57"/>
      <point x="498" y="131" type="curve" smooth="yes"/>
      <point x="501" y="139" type="line" smooth="yes"/>
      <point x="518" y="209"/>
      <point x="489" y="266"/>
    </contour>
    <contour>
      <point x="327" y="72" type="curve" smooth="yes"/>
      <point x="248" y="103" type="line" smooth="yes"/>
      <point x="147" y="143"/>
      <point x="144" y="179"/>
      <point x="153" y="219" type="curve" smooth="yes"/>
      <point x="155" y="226" type="line" smooth="yes"/>
      <point x="163" y="258"/>
      <point x="185" y="290"/>
      <point x="221" y="316" type="curve"/>
      <point x="216" y="322"/>
      <point x="205" y="329"/>
      <point x="191" y="329" type="curve" smooth="yes"/>
      <point x="146" y="329"/>
      <point x="86" y="276"/>
      <point x="71" y="214" type="curve" smooth="yes"/>
      <point x="69" y="207" type="line" smooth="yes"/>
      <point x="53" y="142"/>
      <point x="79" y="84"/>
      <point x="207" y="32" type="curve" smooth="yes"/>
      <point x="286" y="-1" type="line" smooth="yes"/>
      <point x="364" y="-33"/>
      <point x="379" y="-65"/>
      <point x="364" y="-128" type="curve" smooth="yes"/>
      <point x="362" y="-133"/>
      <point x="361" y="-139"/>
      <point x="360" y="-144" type="curve"/>
      <point x="390" y="-141"/>
      <point x="440" y="-104"/>
      <point x="446" y="-81" type="curve"/>
      <point x="460" y="-22"/>
      <point x="430" y="30"/>
    </contour>
    <contour>
      <point x="171" y="-250" type="curve" smooth="yes"/>
      <point x="317" y="-250"/>
      <point x="419" y="-188"/>
      <point x="444" y="-89" type="curve" smooth="yes"/>
      <point x="446" y="-81" type="line" smooth="yes"/>
      <point x="452" y="-55"/>
      <point x="425" y="-36"/>
      <point x="402" y="-34" type="curve"/>
      <point x="401" y="-38"/>
      <point x="400" y="-42"/>
      <point x="398" y="-52" type="curve" smooth="yes"/>
      <point x="379" y="-125"/>
      <point x="301" y="-168"/>
      <point x="192" y="-168" type="curve" smooth="yes"/>
      <point x="89" y="-168"/>
      <point x="27" y="-141"/>
      <point x="-8" y="-81" type="curve"/>
      <point x="-12" y="-81" type="line"/>
      <point x="-19" y="-94"/>
      <point x="-25" y="-107"/>
      <point x="-29" y="-126" type="curve" smooth="yes"/>
      <point x="-36" y="-155"/>
      <point x="-35" y="-175"/>
      <point x="-24" y="-191" type="curve" smooth="yes"/>
      <point x="5" y="-229"/>
      <point x="78" y="-250"/>
    </contour>
    <contour>
      <point x="553" y="448" type="curve"/>
      <point x="587" y="581" type="line" smooth="yes"/>
      <point x="607" y="663"/>
      <point x="558" y="676"/>
      <point x="519" y="663" type="curve"/>
      <point x="518" y="633"/>
      <point x="511" y="602"/>
      <point x="501" y="564" type="curve" smooth="yes"/>
      <point x="484" y="493" type="line" smooth="yes"/>
      <point x="479" y="477"/>
      <point x="480" y="465"/>
      <point x="486" y="456" type="curve" smooth="yes"/>
      <point x="493" y="448"/>
      <point x="504" y="444"/>
      <point x="525" y="444" type="curve" smooth="yes"/>
      <point x="536" y="444"/>
      <point x="545" y="445"/>
    </contour>
  </outline>
</glyph>
<glyph name="dieresis" format="2">
  <advance width="600"/>
  <unicode hex="00A8"/>
  <outline>
    <contour>
      <point x="345" y="651" type="curve"/>
      <point x="363" y="720" type="line" smooth="yes"/>
      <point x="370" y="749"/>
      <point x="345" y="760"/>
      <point x="309" y="760" type="curve" smooth="yes"/>
      <point x="295" y="760"/>
      <point x="280" y="759"/>
      <point x="268" y="757" type="curve"/>
      <point x="251" y="687" type="line" smooth="yes"/>
      <point x="243" y="659"/>
      <point x="269" y="647"/>
      <point x="303" y="647" type="curve" smooth="yes"/>
      <point x="318" y="647"/>
      <point x="332" y="648"/>
    </contour>
    <contour>
      <point x="551" y="651" type="curve"/>
      <point x="569" y="720" type="line" smooth="yes"/>
      <point x="576" y="749"/>
      <point x="551" y="760"/>
      <point x="516" y="760" type="curve" smooth="yes"/>
      <point x="502" y="760"/>
      <point x="487" y="759"/>
      <point x="474" y="757" type="curve"/>
      <point x="457" y="687" type="line" smooth="yes"/>
      <point x="450" y="659"/>
      <point x="475" y="647"/>
      <point x="510" y="647" type="curve" smooth="yes"/>
      <point x="524" y="647"/>
      <point x="539" y="648"/>
    </contour>
  </outline>
</glyph>
